STARTFONT 2.1
COMMENT
COMMENT Converted from OpenType font "NimbusSans-Regular.otf" by "otf2bdf 3.0".
COMMENT
FONT -FreeType-Nimbus Sans-Medium-R-Normal--44-320-100-100-P-232-ISO10646-1
SIZE 32 100 100
FONTBOUNDINGBOX 55 60 -9 -13
STARTPROPERTIES 19
FOUNDRY "FreeType"
FAMILY_NAME "Nimbus Sans"
WEIGHT_NAME "Medium"
SLANT "R"
SETWIDTH_NAME "Normal"
ADD_STYLE_NAME ""
PIXEL_SIZE 44
POINT_SIZE 320
RESOLUTION_X 100
RESOLUTION_Y 100
SPACING "P"
AVERAGE_WIDTH 232
CHARSET_REGISTRY "ISO10646"
CHARSET_ENCODING "1"
FONT_ASCENT 32
FONT_DESCENT 11
COPYRIGHT "(URW)++,Copyright 2014 by (URW)++ Design & Development"
_OTF_FONTFILE "NimbusSans-Regular.otf"
_OTF_PSNAME "NimbusSans-Regular"
ENDPROPERTIES
CHARS 854
STARTCHAR 0020
ENCODING 32
SWIDTH 270 0
DWIDTH 12 0
BBX 0 0 0 0
BITMAP
ENDCHAR
STARTCHAR 0021
ENCODING 33
SWIDTH 270 0
DWIDTH 12 0
BBX 3 32 6 0
BITMAP
E0
E0
E0
E0
E0
E0
E0
E0
E0
E0
E0
E0
E0
E0
E0
E0
E0
E0
E0
E0
E0
E0
C0
C0
40
00
00
E0
E0
E0
E0
E0
ENDCHAR
STARTCHAR 0022
ENCODING 34
SWIDTH 360 0
DWIDTH 16 0
BBX 12 11 2 21
BITMAP
F1F0
F1F0
F1F0
F1F0
F1F0
F1F0
F0E0
70E0
70E0
70E0
60E0
ENDCHAR
STARTCHAR 0023
ENCODING 35
SWIDTH 562 0
DWIDTH 25 0
BBX 23 32 1 -1
BITMAP
00F078
00E070
00E070
00E070
01E0F0
01E0F0
01C0E0
01C0E0
01C0E0
7FFFFE
7FFFFE
7FFFFE
0381C0
0381C0
0381C0
0783C0
0783C0
078380
070380
070380
FFFFFC
FFFFFC
FFFFFC
0E0700
0E0700
0E0700
1E0F00
1E0F00
1C0E00
1C0E00
1C0E00
3C1E00
ENDCHAR
STARTCHAR 0024
ENCODING 36
SWIDTH 562 0
DWIDTH 25 0
BBX 21 40 2 -6
BITMAP
007000
007000
00FC00
07FF00
1FFFC0
3F77E0
3C71E0
7870F0
7070F0
F07070
F07070
F07000
F07000
787000
7C7000
3F7000
3FF000
1FFE00
07FFC0
00FFE0
007FF0
0071F8
0070F8
007078
007038
E07038
F07038
F07038
F07078
F07078
7C70F0
7E73E0
3FFFE0
0FFF80
03FE00
007000
007000
007000
007000
007000
ENDCHAR
STARTCHAR 0025
ENCODING 37
SWIDTH 900 0
DWIDTH 40 0
BBX 37 32 1 -1
BITMAP
0000003800
07E0007000
1FF8007000
3FFC00E000
7C3C00C000
701E01C000
700E038000
E00E038000
E00E070000
F00E070000
700E0E0000
781E0E0000
7C3C1C0000
3FF81C0000
1FF0380000
07C0300000
0000700000
0000E01F80
0000E07FC0
0001C0FFE0
0001C1F0F0
000381C078
000383C038
0007038038
0007038038
000E038038
000C03C038
001C01C078
003801F1F0
003800FFE0
0070007FC0
0070001F00
ENDCHAR
STARTCHAR 0026
ENCODING 38
SWIDTH 675 0
DWIDTH 30 0
BBX 26 33 2 -1
BITMAP
007C0000
01FF0000
03FF8000
07C7C000
0F03C000
0F01E000
0F01E000
0F01E000
0F01E000
0F03C000
0787C000
07CF8000
03FF0000
01FE0000
01F80000
03F80000
0FFC0000
1FBE0E00
3E1E0E00
7C1F0E00
780F9E00
7807DE00
F003FC00
F001FC00
F001F800
F000F800
7800FC00
7801FE00
7E03FF00
3FFFDF00
1FFF8F80
0FFE07C0
03F80000
ENDCHAR
STARTCHAR 0027
ENCODING 39
SWIDTH 180 0
DWIDTH 8 0
BBX 4 11 2 21
BITMAP
F0
F0
F0
F0
F0
F0
F0
70
70
60
60
ENDCHAR
STARTCHAR 0028
ENCODING 40
SWIDTH 337 0
DWIDTH 15 0
BBX 10 42 3 -10
BITMAP
01C0
0380
0380
0700
0700
0E00
0E00
1C00
1C00
3C00
3800
3800
7800
7800
7000
7000
7000
F000
F000
F000
F000
F000
F000
F000
F000
7000
7000
7800
7800
7800
3800
3800
3C00
1C00
1C00
0E00
0E00
0700
0700
0380
0180
01C0
ENDCHAR
STARTCHAR 0029
ENCODING 41
SWIDTH 337 0
DWIDTH 15 0
BBX 9 42 2 -10
BITMAP
E000
6000
7000
3800
3800
1C00
1C00
1C00
0E00
0E00
0F00
0700
0700
0700
0780
0780
0380
0380
0380
0380
0380
0380
0380
0380
0380
0380
0780
0780
0700
0700
0700
0F00
0E00
0E00
1C00
1C00
3800
3800
3000
7000
6000
C000
ENDCHAR
STARTCHAR 002A
ENCODING 42
SWIDTH 382 0
DWIDTH 17 0
BBX 13 13 2 19
BITMAP
0700
0700
0700
0700
F778
FFF8
3FE0
0F80
0F80
1DC0
38E0
38E0
1040
ENDCHAR
STARTCHAR 002B
ENCODING 43
SWIDTH 585 0
DWIDTH 26 0
BBX 22 21 2 -1
BITMAP
007800
007800
007800
007800
007800
007800
007800
007800
007800
FFFFFC
FFFFFC
FFFFFC
007800
007800
007800
007800
007800
007800
007800
007800
007800
ENDCHAR
STARTCHAR 002C
ENCODING 44
SWIDTH 270 0
DWIDTH 12 0
BBX 5 11 4 -7
BITMAP
F8
F8
F8
F8
F8
18
18
30
30
70
E0
ENDCHAR
STARTCHAR 002D
ENCODING 45
SWIDTH 337 0
DWIDTH 15 0
BBX 11 3 2 11
BITMAP
FFE0
FFE0
FFE0
ENDCHAR
STARTCHAR 002E
ENCODING 46
SWIDTH 270 0
DWIDTH 12 0
BBX 4 5 4 0
BITMAP
F0
F0
F0
F0
F0
ENDCHAR
STARTCHAR 002F
ENCODING 47
SWIDTH 270 0
DWIDTH 12 0
BBX 12 33 0 -1
BITMAP
0030
0030
0070
0060
0060
00E0
00E0
00C0
01C0
01C0
0180
0180
0380
0300
0300
0700
0600
0600
0E00
0C00
0C00
1C00
1800
1800
3800
3000
3000
7000
7000
6000
E000
E000
C000
ENDCHAR
STARTCHAR 0030
ENCODING 48
SWIDTH 562 0
DWIDTH 25 0
BBX 21 34 2 -1
BITMAP
01F800
07FE00
0FFF80
1FFF80
3E07C0
3C03E0
3C01E0
7801E0
7800F0
7800F0
F000F0
F000F0
F000F0
F000F0
F000F0
F000F8
F00078
F00078
F00078
F000F8
F000F0
F000F0
F000F0
F000F0
7800F0
7800F0
7801E0
7C01E0
3C03E0
3E03C0
1F8F80
0FFF00
07FE00
01F800
ENDCHAR
STARTCHAR 0031
ENCODING 49
SWIDTH 562 0
DWIDTH 25 0
BBX 10 32 5 0
BITMAP
00C0
01C0
01C0
03C0
03C0
0FC0
FFC0
FFC0
FFC0
03C0
03C0
03C0
03C0
03C0
03C0
03C0
03C0
03C0
03C0
03C0
03C0
03C0
03C0
03C0
03C0
03C0
03C0
03C0
03C0
03C0
03C0
03C0
ENDCHAR
STARTCHAR 0032
ENCODING 50
SWIDTH 562 0
DWIDTH 25 0
BBX 21 33 2 0
BITMAP
01FC00
07FF80
1FFFC0
3FDFE0
3E03E0
7C01F0
7800F0
7800F8
F00078
F00078
F00078
0000F8
0000F0
0000F0
0001E0
0003E0
000FC0
001F80
007F00
01FC00
03F800
07E000
1F8000
1F0000
3C0000
7C0000
780000
F00000
F00000
FFFFF0
FFFFF0
FFFFF0
FFFFF0
ENDCHAR
STARTCHAR 0033
ENCODING 51
SWIDTH 562 0
DWIDTH 25 0
BBX 21 34 1 -1
BITMAP
01FE00
07FF80
0FFFC0
1FDFE0
3E01F0
3C00F0
3C00F0
7800F8
780078
780078
7800F0
0000F0
0000F0
0003E0
007FC0
007F80
007FC0
007FE0
0001F0
0000F8
000078
000078
000078
F00078
700078
780078
780078
780078
7C00F8
3E01F0
1FFFE0
1FFFC0
07FF80
01FC00
ENDCHAR
STARTCHAR 0034
ENCODING 52
SWIDTH 562 0
DWIDTH 25 0
BBX 22 32 1 0
BITMAP
000380
000780
000780
000F80
001F80
003F80
003B80
007B80
00F380
00E380
01E380
03C380
078380
078380
0F0380
1E0380
1C0380
3C0380
780380
700380
F00380
FFFFFC
FFFFFC
FFFFFC
000380
000380
000380
000380
000380
000380
000380
000380
ENDCHAR
STARTCHAR 0035
ENCODING 53
SWIDTH 562 0
DWIDTH 25 0
BBX 21 33 2 -1
BITMAP
1FFFE0
1FFFE0
1FFFE0
3FFFE0
3C0000
3C0000
3C0000
3C0000
380000
380000
780000
79FC00
7FFF00
7FFFC0
7FFFE0
7C03E0
7801F0
0000F0
0000F0
0000F8
000078
000078
000078
000078
F00078
F000F0
F000F0
F801E0
7C03E0
3FDFC0
1FFF80
0FFF00
03F800
ENDCHAR
STARTCHAR 0036
ENCODING 54
SWIDTH 562 0
DWIDTH 25 0
BBX 21 34 2 -1
BITMAP
00FC00
03FF00
07FFC0
0FFFC0
1F03E0
3E01E0
3C00F0
7800F0
780000
780000
700000
F00000
F00000
F1FF00
F7FF80
FFFFC0
FF07E0
FC01F0
FC00F0
F800F0
F800F8
F00078
F00078
F00078
F00078
700078
7800F0
7800F0
3C01F0
3E03E0
1FDFC0
0FFF80
07FF00
01FC00
ENDCHAR
STARTCHAR 0037
ENCODING 55
SWIDTH 562 0
DWIDTH 25 0
BBX 21 32 2 0
BITMAP
FFFFF8
FFFFF8
FFFFF8
FFFFF8
000070
0000F0
0001E0
0001C0
0003C0
000780
000700
000F00
000E00
001E00
003C00
003C00
007800
007800
007000
00F000
00E000
01E000
01E000
01C000
03C000
03C000
03C000
078000
078000
078000
078000
0F0000
ENDCHAR
STARTCHAR 0038
ENCODING 56
SWIDTH 562 0
DWIDTH 25 0
BBX 21 34 2 -1
BITMAP
01FC00
07FF00
1FFF80
3FFFC0
3E03E0
7C01E0
7801E0
7800F0
7800F0
7800F0
7801F0
7801E0
3C03E0
3F07C0
0FFF80
07FE00
1FFF80
3F8FC0
7C03E0
7801F0
F000F0
F000F8
F00078
F00078
F00078
F00078
F000F0
F800F0
7801F0
7E03E0
3FFFC0
1FFF80
0FFF00
01FC00
ENDCHAR
STARTCHAR 0039
ENCODING 57
SWIDTH 562 0
DWIDTH 25 0
BBX 21 34 2 -1
BITMAP
01F800
07FF00
1FFF80
3F9FC0
3E07C0
7803E0
7801E0
F000F0
F000F0
F000F0
F000F0
F000F0
F000F0
F000F8
F000F8
F801F8
7C03F8
3E0FF8
3FFF78
1FFE78
07FC70
0000F0
0000F0
0000F0
0000F0
0000F0
7801E0
7801E0
7C03C0
3C07C0
3FBF80
1FFF00
0FFE00
03F000
ENDCHAR
STARTCHAR 003A
ENCODING 58
SWIDTH 270 0
DWIDTH 12 0
BBX 5 23 5 0
BITMAP
F8
F8
F8
F8
F8
00
00
00
00
00
00
00
00
00
00
00
00
00
F8
F8
F8
F8
F8
ENDCHAR
STARTCHAR 003B
ENCODING 59
SWIDTH 270 0
DWIDTH 12 0
BBX 5 29 5 -7
BITMAP
F8
F8
F8
F8
F8
00
00
00
00
00
00
00
00
00
00
00
00
00
F8
F8
F8
F8
F8
18
18
30
30
70
E0
ENDCHAR
STARTCHAR 003C
ENCODING 60
SWIDTH 585 0
DWIDTH 26 0
BBX 22 21 2 -1
BITMAP
00001C
00007C
0001FC
000FF8
003FC0
00FF00
07F800
1FE000
7F0000
FC0000
F80000
FE0000
3FC000
0FF000
03FE00
007F80
001FE0
0007FC
0000FC
00003C
000004
ENDCHAR
STARTCHAR 003D
ENCODING 61
SWIDTH 585 0
DWIDTH 26 0
BBX 22 11 2 5
BITMAP
FFFFFC
FFFFFC
FFFFFC
000000
000000
000000
000000
000000
FFFFFC
FFFFFC
FFFFFC
ENDCHAR
STARTCHAR 003E
ENCODING 62
SWIDTH 585 0
DWIDTH 26 0
BBX 22 21 2 -1
BITMAP
C00000
F80000
FE0000
7FC000
0FF000
03FC00
00FF80
001FE0
0007F8
0000FC
00007C
0001FC
000FF0
003FC0
00FF00
07F800
1FE000
FF0000
FC0000
F00000
800000
ENDCHAR
STARTCHAR 003F
ENCODING 63
SWIDTH 562 0
DWIDTH 25 0
BBX 20 33 3 0
BITMAP
01FC00
0FFF00
1FFF80
3FFFC0
3C03E0
7801E0
7801E0
7800F0
7000F0
F000F0
0001E0
0001E0
0003E0
0007C0
000F80
001F00
003E00
007C00
00F800
00F000
00F000
00F000
00F000
00F000
000000
000000
000000
000000
00F000
00F000
00F000
00F000
00F000
ENDCHAR
STARTCHAR 0040
ENCODING 64
SWIDTH 1012 0
DWIDTH 45 0
BBX 40 39 2 -6
BITMAP
00007FC000
0003FFF800
001FFFFE00
003FF3FF80
00FE001FC0
01F80007E0
03E00003F0
07C00000F8
0F8000007C
1F0000003C
1E003F003E
3C00FF9E1E
3C01FFDE1F
7807C1DC0F
780780FC0F
700F007C0F
F01E00780F
F01E00780F
E03C00780F
E03C00700F
E03C00F00F
E03C00F00E
E03C00E01E
F03C01E03C
F03C01E03C
F03E03E078
F81F0FF1F0
780FFFFFE0
7C07F8FFC0
3C03F07F00
3E00000000
1F00000000
0F80000000
07E0000000
03F8000800
01FF007800
007FFFF800
001FFFFC00
0007FFE000
ENDCHAR
STARTCHAR 0041
ENCODING 65
SWIDTH 675 0
DWIDTH 30 0
BBX 28 32 1 0
BITMAP
001F8000
001F8000
003FC000
003FC000
003FC000
007FE000
0079E000
0079E000
00F1F000
00F0F000
00F0F000
01E0F800
01E07800
03E07800
03C07C00
03C03C00
07C03E00
07803E00
07801E00
0FFFFF00
0FFFFF00
0FFFFF00
1F000F80
1E000F80
3E000780
3C0007C0
3C0007C0
7C0003C0
780003E0
780001E0
F80001E0
F00001F0
ENDCHAR
STARTCHAR 0042
ENCODING 66
SWIDTH 675 0
DWIDTH 30 0
BBX 24 32 4 0
BITMAP
FFFF80
FFFFE0
FFFFF0
FFFFF8
F000F8
F0007C
F0003C
F0003C
F0003C
F0003C
F0003C
F0003C
F00078
F001F0
FFFFE0
FFFFC0
FFFFF0
FFFFFC
F0007C
F0003E
F0001E
F0001F
F0000F
F0000F
F0001F
F0001E
F0003E
F0007E
FFFFFC
FFFFF8
FFFFF0
FFFFC0
ENDCHAR
STARTCHAR 0043
ENCODING 67
SWIDTH 720 0
DWIDTH 32 0
BBX 28 34 2 -1
BITMAP
001FE000
00FFFC00
03FFFE00
07FFFF00
0FC01F80
0F8007C0
1F0003C0
3E0003E0
3C0001E0
7C0001E0
780001E0
78000000
78000000
F8000000
F0000000
F0000000
F0000000
F0000000
F0000000
F0000000
F8000000
780000F0
780000F0
780001F0
7C0001E0
3C0001E0
3E0003E0
1F0003C0
1F8007C0
0FE01F80
07FFFF00
03FFFE00
00FFFC00
003FE000
ENDCHAR
STARTCHAR 0044
ENCODING 68
SWIDTH 720 0
DWIDTH 32 0
BBX 26 32 4 0
BITMAP
FFFF0000
FFFFE000
FFFFF000
FFFFF800
F000FC00
F0003E00
F0001F00
F0000F00
F0000F80
F0000780
F0000780
F0000780
F0000780
F00007C0
F00007C0
F00007C0
F00007C0
F00007C0
F00007C0
F0000780
F0000780
F0000780
F0000780
F0000F00
F0000F00
F0001F00
F0003E00
F000FC00
FFFFF800
FFFFF000
FFFFE000
FFFF0000
ENDCHAR
STARTCHAR 0045
ENCODING 69
SWIDTH 675 0
DWIDTH 30 0
BBX 23 32 4 0
BITMAP
FFFFFC
FFFFFC
FFFFFC
FFFFFC
F00000
F00000
F00000
F00000
F00000
F00000
F00000
F00000
F00000
F00000
FFFFFC
FFFFFC
FFFFFC
FFFFFC
F00000
F00000
F00000
F00000
F00000
F00000
F00000
F00000
F00000
F00000
FFFFFE
FFFFFE
FFFFFE
FFFFFE
ENDCHAR
STARTCHAR 0046
ENCODING 70
SWIDTH 607 0
DWIDTH 27 0
BBX 22 32 4 0
BITMAP
FFFFFC
FFFFFC
FFFFFC
FFFFFC
F00000
F00000
F00000
F00000
F00000
F00000
F00000
F00000
F00000
F00000
FFFFF0
FFFFF0
FFFFF0
FFFFF0
F00000
F00000
F00000
F00000
F00000
F00000
F00000
F00000
F00000
F00000
F00000
F00000
F00000
F00000
ENDCHAR
STARTCHAR 0047
ENCODING 71
SWIDTH 787 0
DWIDTH 35 0
BBX 30 34 2 -1
BITMAP
001FF000
00FFFE00
01FFFF00
07FFFFC0
0FE00FE0
0F8003E0
1F0001F0
3E0000F0
3C0000F8
7C000078
78000000
78000000
F8000000
F0000000
F0000000
F0000000
F000FFFC
F000FFFC
F000FFFC
F000FFFC
F000003C
F800003C
7800003C
7800007C
7C00007C
3C00007C
3E0000FC
1F0001FC
1F8003FC
0FE00FBC
07FFFF3C
03FFFE3C
00FFF81C
001FE000
ENDCHAR
STARTCHAR 0048
ENCODING 72
SWIDTH 720 0
DWIDTH 32 0
BBX 25 32 4 0
BITMAP
F0000F80
F0000F80
F0000F80
F0000F80
F0000F80
F0000F80
F0000F80
F0000F80
F0000F80
F0000F80
F0000F80
F0000F80
F0000F80
F0000F80
FFFFFF80
FFFFFF80
FFFFFF80
FFFFFF80
F0000F80
F0000F80
F0000F80
F0000F80
F0000F80
F0000F80
F0000F80
F0000F80
F0000F80
F0000F80
F0000F80
F0000F80
F0000F80
F0000F80
ENDCHAR
STARTCHAR 0049
ENCODING 73
SWIDTH 270 0
DWIDTH 12 0
BBX 5 32 4 0
BITMAP
F8
F8
F8
F8
F8
F8
F8
F8
F8
F8
F8
F8
F8
F8
F8
F8
F8
F8
F8
F8
F8
F8
F8
F8
F8
F8
F8
F8
F8
F8
F8
F8
ENDCHAR
STARTCHAR 004A
ENCODING 74
SWIDTH 495 0
DWIDTH 22 0
BBX 18 33 1 -1
BITMAP
0003C0
0003C0
0003C0
0003C0
0003C0
0003C0
0003C0
0003C0
0003C0
0003C0
0003C0
0003C0
0003C0
0003C0
0003C0
0003C0
0003C0
0003C0
0003C0
0003C0
0003C0
0003C0
F003C0
F003C0
F003C0
F003C0
F007C0
F80780
7C0F80
7FFF00
3FFF00
1FFC00
07F000
ENDCHAR
STARTCHAR 004B
ENCODING 75
SWIDTH 675 0
DWIDTH 30 0
BBX 25 32 4 0
BITMAP
F0001F80
F0003F00
F0007E00
F000FC00
F001F800
F003F000
F007E000
F00FC000
F01F0000
F03E0000
F07C0000
F0F80000
F1F00000
F3F00000
F7F80000
FFFC0000
FF3C0000
FE3E0000
FC1F0000
F80F0000
F00F8000
F007C000
F003E000
F003E000
F001F000
F000F800
F000F800
F0007C00
F0003E00
F0001E00
F0001F00
F0000F80
ENDCHAR
STARTCHAR 004C
ENCODING 76
SWIDTH 562 0
DWIDTH 25 0
BBX 20 32 4 0
BITMAP
F00000
F00000
F00000
F00000
F00000
F00000
F00000
F00000
F00000
F00000
F00000
F00000
F00000
F00000
F00000
F00000
F00000
F00000
F00000
F00000
F00000
F00000
F00000
F00000
F00000
F00000
F00000
F00000
FFFFF0
FFFFF0
FFFFF0
FFFFF0
ENDCHAR
STARTCHAR 004D
ENCODING 77
SWIDTH 832 0
DWIDTH 37 0
BBX 31 32 3 0
BITMAP
FC00007E
FE00007E
FE0000FE
FE0000FE
FF0000FE
FF0001FE
F70001DE
F78001DE
F78003DE
F380039E
F3C0039E
F3C0079E
F1C0071E
F1E0071E
F1E00F1E
F0E00E1E
F0F01E1E
F0F01E1E
F0701C1E
F0783C1E
F0783C1E
F038381E
F03C781E
F01C781E
F01E701E
F01EF01E
F00EF01E
F00FE01E
F00FE01E
F007E01E
F007C01E
F007C01E
ENDCHAR
STARTCHAR 004E
ENCODING 78
SWIDTH 720 0
DWIDTH 32 0
BBX 26 32 3 0
BITMAP
F80003C0
FC0003C0
FC0003C0
FE0003C0
FF0003C0
FF0003C0
F78003C0
F7C003C0
F3C003C0
F3E003C0
F1F003C0
F0F003C0
F0F803C0
F07C03C0
F03C03C0
F03E03C0
F01F03C0
F00F03C0
F00F83C0
F00783C0
F003C3C0
F003E3C0
F001E3C0
F000F3C0
F000FBC0
F0007BC0
F0007FC0
F0003FC0
F0001FC0
F0001FC0
F0000FC0
F00007C0
ENDCHAR
STARTCHAR 004F
ENCODING 79
SWIDTH 787 0
DWIDTH 35 0
BBX 31 34 2 -1
BITMAP
001FF000
00FFFC00
01FFFF00
07FFFF80
0FE00FE0
1F8003E0
1F0001F0
3E0000F8
3C000078
7C00007C
7800003C
F800003C
F000003E
F000001E
F000001E
F000001E
F000001E
F000001E
F000001E
F000001E
F000001E
F000003E
F800003C
7800003C
7C00007C
7C000078
3E0000F8
1F0001F0
1F8003E0
0FE00FE0
07FFFF80
03FFFF00
00FFFC00
001FF000
ENDCHAR
STARTCHAR 0050
ENCODING 80
SWIDTH 675 0
DWIDTH 30 0
BBX 23 32 4 0
BITMAP
FFFF80
FFFFF0
FFFFF8
FFFFFC
F000FC
F0003E
F0003E
F0001E
F0001E
F0001E
F0001E
F0001E
F0003E
F0007E
F000FC
FFFFF8
FFFFF0
FFFFE0
FFFF00
F00000
F00000
F00000
F00000
F00000
F00000
F00000
F00000
F00000
F00000
F00000
F00000
F00000
ENDCHAR
STARTCHAR 0051
ENCODING 81
SWIDTH 787 0
DWIDTH 35 0
BBX 31 36 2 -3
BITMAP
001FF000
00FFFC00
01FFFF00
07FFFFC0
0FE00FE0
1F8003E0
1F0001F0
3E0000F8
3C000078
7C00007C
7800003C
F800003C
F000003E
F000001E
F000001E
F000001E
F000001E
F000001E
F000001E
F000001E
F000001E
F000003E
F800003C
7800003C
7C00107C
7C003878
3E007EF8
1F001FF0
1F800FE0
0FE00FC0
07FFFFE0
01FFFFF8
00FFFC7C
001FE03C
00000018
00000008
ENDCHAR
STARTCHAR 0052
ENCODING 82
SWIDTH 720 0
DWIDTH 32 0
BBX 26 32 4 0
BITMAP
FFFFE000
FFFFF800
FFFFFE00
FFFFFF00
F0003F00
F0000F80
F0000F80
F0000F80
F0000780
F0000780
F0000780
F0000F00
F0000F00
F0001E00
FFFFFC00
FFFFF800
FFFFF800
FFFFFC00
F0003E00
F0001F00
F0000F00
F0000F00
F0000F00
F0000F00
F0000F00
F0000F00
F0000F00
F0000F00
F0000F80
F0000F80
F00007C0
F00007C0
ENDCHAR
STARTCHAR 0053
ENCODING 83
SWIDTH 675 0
DWIDTH 30 0
BBX 26 34 2 -1
BITMAP
007F8000
03FFF000
0FFFF800
1FF7FC00
1F007E00
3E001F00
3C000F00
78000F00
78000F00
78000700
7C000000
7C000000
3E000000
3FC00000
1FF80000
0FFF8000
03FFF000
007FFC00
0007FE00
0000FF00
00001F80
00000F80
00000780
F00007C0
F00007C0
F8000780
78000780
7C000780
7E000F00
3F003F00
1FFFFE00
0FFFFC00
03FFF000
00FF8000
ENDCHAR
STARTCHAR 0054
ENCODING 84
SWIDTH 607 0
DWIDTH 27 0
BBX 25 32 1 0
BITMAP
FFFFFF80
FFFFFF80
FFFFFF80
FFFFFF80
001E0000
001E0000
001E0000
001E0000
001E0000
001E0000
001E0000
001E0000
001E0000
001E0000
001E0000
001E0000
001E0000
001E0000
001E0000
001E0000
001E0000
001E0000
001E0000
001E0000
001E0000
001E0000
001E0000
001E0000
001E0000
001E0000
001E0000
001E0000
ENDCHAR
STARTCHAR 0055
ENCODING 85
SWIDTH 720 0
DWIDTH 32 0
BBX 25 33 4 -1
BITMAP
F0000780
F0000780
F0000780
F0000780
F0000780
F0000780
F0000780
F0000780
F0000780
F0000780
F0000780
F0000780
F0000780
F0000780
F0000780
F0000780
F0000780
F0000780
F0000780
F0000780
F0000780
F0000780
F0000780
F0000F80
F0000F00
F0000F00
F8001F00
7C003E00
3F007E00
3FFFFC00
0FFFF800
07FFE000
00FF0000
ENDCHAR
STARTCHAR 0056
ENCODING 86
SWIDTH 675 0
DWIDTH 30 0
BBX 26 32 2 0
BITMAP
F00003C0
F00003C0
F80007C0
78000780
78000780
7C000F80
3C000F00
3C000F00
3E001F00
1E001E00
1E001E00
0F003E00
0F003C00
0F803C00
07807C00
07807800
07C07800
03C0F800
03C0F000
03E0F000
01E1E000
01E1E000
00F1E000
00F3C000
00F3C000
007BC000
007F8000
007F8000
003F8000
003F0000
003F0000
001F0000
ENDCHAR
STARTCHAR 0057
ENCODING 87
SWIDTH 945 0
DWIDTH 42 0
BBX 40 32 1 0
BITMAP
F8003C000F
F8007E001F
78007E001F
78007E001E
7C007F001E
7C00FF003E
3C00FF003E
3C00F7003C
3E00E7803C
3E01E7807C
1E01E7807C
1E01C3C078
1F03C3C078
1F03C3C078
0F03C1C0F8
0F0381E0F0
0F0781E0F0
0F8781E0F0
078780F1F0
078F00F1E0
078F00F1E0
03CF0071E0
03CE0079C0
03DE007BC0
03DE007BC0
01FE003FC0
01FC003F80
01FC003F80
01FC001F80
00FC001F80
00F8001F00
00F8001F00
ENDCHAR
STARTCHAR 0058
ENCODING 88
SWIDTH 675 0
DWIDTH 30 0
BBX 27 32 1 0
BITMAP
7C0003E0
3E0007C0
3E0007C0
1F000F80
0F801F00
0F801E00
07C03E00
03E07C00
01E07800
01F0F800
00F9F000
0079E000
007FE000
003FC000
001F8000
001F0000
001F8000
003FC000
007FC000
007BE000
00F9F000
01F0F800
01E0F800
03E07C00
07C03E00
07803E00
0F801F00
1F000F80
3E000F80
3E0007C0
7C0003E0
F80003E0
ENDCHAR
STARTCHAR 0059
ENCODING 89
SWIDTH 675 0
DWIDTH 30 0
BBX 28 32 1 0
BITMAP
F80001F0
7C0001E0
7C0003E0
3E0007C0
3E0007C0
1F000F80
0F800F00
0F801F00
07C03E00
03C03C00
03E07C00
01F07800
00F0F800
00F9F000
007DE000
003FE000
003FC000
001F8000
001F8000
000F0000
000F0000
000F0000
000F0000
000F0000
000F0000
000F0000
000F0000
000F0000
000F0000
000F0000
000F0000
000F0000
ENDCHAR
STARTCHAR 005A
ENCODING 90
SWIDTH 607 0
DWIDTH 27 0
BBX 25 32 1 0
BITMAP
7FFFFF80
7FFFFF80
7FFFFF80
7FFFFF80
00001F00
00003E00
00007E00
00007C00
0000F800
0001F000
0003E000
0003E000
0007C000
000F8000
001F0000
003F0000
003E0000
007C0000
00F80000
01F00000
03F00000
03E00000
07C00000
0F800000
1F000000
3F000000
3E000000
7C000000
FFFFFF80
FFFFFF80
FFFFFF80
FFFFFF80
ENDCHAR
STARTCHAR 005B
ENCODING 91
SWIDTH 270 0
DWIDTH 12 0
BBX 8 41 3 -9
BITMAP
FF
FF
FF
F0
F0
F0
F0
F0
F0
F0
F0
F0
F0
F0
F0
F0
F0
F0
F0
F0
F0
F0
F0
F0
F0
F0
F0
F0
F0
F0
F0
F0
F0
F0
F0
F0
F0
F0
FF
FF
FF
ENDCHAR
STARTCHAR 005C
ENCODING 92
SWIDTH 270 0
DWIDTH 12 0
BBX 12 33 0 -1
BITMAP
C000
E000
E000
6000
7000
7000
3000
3000
3800
1800
1800
1C00
0C00
0C00
0E00
0600
0600
0700
0300
0300
0380
0380
0180
01C0
01C0
00C0
00E0
00E0
0060
0070
0070
0030
0030
ENDCHAR
STARTCHAR 005D
ENCODING 93
SWIDTH 270 0
DWIDTH 12 0
BBX 8 41 1 -9
BITMAP
FF
FF
FF
07
07
07
07
07
07
07
07
07
07
07
07
07
07
07
07
07
07
07
07
07
07
07
07
07
07
07
07
07
07
07
07
07
07
07
FF
FF
FF
ENDCHAR
STARTCHAR 005E
ENCODING 94
SWIDTH 472 0
DWIDTH 21 0
BBX 17 17 2 15
BITMAP
01C000
03C000
03E000
03E000
077000
077000
0E7000
0E3800
0E3800
1C1C00
1C1C00
381C00
380E00
380E00
700700
700700
E00780
ENDCHAR
STARTCHAR 005F
ENCODING 95
SWIDTH 562 0
DWIDTH 25 0
BBX 27 2 -1 -8
BITMAP
FFFFFFE0
FFFFFFE0
ENDCHAR
STARTCHAR 0060
ENCODING 96
SWIDTH 337 0
DWIDTH 15 0
BBX 9 7 1 26
BITMAP
F800
7C00
3E00
1E00
0F00
0780
0380
ENDCHAR
STARTCHAR 0061
ENCODING 97
SWIDTH 562 0
DWIDTH 25 0
BBX 22 25 2 -1
BITMAP
03FC00
0FFF80
1FFFC0
3F9FC0
7C03E0
7801E0
7801E0
7801E0
0001E0
0001E0
001FE0
07FFE0
1FFFE0
3FE1E0
7C01E0
F801E0
F001E0
F001E0
F001E0
F003E0
F807E0
7C3FF0
7FFCFC
3FF8FC
0FE07C
ENDCHAR
STARTCHAR 0062
ENCODING 98
SWIDTH 562 0
DWIDTH 25 0
BBX 21 33 2 -1
BITMAP
F00000
F00000
F00000
F00000
F00000
F00000
F00000
F00000
F0FE00
F3FF80
F7FFC0
FFDFE0
FE03E0
FC01F0
F800F0
F800F8
F80078
F00078
F00078
F00078
F00078
F00078
F00078
F00078
F80078
F800F8
FC00F0
FC01F0
FE03E0
FFDFC0
F7FFC0
F3FF00
00FC00
ENDCHAR
STARTCHAR 0063
ENCODING 99
SWIDTH 495 0
DWIDTH 22 0
BBX 20 25 1 -1
BITMAP
00FC00
07FF00
0FFFC0
1FDFC0
1E03E0
3C01E0
3C00F0
7800F0
7800F0
780000
700000
F00000
F00000
F00000
F00000
780000
7800F0
7800F0
7C00F0
3C01E0
3E03E0
1FDFC0
0FFF80
07FF00
01FC00
ENDCHAR
STARTCHAR 0064
ENCODING 100
SWIDTH 562 0
DWIDTH 25 0
BBX 21 33 1 -1
BITMAP
000078
000078
000078
000078
000078
000078
000078
000078
01F878
07FE78
0FFF78
1FDFF8
3E03F8
3C01F8
7C00F8
7800F8
780078
F00078
F00078
F00078
F00078
F00078
F00078
F00078
780078
7800F8
7C00F8
3C01F8
3E03F8
1FDFB8
0FFF38
07FE38
01F800
ENDCHAR
STARTCHAR 0065
ENCODING 101
SWIDTH 562 0
DWIDTH 25 0
BBX 21 25 2 -1
BITMAP
01FC00
07FF00
0FFF80
1F9FC0
3E03E0
7C01F0
7800F0
7800F0
F000F0
F00078
F00078
FFFFF8
FFFFF8
FFFFF8
F00000
F00000
F00000
F000F0
7800F0
7C01F0
3E03E0
3FDFC0
1FFF80
07FF00
01FC00
ENDCHAR
STARTCHAR 0066
ENCODING 102
SWIDTH 270 0
DWIDTH 12 0
BBX 10 33 1 0
BITMAP
03C0
0FC0
0FC0
1F00
1E00
1E00
1E00
1E00
1E00
1E00
FFC0
FFC0
FFC0
1E00
1E00
1E00
1E00
1E00
1E00
1E00
1E00
1E00
1E00
1E00
1E00
1E00
1E00
1E00
1E00
1E00
1E00
1E00
1E00
ENDCHAR
STARTCHAR 0067
ENCODING 103
SWIDTH 562 0
DWIDTH 25 0
BBX 19 34 2 -10
BITMAP
03F000
0FFCE0
1FFEE0
3FBEE0
3C07E0
7803E0
7803E0
F001E0
F001E0
F001E0
F001E0
E000E0
E000E0
E000E0
F000E0
F001E0
F001E0
F001E0
F803E0
7803E0
7C07E0
3FBEE0
1FFCE0
0FF8E0
03F0E0
0001E0
0001E0
F001E0
7803C0
7803C0
3E0F80
3FFF00
0FFE00
03F800
ENDCHAR
STARTCHAR 0068
ENCODING 104
SWIDTH 562 0
DWIDTH 25 0
BBX 19 32 3 0
BITMAP
F00000
F00000
F00000
F00000
F00000
F00000
F00000
F00000
F0FE00
F3FF00
F7FF80
FF0FC0
FC03C0
F803E0
F801E0
F001E0
F001E0
F001E0
F001E0
F001E0
F001E0
F001E0
F001E0
F001E0
F001E0
F001E0
F001E0
F001E0
F001E0
F001E0
F001E0
F001E0
ENDCHAR
STARTCHAR 0069
ENCODING 105
SWIDTH 225 0
DWIDTH 10 0
BBX 4 32 3 0
BITMAP
F0
F0
F0
F0
F0
00
00
00
00
F0
F0
F0
F0
F0
F0
F0
F0
F0
F0
F0
F0
F0
F0
F0
F0
F0
F0
F0
F0
F0
F0
F0
ENDCHAR
STARTCHAR 006A
ENCODING 106
SWIDTH 225 0
DWIDTH 10 0
BBX 8 42 -1 -10
BITMAP
0F
0F
0F
0F
0F
00
00
00
00
0F
0F
0F
0F
0F
0F
0F
0F
0F
0F
0F
0F
0F
0F
0F
0F
0F
0F
0F
0F
0F
0F
0F
0F
0F
0F
0F
0F
0F
1F
FE
FC
F8
ENDCHAR
STARTCHAR 006B
ENCODING 107
SWIDTH 495 0
DWIDTH 22 0
BBX 19 32 3 0
BITMAP
E00000
E00000
E00000
E00000
E00000
E00000
E00000
E00000
E00000
E00780
E00F00
E01E00
E03C00
E07800
E0F000
E1E000
E3C000
E7C000
EFE000
FFE000
FDF000
F8F800
F07800
E07C00
E03E00
E01E00
E01F00
E00F00
E00F80
E007C0
E003C0
E003E0
ENDCHAR
STARTCHAR 006C
ENCODING 108
SWIDTH 225 0
DWIDTH 10 0
BBX 4 32 3 0
BITMAP
F0
F0
F0
F0
F0
F0
F0
F0
F0
F0
F0
F0
F0
F0
F0
F0
F0
F0
F0
F0
F0
F0
F0
F0
F0
F0
F0
F0
F0
F0
F0
F0
ENDCHAR
STARTCHAR 006D
ENCODING 109
SWIDTH 832 0
DWIDTH 37 0
BBX 31 24 3 0
BITMAP
00FC07E0
F3FE1FF8
F7FF3FFC
FF1FFCFC
FC0FE03E
F807E01E
F807C01E
F003C01E
F003801E
F003801E
F003801E
F003801E
F003801E
F003801E
F003801E
F003801E
F003801E
F003801E
F003801E
F003801E
F003801E
F003801E
F003801E
F003801E
ENDCHAR
STARTCHAR 006E
ENCODING 110
SWIDTH 562 0
DWIDTH 25 0
BBX 19 24 3 0
BITMAP
007E00
F1FF00
F7FF80
F70FC0
FC03C0
FC03E0
F801E0
F001E0
F001E0
F001E0
F001E0
F001E0
F001E0
F001E0
F001E0
F001E0
F001E0
F001E0
F001E0
F001E0
F001E0
F001E0
F001E0
F001E0
ENDCHAR
STARTCHAR 006F
ENCODING 111
SWIDTH 562 0
DWIDTH 25 0
BBX 21 25 2 -1
BITMAP
01FC00
07FF00
1FFF80
3F9FC0
3E03E0
7C01E0
7801F0
F000F0
F000F0
F00070
F00078
F00078
E00078
F00078
F00078
F00070
F000F0
F000F0
7801F0
7C01E0
3E03E0
3F9FC0
1FFF80
0FFF00
01FC00
ENDCHAR
STARTCHAR 0070
ENCODING 112
SWIDTH 562 0
DWIDTH 25 0
BBX 21 34 2 -10
BITMAP
007E00
F1FF80
F3FFC0
F7DFE0
FE03E0
FC01F0
FC00F0
F800F8
F80078
F00078
F00078
F00078
F00078
F00078
F00078
F00078
F80078
F800F8
FC00F0
FC01F0
FE03E0
FFDFE0
F7FFC0
F3FF00
F0FC00
F00000
F00000
F00000
F00000
F00000
F00000
F00000
F00000
F00000
ENDCHAR
STARTCHAR 0071
ENCODING 113
SWIDTH 562 0
DWIDTH 25 0
BBX 21 34 1 -10
BITMAP
01F800
07FE38
0FFF38
1FFFB8
3E03F8
3C01F8
7C00F8
7800F8
780078
F00078
F00078
F00078
F00078
F00078
F00078
F00078
780078
7800F8
7C00F8
7C01F8
3E03F8
1FDFF8
0FFF78
07FE78
01F878
000078
000078
000078
000078
000078
000078
000078
000078
000078
ENDCHAR
STARTCHAR 0072
ENCODING 114
SWIDTH 337 0
DWIDTH 15 0
BBX 11 24 3 0
BITMAP
00E0
E3E0
E7E0
EFE0
EF00
FC00
F800
F800
F000
F000
F000
F000
F000
F000
F000
F000
F000
F000
F000
F000
F000
F000
F000
F000
ENDCHAR
STARTCHAR 0073
ENCODING 115
SWIDTH 495 0
DWIDTH 22 0
BBX 18 25 2 -1
BITMAP
07F800
1FFE00
3FFF00
7F7F80
780F80
F00780
F00780
F00000
F80000
FC0000
7F8000
3FF800
1FFF00
03FF80
003FC0
0007C0
0003C0
F003C0
F003C0
F003C0
F807C0
7FBF80
7FFF00
1FFE00
07F800
ENDCHAR
STARTCHAR 0074
ENCODING 116
SWIDTH 270 0
DWIDTH 12 0
BBX 10 30 1 -1
BITMAP
1C00
1C00
1C00
1C00
1C00
1C00
FFC0
FFC0
FFC0
1C00
1C00
1C00
1C00
1C00
1C00
1C00
1C00
1C00
1C00
1C00
1C00
1C00
1C00
1C00
1C00
1E00
1F00
1FC0
1FC0
07C0
ENDCHAR
STARTCHAR 0075
ENCODING 117
SWIDTH 562 0
DWIDTH 25 0
BBX 18 24 3 -1
BITMAP
F001C0
F001C0
F001C0
F001C0
F001C0
F001C0
F001C0
F001C0
F001C0
F001C0
F001C0
F001C0
F001C0
F001C0
F001C0
F001C0
F003C0
F003C0
F007C0
F80FC0
7E3FC0
7FFDC0
3FF1C0
0FE000
ENDCHAR
STARTCHAR 0076
ENCODING 118
SWIDTH 495 0
DWIDTH 22 0
BBX 20 23 1 0
BITMAP
F000F0
F000F0
F000F0
7801E0
7801E0
7803C0
3C03C0
3C03C0
3C0780
1E0780
1E0780
0E0F00
0F0F00
0F0E00
071E00
079E00
079C00
03BC00
03F800
03F800
01F800
01F000
01F000
ENDCHAR
STARTCHAR 0077
ENCODING 119
SWIDTH 720 0
DWIDTH 32 0
BBX 31 23 0 0
BITMAP
F007C01E
7807C01E
7807E01E
7807E03C
3C0FE03C
3C0FE03C
3C0EF03C
3C0EF078
1E1E7078
1E1E7878
1E1C7870
0E1C78F0
0F3C38F0
0F3C3CE0
0F383CE0
07383DE0
07F81DE0
07F81FC0
03F01FC0
03F01FC0
03F00F80
01F00F80
01E00F80
ENDCHAR
STARTCHAR 0078
ENCODING 120
SWIDTH 495 0
DWIDTH 22 0
BBX 20 23 1 0
BITMAP
7801E0
7801E0
3C03C0
1E0780
1E0780
0F0F00
079E00
079E00
03FC00
01F800
01F000
00F000
01F800
03FC00
03FC00
079E00
0F1F00
0F0F00
1E0780
3C07C0
3C03C0
7801E0
F001F0
ENDCHAR
STARTCHAR 0079
ENCODING 121
SWIDTH 495 0
DWIDTH 22 0
BBX 20 33 1 -10
BITMAP
F000F0
F000F0
7801E0
7801E0
7801E0
3C03C0
3C03C0
3C0380
1E0780
1E0780
1E0F00
0F0F00
0F0F00
0F1E00
079E00
079C00
07BC00
03FC00
03F800
01F800
01F800
01F000
00F000
00F000
01E000
01E000
03C000
03C000
07C000
7F8000
7F0000
7E0000
180000
ENDCHAR
STARTCHAR 007A
ENCODING 122
SWIDTH 495 0
DWIDTH 22 0
BBX 19 23 1 0
BITMAP
7FFFE0
7FFFE0
7FFFE0
0003C0
0007C0
000F80
000F00
001E00
003C00
007800
00F800
01F000
03E000
03C000
078000
0F0000
1F0000
3E0000
7C0000
780000
FFFFE0
FFFFE0
FFFFE0
ENDCHAR
STARTCHAR 007B
ENCODING 123
SWIDTH 337 0
DWIDTH 15 0
BBX 10 42 2 -10
BITMAP
03C0
07C0
0FC0
0E00
1E00
1E00
1E00
1E00
1E00
1E00
1E00
1E00
1E00
1E00
1E00
1E00
1E00
1C00
3C00
F800
F000
F000
F800
3C00
1C00
1E00
1E00
1E00
1E00
1E00
1E00
1E00
1E00
1E00
1E00
1E00
1E00
1E00
0F00
0FC0
07C0
01C0
ENDCHAR
STARTCHAR 007C
ENCODING 124
SWIDTH 270 0
DWIDTH 12 0
BBX 3 42 4 -10
BITMAP
E0
E0
E0
E0
E0
E0
E0
E0
E0
E0
E0
E0
E0
E0
E0
E0
E0
E0
E0
E0
E0
E0
E0
E0
E0
E0
E0
E0
E0
E0
E0
E0
E0
E0
E0
E0
E0
E0
E0
E0
E0
E0
ENDCHAR
STARTCHAR 007D
ENCODING 125
SWIDTH 337 0
DWIDTH 15 0
BBX 11 42 1 -10
BITMAP
F800
FC00
FE00
1E00
0E00
0E00
0E00
0E00
0E00
0E00
0E00
0E00
0E00
0E00
0E00
0E00
0F00
0F00
0780
07E0
01E0
01E0
07C0
0780
0F00
0F00
0E00
0E00
0E00
0E00
0E00
0E00
0E00
0E00
0E00
0E00
0E00
0E00
1E00
FE00
FC00
F000
ENDCHAR
STARTCHAR 007E
ENCODING 126
SWIDTH 585 0
DWIDTH 26 0
BBX 20 7 3 12
BITMAP
1E0000
3F8070
7FE070
71F860
607FE0
E01FC0
000780
ENDCHAR
STARTCHAR 00A0
ENCODING 160
SWIDTH 270 0
DWIDTH 12 0
BBX 0 0 0 0
BITMAP
ENDCHAR
STARTCHAR 00A1
ENCODING 161
SWIDTH 337 0
DWIDTH 15 0
BBX 4 32 5 -9
BITMAP
F0
F0
F0
F0
F0
00
00
60
60
60
60
70
70
70
70
70
F0
F0
F0
F0
F0
F0
F0
F0
F0
F0
F0
F0
F0
F0
F0
F0
ENDCHAR
STARTCHAR 00A2
ENCODING 162
SWIDTH 562 0
DWIDTH 25 0
BBX 21 33 2 -5
BITMAP
003000
003000
003000
003000
00FE00
03FF80
0FFFC0
1FFFE0
1E31E0
3C30F0
7C30F0
7830F0
783070
703000
F03000
F03000
F03000
F03000
F03000
703000
783078
783078
7C30F0
3C30F0
3E31E0
1FF7E0
0FFFC0
07FF80
00FE00
003000
003000
003000
003000
ENDCHAR
STARTCHAR 00A3
ENCODING 163
SWIDTH 562 0
DWIDTH 25 0
BBX 23 33 1 -1
BITMAP
007E00
03FFC0
07FFE0
0FFFF0
1F01F8
3E00F8
3C0078
3C007C
7C003C
7C003C
7C0000
3C0000
3C0000
1E0000
1F0000
0F0000
FFFE00
FFFE00
078000
03C000
03C000
03C000
03C000
038000
078000
070000
0E0000
1C0000
3BFE18
7FFFFC
7FFFFE
383FFC
0003F0
ENDCHAR
STARTCHAR 00A4
ENCODING 164
SWIDTH 562 0
DWIDTH 25 0
BBX 19 18 3 6
BITMAP
200080
73F3C0
FFFFE0
7FFFC0
3FBF80
3C0F80
780780
780380
780380
780380
780380
780780
3C0F80
3FBF00
7FFF80
FFFFC0
73F3C0
200180
ENDCHAR
STARTCHAR 00A5
ENCODING 165
SWIDTH 562 0
DWIDTH 25 0
BBX 23 32 1 0
BITMAP
E0001E
F0001C
78003C
780038
3C0078
1C0070
1E00F0
0E01E0
0F01E0
0783C0
078380
03C780
01C700
01EF00
00EE00
00FE00
3FFFF8
3FFFF8
003800
003800
003800
003800
3FFFF8
3FFFF8
003800
003800
003800
003800
003800
003800
003800
003800
ENDCHAR
STARTCHAR 00A6
ENCODING 166
SWIDTH 270 0
DWIDTH 12 0
BBX 3 42 4 -10
BITMAP
E0
E0
E0
E0
E0
E0
E0
E0
E0
E0
E0
E0
E0
E0
E0
E0
E0
E0
00
00
00
00
00
00
E0
E0
E0
E0
E0
E0
E0
E0
E0
E0
E0
E0
E0
E0
E0
E0
E0
E0
ENDCHAR
STARTCHAR 00A7
ENCODING 167
SWIDTH 562 0
DWIDTH 25 0
BBX 20 41 2 -9
BITMAP
00FC00
03FF00
07FF80
0FDFC0
1F03C0
1E03C0
1E01E0
1E01E0
1E01E0
1F0000
0F8000
0FE000
1FF000
3DFC00
787E00
703F80
F00FC0
E007E0
F003F0
F000F0
F800F0
7C0070
7E0070
3F8070
1FC070
0FE0F0
03F9E0
01FFC0
007F00
003F00
000F80
0007C0
0003C0
7803C0
3803C0
3C03C0
3C07C0
3F0F80
1FFF00
0FFE00
03FC00
ENDCHAR
STARTCHAR 00A8
ENCODING 168
SWIDTH 337 0
DWIDTH 15 0
BBX 12 5 1 27
BITMAP
F8F0
F8F0
F8F0
F8F0
F8F0
ENDCHAR
STARTCHAR 00A9
ENCODING 169
SWIDTH 742 0
DWIDTH 33 0
BBX 34 34 -1 -1
BITMAP
0003F80000
001FFF0000
007FFFC000
01F803F000
03E000F800
0780007C00
0F00001E00
0E01F80E00
1C07FC0F00
3C0FFE0780
381E0F0380
783C070380
70380381C0
70380381C0
70700001C0
70700001C0
E0700001C0
E0700001C0
F0700001C0
707003C1C0
70780381C0
70380381C0
70380783C0
383C070380
381F0F0780
1C0FFE0700
1E07FC0F00
0F01F01E00
0780003C00
03E000F800
01F803F000
00FFFFC000
003FFF0000
0007F80000
ENDCHAR
STARTCHAR 00AA
ENCODING 170
SWIDTH 360 0
DWIDTH 16 0
BBX 13 19 2 14
BITMAP
1F80
7FE0
71E0
E060
E060
0060
07E0
7FE0
F860
E060
C060
C0E0
E1E0
FFF8
7E78
0000
0000
FFF0
FFF0
ENDCHAR
STARTCHAR 00AB
ENCODING 171
SWIDTH 562 0
DWIDTH 25 0
BBX 16 14 4 5
BITMAP
0201
0603
1E07
3E1F
783E
F078
E070
E070
F07C
7C3E
3E1F
0E07
0603
0201
ENDCHAR
STARTCHAR 00AC
ENCODING 172
SWIDTH 585 0
DWIDTH 26 0
BBX 22 13 2 4
BITMAP
FFFFFC
FFFFFC
FFFFFC
00001C
00001C
00001C
00001C
00001C
00001C
00001C
00001C
00001C
00001C
ENDCHAR
STARTCHAR 00AD
ENCODING 173
SWIDTH 337 0
DWIDTH 15 0
BBX 11 3 2 11
BITMAP
FFE0
FFE0
FFE0
ENDCHAR
STARTCHAR 00AE
ENCODING 174
SWIDTH 742 0
DWIDTH 33 0
BBX 34 34 -1 -1
BITMAP
0007FC0000
001FFF0000
007FFFC000
01F803F000
03E000F800
0780003C00
0F00001E00
1E3FFC0E00
1C3FFF0700
3C3FFF8780
3838078380
7838038380
70380381C0
70380381C0
70380381C0
70380781C0
E03FFF01C0
E03FFE01C0
F03FFF01C0
70380781C0
70380381C0
70380381C0
78380383C0
3838038380
3C38038780
1C3803C700
1E3803CF00
0F00001E00
0780003C00
03E000F800
01F803F000
00FFFFC000
003FFF0000
0007F80000
ENDCHAR
STARTCHAR 00AF
ENCODING 175
SWIDTH 337 0
DWIDTH 15 0
BBX 12 3 1 28
BITMAP
FFF0
FFF0
FFF0
ENDCHAR
STARTCHAR 00B0
ENCODING 176
SWIDTH 405 0
DWIDTH 18 0
BBX 14 13 2 18
BITMAP
1FE0
3FF0
7878
7038
E018
E01C
E01C
E018
6038
7038
3FF0
1FE0
0F80
ENDCHAR
STARTCHAR 00B1
ENCODING 177
SWIDTH 585 0
DWIDTH 26 0
BBX 22 28 2 -1
BITMAP
007800
007800
007800
007800
007800
007800
007800
007800
007800
FFFFFC
FFFFFC
FFFFFC
007800
007800
007800
007800
007800
007800
007800
007800
007800
000000
000000
000000
000000
FFFFFC
FFFFFC
FFFFFC
ENDCHAR
STARTCHAR 00B2
ENCODING 178
SWIDTH 337 0
DWIDTH 15 0
BBX 14 19 0 13
BITMAP
07C0
1FF0
3EF8
383C
701C
701C
701C
001C
0038
00F0
03E0
07C0
1F00
3C00
3800
7000
7FFC
7FFC
FFFC
ENDCHAR
STARTCHAR 00B3
ENCODING 179
SWIDTH 337 0
DWIDTH 15 0
BBX 14 20 0 12
BITMAP
0FC0
1FF0
3CF8
7038
7038
7038
0038
0038
03F0
03E0
03F8
0038
001C
001C
E01C
601C
7038
7CF8
3FF0
0FC0
ENDCHAR
STARTCHAR 00B4
ENCODING 180
SWIDTH 337 0
DWIDTH 15 0
BBX 9 7 4 26
BITMAP
0F80
1F00
1E00
3C00
7800
7000
E000
ENDCHAR
STARTCHAR 00B5
ENCODING 181
SWIDTH 562 0
DWIDTH 25 0
BBX 21 33 3 -10
BITMAP
F001C0
F001C0
F001C0
F001C0
F001C0
F001C0
F001C0
F001C0
F001C0
F001C0
F001C0
F001C0
F001C0
F001C0
F001C0
F003C0
F003C0
F003C0
F007C0
F80FC0
FE3FE0
FFFDF8
FFF9F8
F7E0F8
F00000
F00000
F00000
F00000
F00000
F00000
F00000
F00000
F00000
ENDCHAR
STARTCHAR 00B6
ENCODING 182
SWIDTH 540 0
DWIDTH 24 0
BBX 21 40 2 -8
BITMAP
01FFF8
07FFF8
0FFFF8
1FF0E0
3FF0E0
7FF0E0
7FF0E0
7FF0E0
FFF0E0
FFF0E0
FFF0E0
FFF0E0
FFF0E0
FFF0E0
7FF0E0
7FF0E0
3FF0E0
3FF0E0
1FF0E0
07F0E0
01F0E0
0070E0
0070E0
0070E0
0070E0
0070E0
0070E0
0070E0
0070E0
0070E0
0070E0
0070E0
0070E0
0070E0
0070E0
0070E0
0070E0
0070E0
0070E0
0070E0
ENDCHAR
STARTCHAR 00B7
ENCODING 183
SWIDTH 270 0
DWIDTH 12 0
BBX 5 5 5 10
BITMAP
F8
F8
F8
F8
F8
ENDCHAR
STARTCHAR 00B8
ENCODING 184
SWIDTH 337 0
DWIDTH 15 0
BBX 11 10 2 -10
BITMAP
0600
0400
0F00
0FC0
01E0
01E0
01E0
E1C0
FFC0
1F00
ENDCHAR
STARTCHAR 00B9
ENCODING 185
SWIDTH 337 0
DWIDTH 15 0
BBX 7 19 2 13
BITMAP
02
06
06
0E
FE
FE
06
06
06
06
06
06
06
06
06
06
06
06
06
ENDCHAR
STARTCHAR 00BA
ENCODING 186
SWIDTH 360 0
DWIDTH 16 0
BBX 12 19 2 14
BITMAP
0F80
3FC0
79E0
7070
E070
E030
C030
C030
C030
E030
E070
E070
70E0
3FE0
1F80
0000
0000
FFF0
FFF0
ENDCHAR
STARTCHAR 00BB
ENCODING 187
SWIDTH 562 0
DWIDTH 25 0
BBX 16 14 4 5
BITMAP
C040
E070
F078
783C
3E1F
1E0F
0607
0E07
1E0F
3C1E
F87C
F078
E060
8040
ENDCHAR
STARTCHAR 00BC
ENCODING 188
SWIDTH 832 0
DWIDTH 37 0
BBX 35 33 1 -1
BITMAP
0600003000
0600007000
0600006000
1E0000E000
FE0001C000
FE00018000
0600038000
0600030000
0600070000
06000E0000
06000C0000
06001C0000
0600180000
0600300300
0600700700
0600600F00
0600E01F00
0601C01F00
0601803F00
0003807700
000300E700
000700C700
000E01C700
000C038700
001C070700
001807FFE0
003007FFE0
0070000700
0060000700
00E0000700
01C0000700
0180000700
0380000000
ENDCHAR
STARTCHAR 00BD
ENCODING 189
SWIDTH 832 0
DWIDTH 37 0
BBX 35 33 1 -1
BITMAP
0600006000
060000E000
060000C000
1E0001C000
FE00038000
FE00030000
0E00070000
0E00060000
0E000C0000
0E001C0000
0E00180000
0E00380000
0E00700000
0E00607E00
0E00E0FF80
0E00C1F7C0
0E01C3C1E0
0E038380E0
0E030380E0
00070380E0
00060000E0
000C0001C0
001C000780
0018001F00
0038003E00
007000F800
006001E000
00E003C000
00C0038000
01C0038000
038007FFE0
030007FFE0
0700000000
ENDCHAR
STARTCHAR 00BE
ENCODING 190
SWIDTH 832 0
DWIDTH 37 0
BBX 35 33 1 -1
BITMAP
0FC0001C00
3FF0003800
3CF0003000
7038007000
6038006000
603800C000
003801C000
0038018000
07F0038000
07E0070000
07F8060000
00380E0000
001C0C0000
001C1C0300
E01C380700
E01C300F00
7038701F00
7CF8601F00
3FF0E03F00
0FC1C07700
000180E700
000381C700
000301C700
0007038700
000E070700
000C07FFE0
001C07FFE0
0018000700
0030000700
0070000700
0060000700
00E0000700
01C0000000
ENDCHAR
STARTCHAR 00BF
ENCODING 191
SWIDTH 607 0
DWIDTH 27 0
BBX 19 32 4 -9
BITMAP
00F000
00F000
00F000
00F000
00F000
000000
000000
000000
000000
00F000
00F000
00F000
00F000
01F000
01E000
03C000
0FC000
1F0000
3E0000
3C0000
780000
780000
F000E0
F000E0
F000E0
F001E0
7801E0
7C03E0
7E07C0
3FFF80
1FFF00
07FE00
ENDCHAR
STARTCHAR 00C0
ENCODING 192
SWIDTH 675 0
DWIDTH 30 0
BBX 28 41 1 0
BITMAP
00F80000
007C0000
003C0000
001E0000
000F0000
00070000
00000000
00000000
00000000
001F8000
001F8000
003FC000
003FC000
003FC000
007FE000
0079E000
0079E000
00F1F000
00F0F000
00F0F000
01E0F800
01E07800
03E07800
03C07C00
03C03C00
07C03E00
07803E00
07801E00
0FFFFF00
0FFFFF00
0FFFFF00
1F000F80
1E000F80
3E000780
3C0007C0
3C0007C0
7C0003C0
780003E0
780001E0
F80001E0
F00001F0
ENDCHAR
STARTCHAR 00C1
ENCODING 193
SWIDTH 675 0
DWIDTH 30 0
BBX 28 41 1 0
BITMAP
0001F000
0003E000
0003C000
00078000
000F0000
000E0000
00000000
00000000
00000000
001F8000
001F8000
003FC000
003FC000
003FC000
007FE000
0079E000
0079E000
00F1F000
00F0F000
00F0F000
01E0F800
01E07800
03E07800
03C07C00
03C03C00
07C03E00
07803E00
07801E00
0FFFFF00
0FFFFF00
0FFFFF00
1F000F80
1E000F80
3E000780
3C0007C0
3C0007C0
7C0003C0
780003E0
780001E0
F80001E0
F00001F0
ENDCHAR
STARTCHAR 00C2
ENCODING 194
SWIDTH 675 0
DWIDTH 30 0
BBX 28 41 1 0
BITMAP
001F8000
001F8000
003BC000
0079C000
0070E000
00E07000
00000000
00000000
00000000
001F8000
001F8000
003FC000
003FC000
003FC000
007FE000
0079E000
0079E000
00F1F000
00F0F000
00F0F000
01E0F800
01E07800
03E07800
03C07C00
03C03C00
07C03E00
07803E00
07801E00
0FFFFF00
0FFFFF00
0FFFFF00
1F000F80
1E000F80
3E000780
3C0007C0
3C0007C0
7C0003C0
780003E0
780001E0
F80001E0
F00001F0
ENDCHAR
STARTCHAR 00C3
ENCODING 195
SWIDTH 675 0
DWIDTH 30 0
BBX 28 40 1 0
BITMAP
007E3800
00FFF800
00FFF000
01C7E000
01C00000
00000000
00000000
00000000
001F8000
001F8000
003FC000
003FC000
003FC000
007FE000
0079E000
0079E000
00F1F000
00F0F000
00F0F000
01E0F800
01E07800
03E07800
03C07C00
03C03C00
07C03E00
07803E00
07801E00
0FFFFF00
0FFFFF00
0FFFFF00
1F000F80
1E000F80
3E000780
3C0007C0
3C0007C0
7C0003C0
780003E0
780001E0
F80001E0
F00001F0
ENDCHAR
STARTCHAR 00C4
ENCODING 196
SWIDTH 675 0
DWIDTH 30 0
BBX 28 40 1 0
BITMAP
00F9F000
00F9F000
00F9F000
00F9F000
00F9F000
00000000
00000000
00000000
001F8000
001F8000
003FC000
003FC000
003FC000
007FE000
0079E000
0079E000
00F1F000
00F0F000
00F0F000
01E0F800
01E07800
03E07800
03C07C00
03C03C00
07C03E00
07803E00
07801E00
0FFFFF00
0FFFFF00
0FFFFF00
1F000F80
1E000F80
3E000780
3C0007C0
3C0007C0
7C0003C0
780003E0
780001E0
F80001E0
F00001F0
ENDCHAR
STARTCHAR 00C5
ENCODING 197
SWIDTH 675 0
DWIDTH 30 0
BBX 28 42 1 0
BITMAP
000F0000
001F8000
0039C000
0030C000
0030C000
0039C000
001F8000
000F0000
00000000
00000000
001F8000
001F8000
003FC000
003FC000
003FC000
007FE000
0079E000
0079E000
00F1F000
00F0F000
00F0F000
01E0F800
01E07800
03E07800
03C07C00
03C03C00
07C03E00
07803E00
07801E00
0FFFFF00
0FFFFF00
0FFFFF00
1F000F80
1E000F80
3E000780
3C0007C0
3C0007C0
7C0003C0
780003E0
780001E0
F80001E0
F00001F0
ENDCHAR
STARTCHAR 00C6
ENCODING 198
SWIDTH 990 0
DWIDTH 44 0
BBX 41 32 1 0
BITMAP
0007FFFFFF00
000FFFFFFF00
000FFFFFFF00
001FFFFFFF00
001E0F000000
003E0F000000
003C0F000000
003C0F000000
00780F000000
00780F000000
00F80F000000
00F00F000000
00F00F000000
01E00F000000
01E00FFFFF00
03E00FFFFF00
03C00FFFFF00
03C00FFFFF00
07800F000000
07FFFF000000
0FFFFF000000
0FFFFF000000
1FFFFF000000
1E000F000000
1E000F000000
3E000F000000
3C000F000000
7C000F000000
78000FFFFF80
78000FFFFF80
F8000FFFFF80
F0000FFFFF80
ENDCHAR
STARTCHAR 00C7
ENCODING 199
SWIDTH 720 0
DWIDTH 32 0
BBX 28 43 2 -10
BITMAP
001FE000
00FFFC00
03FFFE00
07FFFF00
0FC01F80
0F8007C0
1F0003C0
3E0003E0
3C0001E0
7C0001E0
780001E0
78000000
78000000
F8000000
F0000000
F0000000
F0000000
F0000000
F0000000
F0000000
F8000000
780000F0
780000F0
780001F0
7C0001E0
3C0001E0
3E0003E0
1F0003C0
1F8007C0
0FE01F80
07FFFF00
03FFFE00
00FFFC00
003FE000
00060000
000F8000
000FC000
0001E000
0000E000
0000E000
00E1E000
00FFC000
001F0000
ENDCHAR
STARTCHAR 00C8
ENCODING 200
SWIDTH 675 0
DWIDTH 30 0
BBX 23 41 4 0
BITMAP
03E000
01E000
00F000
007800
003800
001C00
000000
000000
000000
FFFFFC
FFFFFC
FFFFFC
FFFFFC
F00000
F00000
F00000
F00000
F00000
F00000
F00000
F00000
F00000
F00000
FFFFFC
FFFFFC
FFFFFC
FFFFFC
F00000
F00000
F00000
F00000
F00000
F00000
F00000
F00000
F00000
F00000
FFFFFE
FFFFFE
FFFFFE
FFFFFE
ENDCHAR
STARTCHAR 00C9
ENCODING 201
SWIDTH 675 0
DWIDTH 30 0
BBX 23 41 4 0
BITMAP
000F80
001E00
003C00
003800
007000
00E000
000000
000000
000000
FFFFFC
FFFFFC
FFFFFC
FFFFFC
F00000
F00000
F00000
F00000
F00000
F00000
F00000
F00000
F00000
F00000
FFFFFC
FFFFFC
FFFFFC
FFFFFC
F00000
F00000
F00000
F00000
F00000
F00000
F00000
F00000
F00000
F00000
FFFFFE
FFFFFE
FFFFFE
FFFFFE
ENDCHAR
STARTCHAR 00CA
ENCODING 202
SWIDTH 675 0
DWIDTH 30 0
BBX 23 41 4 0
BITMAP
007C00
00FE00
01EE00
01C700
038780
070380
000000
000000
000000
FFFFFC
FFFFFC
FFFFFC
FFFFFC
F00000
F00000
F00000
F00000
F00000
F00000
F00000
F00000
F00000
F00000
FFFFFC
FFFFFC
FFFFFC
FFFFFC
F00000
F00000
F00000
F00000
F00000
F00000
F00000
F00000
F00000
F00000
FFFFFE
FFFFFE
FFFFFE
FFFFFE
ENDCHAR
STARTCHAR 00CB
ENCODING 203
SWIDTH 675 0
DWIDTH 30 0
BBX 23 40 4 0
BITMAP
07C780
07C780
07C780
07C780
07C780
000000
000000
000000
FFFFFC
FFFFFC
FFFFFC
FFFFFC
F00000
F00000
F00000
F00000
F00000
F00000
F00000
F00000
F00000
F00000
FFFFFC
FFFFFC
FFFFFC
FFFFFC
F00000
F00000
F00000
F00000
F00000
F00000
F00000
F00000
F00000
F00000
FFFFFE
FFFFFE
FFFFFE
FFFFFE
ENDCHAR
STARTCHAR 00CC
ENCODING 204
SWIDTH 270 0
DWIDTH 12 0
BBX 8 41 1 0
BITMAP
F8
78
3C
1E
0E
07
00
00
00
1F
1F
1F
1F
1F
1F
1F
1F
1F
1F
1F
1F
1F
1F
1F
1F
1F
1F
1F
1F
1F
1F
1F
1F
1F
1F
1F
1F
1F
1F
1F
1F
ENDCHAR
STARTCHAR 00CD
ENCODING 205
SWIDTH 270 0
DWIDTH 12 0
BBX 8 41 4 0
BITMAP
1F
3E
3C
78
F0
E0
00
00
00
F8
F8
F8
F8
F8
F8
F8
F8
F8
F8
F8
F8
F8
F8
F8
F8
F8
F8
F8
F8
F8
F8
F8
F8
F8
F8
F8
F8
F8
F8
F8
F8
ENDCHAR
STARTCHAR 00CE
ENCODING 206
SWIDTH 270 0
DWIDTH 12 0
BBX 12 41 0 0
BITMAP
0F80
1FC0
3DC0
38E0
70F0
E070
0000
0000
0000
0F80
0F80
0F80
0F80
0F80
0F80
0F80
0F80
0F80
0F80
0F80
0F80
0F80
0F80
0F80
0F80
0F80
0F80
0F80
0F80
0F80
0F80
0F80
0F80
0F80
0F80
0F80
0F80
0F80
0F80
0F80
0F80
ENDCHAR
STARTCHAR 00CF
ENCODING 207
SWIDTH 270 0
DWIDTH 12 0
BBX 12 40 0 0
BITMAP
F8F0
F8F0
F8F0
F8F0
F8F0
0000
0000
0000
0F80
0F80
0F80
0F80
0F80
0F80
0F80
0F80
0F80
0F80
0F80
0F80
0F80
0F80
0F80
0F80
0F80
0F80
0F80
0F80
0F80
0F80
0F80
0F80
0F80
0F80
0F80
0F80
0F80
0F80
0F80
0F80
ENDCHAR
STARTCHAR 00D0
ENCODING 208
SWIDTH 720 0
DWIDTH 32 0
BBX 29 32 1 0
BITMAP
1FFFE000
1FFFFC00
1FFFFE00
1FFFFF00
1E001F80
1E0007C0
1E0003E0
1E0001E0
1E0001F0
1E0000F0
1E0000F0
1E0000F0
1E0000F0
1E0000F8
FFFE00F8
FFFE00F8
FFFE00F8
1E0000F8
1E0000F8
1E0000F0
1E0000F0
1E0000F0
1E0000F0
1E0001E0
1E0001E0
1E0003E0
1E0007C0
1E001F80
1FFFFF00
1FFFFE00
1FFFFC00
1FFFE000
ENDCHAR
STARTCHAR 00D1
ENCODING 209
SWIDTH 720 0
DWIDTH 32 0
BBX 26 40 3 0
BITMAP
007C7000
00FFF000
01FFF000
018FE000
03800000
00000000
00000000
00000000
F80003C0
FC0003C0
FC0003C0
FE0003C0
FF0003C0
FF0003C0
F78003C0
F7C003C0
F3C003C0
F3E003C0
F1F003C0
F0F003C0
F0F803C0
F07C03C0
F03C03C0
F03E03C0
F01F03C0
F00F03C0
F00F83C0
F00783C0
F003C3C0
F003E3C0
F001E3C0
F001F3C0
F000FBC0
F0007BC0
F0007FC0
F0003FC0
F0001FC0
F0001FC0
F0000FC0
F00007C0
ENDCHAR
STARTCHAR 00D2
ENCODING 210
SWIDTH 787 0
DWIDTH 35 0
BBX 31 43 2 -1
BITMAP
007C0000
003E0000
001E0000
000F0000
00078000
00038000
0001C000
00000000
00000000
001FF000
00FFFC00
01FFFF00
07FFFF80
0FE00FE0
1F8003E0
1F0001F0
3E0000F8
3C000078
7C00007C
7800003C
F800003C
F000003E
F000001E
F000001E
F000001E
F000001E
F000001E
F000001E
F000001E
F000001E
F000003E
F800003C
7800003C
7C00007C
7C000078
3E0000F8
1F0001F0
1F8003E0
0FE00FE0
07FFFF80
03FFFF00
00FFFC00
001FF000
ENDCHAR
STARTCHAR 00D3
ENCODING 211
SWIDTH 787 0
DWIDTH 35 0
BBX 31 43 2 -1
BITMAP
0000F800
0000F000
0001E000
0003C000
00038000
00070000
000E0000
00000000
00000000
001FF000
00FFFC00
01FFFF00
07FFFF80
0FE00FE0
1F8003E0
1F0001F0
3E0000F8
3C000078
7C00007C
7800003C
F800003C
F000003E
F000001E
F000001E
F000001E
F000001E
F000001E
F000001E
F000001E
F000001E
F000003E
F800003C
7800003C
7C00007C
7C000078
3E0000F8
1F0001F0
1F8003E0
0FE00FE0
07FFFF80
03FFFF00
00FFFC00
001FF000
ENDCHAR
STARTCHAR 00D4
ENCODING 212
SWIDTH 787 0
DWIDTH 35 0
BBX 31 43 2 -1
BITMAP
0007C000
000FC000
000FE000
001EF000
003C7000
00383800
00701C00
00000000
00000000
001FF000
00FFFC00
01FFFF00
07FFFF80
0FE00FE0
1F8003E0
1F0001F0
3E0000F8
3C000078
7C00007C
7800003C
F800003C
F000003E
F000001E
F000001E
F000001E
F000001E
F000001E
F000001E
F000001E
F000001E
F000003E
F800003C
7800003C
7C00007C
7C000078
3E0000F8
1F0001F0
1F8003E0
0FE00FE0
07FFFF80
03FFFF00
00FFFC00
001FF000
ENDCHAR
STARTCHAR 00D5
ENCODING 213
SWIDTH 787 0
DWIDTH 35 0
BBX 31 42 2 -1
BITMAP
001C0C00
003F1C00
007FFC00
0073F800
00607000
00000000
00000000
00000000
001FF000
00FFFC00
01FFFF00
07FFFF80
0FE00FE0
1F8003E0
1F0001F0
3E0000F8
3C000078
7C00007C
7800003C
F800003C
F000003E
F000001E
F000001E
F000001E
F000001E
F000001E
F000001E
F000001E
F000001E
F000003E
F800003C
7800003C
7C00007C
7C000078
3E0000F8
1F0001F0
1F8003E0
0FE00FE0
07FFFF80
03FFFF00
00FFFC00
001FF000
ENDCHAR
STARTCHAR 00D6
ENCODING 214
SWIDTH 787 0
DWIDTH 35 0
BBX 31 42 2 -1
BITMAP
007C7800
007C7800
007C7800
007C7800
007C7800
00000000
00000000
00000000
001FF000
00FFFC00
01FFFF00
07FFFF80
0FE00FE0
1F8003E0
1F0001F0
3E0000F8
3C000078
7C00007C
7800003C
F800003C
F000003E
F000001E
F000001E
F000001E
F000001E
F000001E
F000001E
F000001E
F000001E
F000003E
F800003C
7800003C
7C00007C
7C000078
3E0000F8
1F0001F0
1F8003E0
0FE00FE0
07FFFF80
03FFFF00
00FFFC00
001FF000
ENDCHAR
STARTCHAR 00D7
ENCODING 215
SWIDTH 585 0
DWIDTH 26 0
BBX 17 17 4 2
BITMAP
200100
700380
780780
7C0F00
3E1E00
1F3C00
0FF800
07F000
03E000
03F000
07F800
0F7C00
1E3E00
3C1F00
780F80
F00780
600300
ENDCHAR
STARTCHAR 00D8
ENCODING 216
SWIDTH 787 0
DWIDTH 35 0
BBX 31 34 2 0
BITMAP
001FF00E
00FFFC1E
01FFFF3C
07FFFFB8
0FE00FF0
1F8007E0
1F0001F0
3E0003F8
7C0007F8
78000E7C
78001C7C
F800383C
F000783C
F000F03E
F001E01E
F001C01E
F003801E
F007001E
F00E001E
F01C001E
F038003E
F070003C
F8E0003C
79C0003C
7B80007C
7F800078
3F0000F8
3F0001F0
1F8003E0
3FE00FC0
77FFFF80
E3FFFF00
C0FFFC00
001FE000
ENDCHAR
STARTCHAR 00D9
ENCODING 217
SWIDTH 720 0
DWIDTH 32 0
BBX 25 42 4 -1
BITMAP
03E00000
00F00000
00780000
00380000
001C0000
000E0000
00000000
00000000
00000000
F0000780
F0000780
F0000780
F0000780
F0000780
F0000780
F0000780
F0000780
F0000780
F0000780
F0000780
F0000780
F0000780
F0000780
F0000780
F0000780
F0000780
F0000780
F0000780
F0000780
F0000780
F0000780
F0000780
F0000F80
F0000F00
F8000F00
78001F00
7C003E00
3F007E00
3FFFFC00
0FFFF800
07FFE000
00FF0000
ENDCHAR
STARTCHAR 00DA
ENCODING 218
SWIDTH 720 0
DWIDTH 32 0
BBX 25 42 4 -1
BITMAP
0007C000
000F0000
001E0000
001C0000
00380000
00700000
00000000
00000000
00000000
F0000F80
F0000F80
F0000F80
F0000F80
F0000F80
F0000F80
F0000F80
F0000F80
F0000F80
F0000F80
F0000F80
F0000F80
F0000F80
F0000F80
F0000F80
F0000F80
F0000F80
F0000F80
F0000F80
F0000F80
F0000F80
F0000F80
F0000780
F0000F80
F0000F00
F8000F00
78001F00
7C003E00
3F007E00
3FFFFC00
0FFFF800
07FFE000
00FF0000
ENDCHAR
STARTCHAR 00DB
ENCODING 219
SWIDTH 720 0
DWIDTH 32 0
BBX 25 42 4 -1
BITMAP
003E0000
007F0000
00F70000
00E78000
01C38000
0381C000
00000000
00000000
00000000
F0000780
F0000780
F0000780
F0000780
F0000780
F0000780
F0000780
F0000780
F0000780
F0000780
F0000780
F0000780
F0000780
F0000780
F0000780
F0000780
F0000780
F0000780
F0000780
F0000780
F0000780
F0000780
F0000780
F0000F80
F0000F00
F8000F00
78001F00
7C003E00
3F007E00
3FFFFC00
0FFFF800
07FFE000
00FF0000
ENDCHAR
STARTCHAR 00DC
ENCODING 220
SWIDTH 720 0
DWIDTH 32 0
BBX 25 41 4 -1
BITMAP
03E7C000
03E7C000
03E7C000
03E7C000
03E7C000
00000000
00000000
00000000
F0000780
F0000780
F0000780
F0000780
F0000780
F0000780
F0000780
F0000780
F0000780
F0000780
F0000780
F0000780
F0000780
F0000780
F0000780
F0000780
F0000780
F0000780
F0000780
F0000780
F0000780
F0000780
F0000780
F0000F80
F0000F00
F8000F00
78001F00
7C003E00
3F007E00
3FFFFC00
0FFFF800
07FFE000
00FF0000
ENDCHAR
STARTCHAR 00DD
ENCODING 221
SWIDTH 675 0
DWIDTH 30 0
BBX 28 41 1 0
BITMAP
0001F000
0003C000
00078000
00070000
000E0000
001C0000
00000000
00000000
00000000
F80001F0
FC0001E0
7C0003E0
3E0007C0
3E000780
1F000F80
0F800F00
0F801F00
07C03E00
03C03C00
03E07C00
01F07800
00F0F000
00F9F000
0079E000
007FE000
003FC000
001F8000
001F8000
000F0000
000F0000
000F0000
000F0000
000F0000
000F0000
000F0000
000F0000
000F0000
000F0000
000F0000
000F0000
000F0000
ENDCHAR
STARTCHAR 00DE
ENCODING 222
SWIDTH 675 0
DWIDTH 30 0
BBX 23 32 4 0
BITMAP
F00000
F00000
F00000
F00000
F00000
FFFE00
FFFFE0
FFFFF0
FFFFF8
F000FC
F0007E
F0003E
F0001E
F0001E
F0001E
F0001E
F0001E
F0003E
F0007E
F000FC
FFFFF8
FFFFF0
FFFFE0
FFFF00
F00000
F00000
F00000
F00000
F00000
F00000
F00000
F00000
ENDCHAR
STARTCHAR 00DF
ENCODING 223
SWIDTH 607 0
DWIDTH 27 0
BBX 22 33 3 -1
BITMAP
01FC00
0FFF00
1FFFC0
3FFFE0
7C03E0
7801F0
F000F0
F000F0
F000F0
F000F0
F000F0
F001E0
F007C0
F07F80
F07E00
F07F80
F07FE0
F001F0
F000F8
F00078
F0007C
F0003C
F0003C
F0003C
F0003C
F00078
F00078
F000F8
F003F0
F0FFE0
F0FFC0
F0FF80
00FC00
ENDCHAR
STARTCHAR 00E0
ENCODING 224
SWIDTH 562 0
DWIDTH 25 0
BBX 22 34 2 -1
BITMAP
078000
03C000
01E000
00E000
007000
003800
001800
000000
000000
03FC00
0FFF80
1FFFC0
3F9FC0
7C03E0
7801E0
7801E0
7801E0
0001E0
0001E0
001FE0
07FFE0
1FFFE0
3FE1E0
7C01E0
F801E0
F001E0
F001E0
F001E0
F003E0
F807E0
7C3FF0
7FFCFC
3FF8FC
0FE07C
ENDCHAR
STARTCHAR 00E1
ENCODING 225
SWIDTH 562 0
DWIDTH 25 0
BBX 22 34 2 -1
BITMAP
001F00
001E00
003C00
007800
007000
00E000
01C000
000000
000000
03FC00
0FFF80
1FFFC0
3F9FC0
7C03E0
7801E0
7801E0
7801E0
0001E0
0001E0
001FE0
07FFE0
1FFFE0
3FE1E0
7C01E0
F801E0
F001E0
F001E0
F001E0
F003E0
F807E0
7C3FF0
7FFCFC
3FF8FC
0FE07C
ENDCHAR
STARTCHAR 00E2
ENCODING 226
SWIDTH 562 0
DWIDTH 25 0
BBX 22 34 2 -1
BITMAP
00F800
01F800
01FC00
039E00
078E00
070700
0E0300
000000
000000
03FC00
0FFF80
1FFFC0
3F9FC0
7C03E0
7801E0
7801E0
7801E0
0001E0
0001E0
001FE0
07FFE0
1FFFE0
3FE1E0
7C01E0
F801E0
F001E0
F001E0
F001E0
F003E0
F807E0
7C3FF0
7FFCFC
3FF8FC
0FE07C
ENDCHAR
STARTCHAR 00E3
ENCODING 227
SWIDTH 562 0
DWIDTH 25 0
BBX 22 34 2 -1
BITMAP
078180
0FE380
0FFF00
1C7F00
1C1E00
000000
000000
000000
000000
03FC00
0FFF80
1FFFC0
3F9FC0
7C03E0
7801E0
7801E0
7801E0
0001E0
0001E0
001FE0
07FFE0
1FFFE0
3FE1E0
7C01E0
F801E0
F001E0
F001E0
F001E0
F003E0
F807E0
7C3FF0
7FFCFC
3FF8FC
0FE07C
ENDCHAR
STARTCHAR 00E4
ENCODING 228
SWIDTH 562 0
DWIDTH 25 0
BBX 22 33 2 -1
BITMAP
0F9F00
0F9F00
0F9F00
0F9F00
0F9F00
000000
000000
000000
03FC00
0FFF80
1FFFC0
3F9FC0
7C03E0
7801E0
7801E0
7801E0
0001E0
0001E0
001FE0
07FFE0
1FFFE0
3FE1E0
7C01E0
F801E0
F001E0
F001E0
F001E0
F003E0
F807E0
7C3FF0
7FFCFC
3FF8FC
0FE07C
ENDCHAR
STARTCHAR 00E5
ENCODING 229
SWIDTH 562 0
DWIDTH 25 0
BBX 22 35 2 -1
BITMAP
00F000
01F800
019C00
030C00
030C00
018C00
01F800
00F000
000000
000000
03FC00
0FFF80
1FFFC0
3F9FC0
7C03E0
7801E0
7801E0
7801E0
0001E0
0001E0
001FE0
07FFE0
1FFFE0
3FE1E0
7C01E0
F801E0
F001E0
F001E0
F001E0
F003E0
F807E0
7C3FF0
7FFCFC
3FF8FC
0FE07C
ENDCHAR
STARTCHAR 00E6
ENCODING 230
SWIDTH 900 0
DWIDTH 40 0
BBX 36 25 2 -1
BITMAP
03FC03F800
0FFF0FFE00
3FFF9FFF00
3FBFBF3F80
7C03FC07C0
7801F803C0
7801F003E0
7001E001E0
0001E001E0
0001E001E0
0007E000E0
01FFFFFFE0
1FFFFFFFF0
3FF9FFFFF0
7E01C00000
F801E00000
F001E00000
E001E001E0
E003F001E0
F003F003C0
F00F7807C0
FC3E7F3F80
7FFC3FFF00
3FF00FFE00
0FC003F800
ENDCHAR
STARTCHAR 00E7
ENCODING 231
SWIDTH 495 0
DWIDTH 22 0
BBX 20 34 1 -10
BITMAP
00FC00
07FF00
0FFFC0
1FDFC0
1E03E0
3C01E0
3C00F0
7800F0
7800F0
780000
700000
F00000
F00000
F00000
F00000
780000
7800F0
7800F0
7C00F0
3C01E0
3E03E0
1FDFC0
0FFF80
07FF00
01FC00
006000
00F800
00FC00
001E00
000E00
001E00
0E1C00
0FFC00
01F000
ENDCHAR
STARTCHAR 00E8
ENCODING 232
SWIDTH 562 0
DWIDTH 25 0
BBX 21 34 2 -1
BITMAP
078000
03C000
01E000
00E000
007000
003800
001800
000000
000000
01FC00
07FF00
0FFF80
1F9FC0
3E03E0
7C01F0
7800F0
7800F0
F000F0
F00078
F00078
FFFFF8
FFFFF8
FFFFF8
F00000
F00000
F00000
F000F0
7800F0
7C01F0
3E03E0
3FDFC0
1FFF80
07FF00
01FC00
ENDCHAR
STARTCHAR 00E9
ENCODING 233
SWIDTH 562 0
DWIDTH 25 0
BBX 21 34 2 -1
BITMAP
001F00
001E00
003C00
007800
007000
00E000
01C000
000000
000000
01FC00
07FF00
0FFF80
1F9FC0
3E03E0
7C01F0
7800F0
7800F0
F000F0
F00078
F00078
FFFFF8
FFFFF8
FFFFF8
F00000
F00000
F00000
F000F0
7800F0
7C01F0
3E03E0
3FDFC0
1FFF80
07FF00
01FC00
ENDCHAR
STARTCHAR 00EA
ENCODING 234
SWIDTH 562 0
DWIDTH 25 0
BBX 21 34 2 -1
BITMAP
00F800
00FC00
01FC00
03CE00
038F00
070700
0E0380
000000
000000
01FC00
07FF00
0FFF80
1F9FC0
3E03E0
7C01F0
7800F0
7800F0
F000F0
F00078
F00078
FFFFF8
FFFFF8
FFFFF8
F00000
F00000
F00000
F000F0
7800F0
7C01F0
3E03E0
3FDFC0
1FFF80
07FF00
01FC00
ENDCHAR
STARTCHAR 00EB
ENCODING 235
SWIDTH 562 0
DWIDTH 25 0
BBX 21 33 2 -1
BITMAP
078F80
078F80
078F80
078F80
078F80
000000
000000
000000
01FC00
07FF00
0FFF80
1F9FC0
3E03E0
7C01F0
7800F0
7800F0
F000F0
F00078
F00078
FFFFF8
FFFFF8
FFFFF8
F00000
F00000
F00000
F000F0
7800F0
7C01F0
3E03E0
3FDFC0
1FFF80
07FF00
01FC00
ENDCHAR
STARTCHAR 00EC
ENCODING 236
SWIDTH 270 0
DWIDTH 12 0
BBX 9 33 0 0
BITMAP
F800
7C00
3C00
1E00
0F00
0700
0380
0000
0000
0000
0F00
0F00
0F00
0F00
0F00
0F00
0F00
0F00
0F00
0F00
0F00
0F00
0F00
0F00
0F00
0F00
0F00
0F00
0F00
0F00
0F00
0F00
0F00
ENDCHAR
STARTCHAR 00ED
ENCODING 237
SWIDTH 270 0
DWIDTH 12 0
BBX 9 33 3 0
BITMAP
0F80
1F00
1E00
3C00
7800
7000
E000
0000
0000
0000
7800
7800
7800
7800
7800
7800
7800
7800
7800
7800
7800
7800
7800
7800
7800
7800
7800
7800
7800
7800
7800
7800
7800
ENDCHAR
STARTCHAR 00EE
ENCODING 238
SWIDTH 270 0
DWIDTH 12 0
BBX 12 33 0 0
BITMAP
0F00
1F80
3FC0
39C0
70E0
70F0
E070
0000
0000
0000
0F00
0F00
0F00
0F00
0F00
0F00
0F00
0F00
0F00
0F00
0F00
0F00
0F00
0F00
0F00
0F00
0F00
0F00
0F00
0F00
0F00
0F00
0F00
ENDCHAR
STARTCHAR 00EF
ENCODING 239
SWIDTH 270 0
DWIDTH 12 0
BBX 12 31 0 0
BITMAP
F9F0
F9F0
F9F0
F9F0
F9F0
0000
0000
0000
0F00
0F00
0F00
0F00
0F00
0F00
0F00
0F00
0F00
0F00
0F00
0F00
0F00
0F00
0F00
0F00
0F00
0F00
0F00
0F00
0F00
0F00
0F00
ENDCHAR
STARTCHAR 00F0
ENCODING 240
SWIDTH 562 0
DWIDTH 25 0
BBX 21 34 2 -1
BITMAP
180000
3E0C00
1F7E00
07F800
07E000
1FF800
3C7C00
103E00
001F00
03FF80
0FFF80
1FFFC0
3F9FE0
7C03E0
7801E0
7801F0
F000F0
F000F0
F00070
F00078
F00078
E00078
F00078
F00078
F00070
F000F0
F000F0
7801F0
7C01E0
7E03E0
3F9FC0
1FFF80
0FFF00
01FC00
ENDCHAR
STARTCHAR 00F1
ENCODING 241
SWIDTH 562 0
DWIDTH 25 0
BBX 19 33 3 0
BITMAP
070300
0FC700
1FFF00
1CFE00
383C00
000000
000000
000000
000000
007E00
F1FF00
F7FF80
F70FC0
FC03C0
FC03E0
F801E0
F001E0
F001E0
F001E0
F001E0
F001E0
F001E0
F001E0
F001E0
F001E0
F001E0
F001E0
F001E0
F001E0
F001E0
F001E0
F001E0
F001E0
ENDCHAR
STARTCHAR 00F2
ENCODING 242
SWIDTH 562 0
DWIDTH 25 0
BBX 21 34 2 -1
BITMAP
0F8000
07C000
03E000
01E000
00F000
007000
003800
000000
000000
01FC00
07FF00
1FFF80
3F9FC0
3E03E0
7C01E0
7801F0
F000F0
F000F0
F00070
F00078
F00078
E00078
F00078
F00078
F00070
F000F0
F000F0
7801F0
7C01E0
3E03E0
3F9FC0
1FFF80
0FFF00
01FC00
ENDCHAR
STARTCHAR 00F3
ENCODING 243
SWIDTH 562 0
DWIDTH 25 0
BBX 21 34 2 -1
BITMAP
001F00
003E00
003C00
007800
00F000
00E000
01C000
000000
000000
01FC00
07FF00
1FFF80
3F9FC0
3E03E0
7C01E0
7801F0
F000F0
F000F0
F00070
F00078
F00078
E00078
F00078
F00078
F00070
F000F0
F000F0
7801F0
7C01E0
3E03E0
3F9FC0
1FFF80
0FFF00
01FC00
ENDCHAR
STARTCHAR 00F4
ENCODING 244
SWIDTH 562 0
DWIDTH 25 0
BBX 21 34 2 -1
BITMAP
00F800
01F800
03FC00
039C00
070E00
070700
0E0300
000000
000000
01FC00
07FF00
1FFF80
3F9FC0
3E03E0
7C01E0
7801F0
F000F0
F000F0
F00070
F00078
F00078
E00078
F00078
F00078
F00070
F000F0
F000F0
7801F0
7C01E0
3E03E0
3F9FC0
1FFF80
0FFF00
01FC00
ENDCHAR
STARTCHAR 00F5
ENCODING 245
SWIDTH 562 0
DWIDTH 25 0
BBX 21 34 2 -1
BITMAP
078180
0FE380
0FFF80
0C7F00
1C1E00
000000
000000
000000
000000
01FC00
07FF00
1FFF80
3F9FC0
3E03E0
7C01E0
7801F0
F000F0
F000F0
F00070
F00078
F00078
E00078
F00078
F00078
F00070
F000F0
F000F0
7801F0
7C01E0
3E03E0
3F9FC0
1FFF80
0FFF00
01FC00
ENDCHAR
STARTCHAR 00F6
ENCODING 246
SWIDTH 562 0
DWIDTH 25 0
BBX 21 33 2 -1
BITMAP
0F9F00
0F9F00
0F9F00
0F9F00
0F9F00
000000
000000
000000
01FC00
07FF00
1FFF80
3F9FC0
3E03E0
7C01E0
7801F0
F000F0
F000F0
F00070
F00078
F00078
E00078
F00078
F00078
F00070
F000F0
F000F0
7801F0
7C01E0
3E03E0
3F9FC0
1FFF80
0FFF00
01FC00
ENDCHAR
STARTCHAR 00F7
ENCODING 247
SWIDTH 585 0
DWIDTH 26 0
BBX 22 21 2 0
BITMAP
007800
007800
007800
007800
007800
000000
000000
000000
000000
FFFFFC
FFFFFC
FFFFFC
000000
000000
000000
000000
007800
007800
007800
007800
007800
ENDCHAR
STARTCHAR 00F8
ENCODING 248
SWIDTH 607 0
DWIDTH 27 0
BBX 22 25 1 -1
BITMAP
00FE04
03FF8C
0FFFD8
1FCFF8
1F01F0
3E00F0
3C01F8
7803F8
780378
78063C
780C3C
78183C
70383C
78703C
78E03C
79C038
7B8078
7B0078
3E00F8
3C00F0
1F01F0
3FCFE0
7FFFC0
E7FF80
C0FE00
ENDCHAR
STARTCHAR 00F9
ENCODING 249
SWIDTH 562 0
DWIDTH 25 0
BBX 18 34 3 -1
BITMAP
1F0000
0F8000
078000
03C000
01E000
00E000
007000
000000
000000
000000
F001C0
F001C0
F001C0
F001C0
F001C0
F001C0
F001C0
F001C0
F001C0
F001C0
F001C0
F001C0
F001C0
F001C0
F001C0
F001C0
F003C0
F003C0
F007C0
F80FC0
7E3FC0
7FFDC0
3FF1C0
0FE000
ENDCHAR
STARTCHAR 00FA
ENCODING 250
SWIDTH 562 0
DWIDTH 25 0
BBX 18 34 3 -1
BITMAP
003E00
007C00
007800
00F000
01E000
01C000
038000
000000
000000
000000
F001C0
F001C0
F001C0
F001C0
F001C0
F001C0
F001C0
F001C0
F001C0
F001C0
F001C0
F001C0
F001C0
F001C0
F001C0
F001C0
F003C0
F003C0
F007C0
F80FC0
7E3FC0
7FFDC0
3FF1C0
0FE000
ENDCHAR
STARTCHAR 00FB
ENCODING 251
SWIDTH 562 0
DWIDTH 25 0
BBX 18 34 3 -1
BITMAP
01F000
03F000
07F800
073C00
0E1C00
0E0E00
1C0600
000000
000000
000000
F001C0
F001C0
F001C0
F001C0
F001C0
F001C0
F001C0
F001C0
F001C0
F001C0
F001C0
F001C0
F001C0
F001C0
F001C0
F001C0
F003C0
F003C0
F007C0
F80FC0
7E3FC0
7FFDC0
3FF1C0
0FE000
ENDCHAR
STARTCHAR 00FC
ENCODING 252
SWIDTH 562 0
DWIDTH 25 0
BBX 18 33 3 -1
BITMAP
1F3E00
1F3E00
1F3E00
1F3E00
1F3E00
000000
000000
000000
000000
F001C0
F001C0
F001C0
F001C0
F001C0
F001C0
F001C0
F001C0
F001C0
F001C0
F001C0
F001C0
F001C0
F001C0
F001C0
F001C0
F003C0
F003C0
F007C0
F80FC0
7E3FC0
7FFDC0
3FF1C0
0FE000
ENDCHAR
STARTCHAR 00FD
ENCODING 253
SWIDTH 495 0
DWIDTH 22 0
BBX 20 43 1 -10
BITMAP
001F00
003E00
007C00
007800
00F000
00E000
01C000
000000
000000
000000
F000F0
F000F0
7801E0
7801E0
7801E0
3C03C0
3C03C0
3C0380
1E0780
1E0780
1E0F00
0F0F00
0F0F00
0F1E00
079E00
079C00
07BC00
03FC00
03F800
01F800
01F800
01F000
00F000
00F000
01E000
01E000
03C000
03C000
07C000
7F8000
7F0000
7E0000
180000
ENDCHAR
STARTCHAR 00FE
ENCODING 254
SWIDTH 562 0
DWIDTH 25 0
BBX 21 42 2 -10
BITMAP
F00000
F00000
F00000
F00000
F00000
F00000
F00000
F00000
F0FC00
F3FF80
F7FFC0
FFDFE0
FE03E0
FC01F0
F800F0
F800F8
F80078
F00078
F00078
F00078
F00078
F00078
F00078
F00078
F80078
F800F8
FC00F0
FC01F0
FE03E0
FFDFE0
F7FFC0
F3FF00
F0FC00
F00000
F00000
F00000
F00000
F00000
F00000
F00000
F00000
F00000
ENDCHAR
STARTCHAR 00FF
ENCODING 255
SWIDTH 495 0
DWIDTH 22 0
BBX 20 42 1 -10
BITMAP
0F9F00
0F9F00
0F9F00
0F9F00
0F9F00
000000
000000
000000
000000
F000F0
F000F0
7801E0
7801E0
7801E0
3C03C0
3C03C0
3C0380
1E0780
1E0780
1E0F00
0F0F00
0F0F00
0F1E00
079E00
079C00
07BC00
03FC00
03F800
01F800
01F800
01F000
00F000
00F000
01E000
01E000
03C000
03C000
07C000
7F8000
7F0000
7E0000
180000
ENDCHAR
STARTCHAR 0100
ENCODING 256
SWIDTH 675 0
DWIDTH 30 0
BBX 28 40 1 0
BITMAP
00FFF000
00FFF000
00FFF000
00000000
00000000
00000000
00000000
00000000
001F8000
001F8000
003FC000
003FC000
003FC000
007FE000
0079E000
0079E000
00F1F000
00F0F000
00F0F000
01E0F800
01E07800
03E07800
03C07C00
03C03C00
07C03E00
07803E00
07801E00
0FFFFF00
0FFFFF00
0FFFFF00
1F000F80
1E000F80
3E000780
3C0007C0
3C0007C0
7C0003C0
780003E0
780001E0
F80001E0
F00001F0
ENDCHAR
STARTCHAR 0101
ENCODING 257
SWIDTH 562 0
DWIDTH 25 0
BBX 22 32 2 -1
BITMAP
0FFF00
0FFF00
0FFF00
000000
000000
000000
000000
03FC00
0FFF80
1FFFC0
3F9FC0
7C03E0
7801E0
7801E0
7801E0
0001E0
0001E0
001FE0
07FFE0
1FFFE0
3FE1E0
7C01E0
F801E0
F001E0
F001E0
F001E0
F003E0
F807E0
7C3FF0
7FFCFC
3FF8FC
0FE07C
ENDCHAR
STARTCHAR 0102
ENCODING 258
SWIDTH 675 0
DWIDTH 30 0
BBX 28 41 1 0
BITMAP
01C03800
01C07000
00F0F000
00FFF000
007FE000
001F8000
00000000
00000000
00000000
001F8000
001F8000
003FC000
003FC000
003FC000
007FE000
0079E000
0079E000
00F1F000
00F0F000
00F0F000
01E0F800
01E07800
03E07800
03C07C00
03C03C00
07C03E00
07803E00
07801E00
0FFFFF00
0FFFFF00
0FFFFF00
1F000F80
1E000F80
3E000780
3C0007C0
3C0007C0
7C0003C0
780003E0
780001E0
F80001E0
F00001F0
ENDCHAR
STARTCHAR 0103
ENCODING 259
SWIDTH 562 0
DWIDTH 25 0
BBX 22 34 2 -1
BITMAP
0C0380
0E0380
0F0700
0FFF00
07FE00
01F800
000000
000000
000000
03FC00
0FFF80
1FFFC0
3F9FC0
7C03E0
7801E0
7801E0
7801E0
0001E0
0001E0
001FE0
07FFE0
1FFFE0
3FE1E0
7C01E0
F801E0
F001E0
F001E0
F001E0
F003E0
F807E0
7C3FF0
7FFCFC
3FF8FC
0FE07C
ENDCHAR
STARTCHAR 0104
ENCODING 260
SWIDTH 675 0
DWIDTH 30 0
BBX 30 41 1 -9
BITMAP
001F8000
001F8000
003FC000
003FC000
003FC000
007FE000
0079E000
0079E000
00F1F000
00F0F000
00F0F000
01E0F800
01E07800
03E07800
03C07C00
03C03C00
07C03E00
07803E00
07801E00
0FFFFF00
0FFFFF00
0FFFFF00
1F000F80
1E000F80
3E000780
3C0007C0
3C0007C0
7C0003C0
780003E0
780001E0
F80001E0
F00001F0
000000E0
00000380
00000700
00000700
00000700
00000700
00000780
000003FC
000000FC
ENDCHAR
STARTCHAR 0105
ENCODING 261
SWIDTH 562 0
DWIDTH 25 0
BBX 24 33 2 -9
BITMAP
03FC00
0FFF80
1FFFC0
3F9FC0
3C03E0
7801E0
7801E0
7801E0
0001E0
0001E0
001FE0
07FFE0
1FFFE0
3FE1E0
7C01E0
F801E0
F001E0
F001E0
F001E0
F003E0
F807E0
7C3FF0
7FFCFC
3FF8FC
0FE07C
000070
0000E0
0000E0
0001C0
0001E0
0000F0
0000FF
00003F
ENDCHAR
STARTCHAR 0106
ENCODING 262
SWIDTH 720 0
DWIDTH 32 0
BBX 28 43 2 -1
BITMAP
0000F800
0001F000
0001E000
0003C000
00078000
00070000
000E0000
00000000
00000000
001FE000
00FFFC00
03FFFE00
07FFFF00
0FC01F80
0F8007C0
1F0003C0
3E0003E0
3C0001E0
7C0001E0
780001E0
78000000
78000000
F8000000
F0000000
F0000000
F0000000
F0000000
F0000000
F0000000
F8000000
780000F0
780000F0
780001F0
7C0001E0
3C0001E0
3E0003E0
1F0003C0
1F8007C0
0FE01F80
07FFFF00
03FFFE00
00FFFC00
003FE000
ENDCHAR
STARTCHAR 0107
ENCODING 263
SWIDTH 495 0
DWIDTH 22 0
BBX 20 34 1 -1
BITMAP
000F80
001F00
001E00
003C00
007800
007000
00E000
000000
000000
00FC00
07FF00
0FFFC0
1FDFC0
1E03E0
3C01E0
3C00F0
7800F0
7800F0
780000
700000
F00000
F00000
F00000
F00000
780000
7800F0
7800F0
7C00F0
3C01E0
3E03E0
1FDFC0
0FFF80
07FF00
01FC00
ENDCHAR
STARTCHAR 0108
ENCODING 264
SWIDTH 720 0
DWIDTH 32 0
BBX 28 43 2 -1
BITMAP
000F8000
000FC000
001FC000
003DE000
0038E000
00707000
00E03800
00000000
00000000
001FE000
00FFFC00
03FFFE00
07FFFF00
0FC01F80
0F8007C0
1F0003C0
3E0003E0
3C0001E0
7C0001E0
780001E0
78000000
78000000
F8000000
F0000000
F0000000
F0000000
F0000000
F0000000
F0000000
F8000000
780000F0
780000F0
780001F0
7C0001E0
3C0001E0
3E0003E0
1F0003C0
1F8007C0
0FE01F80
07FFFF00
03FFFE00
00FFFC00
003FE000
ENDCHAR
STARTCHAR 0109
ENCODING 265
SWIDTH 495 0
DWIDTH 22 0
BBX 20 34 1 -1
BITMAP
00F800
00FC00
01FE00
01CE00
038700
070700
070380
000000
000000
00FC00
07FF00
0FFFC0
1FDFC0
1E03E0
3C01E0
3C00F0
7800F0
7800F0
780000
700000
F00000
F00000
F00000
F00000
780000
7800F0
7800F0
7C00F0
3C01E0
3E03E0
1FDFC0
0FFF80
07FF00
01FC00
ENDCHAR
STARTCHAR 010A
ENCODING 266
SWIDTH 720 0
DWIDTH 32 0
BBX 28 42 2 -1
BITMAP
00078000
00078000
00078000
00078000
00078000
00000000
00000000
00000000
001FE000
00FFFC00
03FFFE00
07FFFF00
0FC01F80
0F8007C0
1F0003C0
3E0003E0
3C0001E0
7C0001E0
780001E0
78000000
78000000
F8000000
F0000000
F0000000
F0000000
F0000000
F0000000
F0000000
F8000000
780000F0
780000F0
780001F0
7C0001E0
3C0001E0
3E0003E0
1F0003C0
1F8007C0
0FE01F80
07FFFF00
03FFFE00
00FFFC00
003FE000
ENDCHAR
STARTCHAR 010B
ENCODING 267
SWIDTH 495 0
DWIDTH 22 0
BBX 20 34 1 -1
BITMAP
00F800
00F800
00F800
00F800
00F800
000000
000000
000000
000000
00FC00
07FF00
0FFFC0
1FDFC0
1E03E0
3C01E0
3C00F0
7800F0
7800F0
780000
700000
F00000
F00000
F00000
F00000
780000
7800F0
7800F0
7C00F0
3C01E0
3E03E0
1FDFC0
0FFF80
07FF00
01FC00
ENDCHAR
STARTCHAR 010C
ENCODING 268
SWIDTH 720 0
DWIDTH 32 0
BBX 28 43 2 -1
BITMAP
00703800
00707000
00387000
001CE000
001FE000
000FC000
00078000
00000000
00000000
001FE000
00FFFC00
03FFFE00
07FFFF00
0FC01F80
0F8007C0
1F0003C0
3E0003E0
3C0001E0
7C0001E0
780001E0
78000000
78000000
F8000000
F0000000
F0000000
F0000000
F0000000
F0000000
F0000000
F8000000
780000F0
780000F0
780001F0
7C0001E0
3C0001E0
3E0003E0
1F0003C0
1F8007C0
0FE01F80
07FFFF00
03FFFE00
00FFFC00
003FE000
ENDCHAR
STARTCHAR 010D
ENCODING 269
SWIDTH 495 0
DWIDTH 22 0
BBX 20 34 1 -1
BITMAP
070380
078700
038F00
01DE00
01FC00
00FC00
007800
000000
000000
00FC00
07FF00
0FFFC0
1FDFC0
1E03E0
3C01E0
3C00F0
7800F0
7800F0
780000
700000
F00000
F00000
F00000
F00000
780000
7800F0
7800F0
7C00F0
3C01E0
3E03E0
1FDFC0
0FFF80
07FF00
01FC00
ENDCHAR
STARTCHAR 010E
ENCODING 270
SWIDTH 720 0
DWIDTH 32 0
BBX 26 41 4 0
BITMAP
07038000
03870000
03CF0000
01FE0000
00FC0000
00FC0000
00000000
00000000
00000000
FFFF0000
FFFFE000
FFFFF000
FFFFF800
F000FC00
F0003E00
F0001F00
F0000F00
F0000F80
F0000780
F0000780
F0000780
F0000780
F00007C0
F00007C0
F00007C0
F00007C0
F00007C0
F00007C0
F0000780
F0000780
F0000780
F0000780
F0000F00
F0000F00
F0001F00
F0003E00
F000FC00
FFFFF800
FFFFF000
FFFFE000
FFFF0000
ENDCHAR
STARTCHAR 010F
ENCODING 271
SWIDTH 652 0
DWIDTH 29 0
BBX 28 33 1 -1
BITMAP
000079F0
000079F0
000079F0
000079F0
00007830
00007830
00007830
00007860
01F879C0
07FE7900
0FFF7800
1FDFF800
3E03F800
3C01F800
7C00F800
7800F800
78007800
F0007800
F0007800
F0007800
F0007800
F0007800
F0007800
F0007800
78007800
7800F800
7C00F800
3C01F800
3E03F800
1FDFB800
0FFF3800
07FE3800
01F80000
ENDCHAR
STARTCHAR 0110
ENCODING 272
SWIDTH 720 0
DWIDTH 32 0
BBX 29 32 1 0
BITMAP
1FFFE000
1FFFFC00
1FFFFE00
1FFFFF00
1E001F80
1E0007C0
1E0003E0
1E0001E0
1E0001F0
1E0000F0
1E0000F0
1E0000F0
1E0000F0
1E0000F8
FFFE00F8
FFFE00F8
FFFE00F8
1E0000F8
1E0000F8
1E0000F0
1E0000F0
1E0000F0
1E0000F0
1E0001E0
1E0001E0
1E0003E0
1E0007C0
1E001F80
1FFFFF00
1FFFFE00
1FFFFC00
1FFFE000
ENDCHAR
STARTCHAR 0111
ENCODING 273
SWIDTH 562 0
DWIDTH 25 0
BBX 24 33 1 -1
BITMAP
000078
000078
000078
001FFF
001FFF
000078
000078
000078
01F878
07FE78
0FFF78
1FFFF8
3F03F8
3C01F8
7C00F8
7800F8
780078
F00078
F00078
F00078
F00078
F00078
F00078
F00078
780078
7800F8
7C00F8
3C01F8
3F03F8
1FFFF8
0FFFB8
07FE38
01F800
ENDCHAR
STARTCHAR 0112
ENCODING 274
SWIDTH 675 0
DWIDTH 30 0
BBX 23 40 4 0
BITMAP
07FF80
07FF80
07FF80
000000
000000
000000
000000
000000
FFFFFC
FFFFFC
FFFFFC
FFFFFC
F00000
F00000
F00000
F00000
F00000
F00000
F00000
F00000
F00000
F00000
FFFFFC
FFFFFC
FFFFFC
FFFFFC
F00000
F00000
F00000
F00000
F00000
F00000
F00000
F00000
F00000
F00000
FFFFFE
FFFFFE
FFFFFE
FFFFFE
ENDCHAR
STARTCHAR 0113
ENCODING 275
SWIDTH 562 0
DWIDTH 25 0
BBX 21 32 2 -1
BITMAP
07FF80
07FF80
07FF80
000000
000000
000000
000000
01FC00
07FF00
0FFF80
1F9FC0
3E03E0
7C01F0
7800F0
7800F0
F000F0
F00078
F00078
FFFFF8
FFFFF8
FFFFF8
F00000
F00000
F00000
F000F0
7800F0
7C01F0
3E03E0
3FDFC0
1FFF80
07FF00
01FC00
ENDCHAR
STARTCHAR 0114
ENCODING 276
SWIDTH 675 0
DWIDTH 30 0
BBX 23 41 4 0
BITMAP
0601C0
0701C0
078380
03FF80
01FF00
00FC00
000000
000000
000000
FFFFFC
FFFFFC
FFFFFC
FFFFFC
F00000
F00000
F00000
F00000
F00000
F00000
F00000
F00000
F00000
F00000
FFFFFC
FFFFFC
FFFFFC
FFFFFC
F00000
F00000
F00000
F00000
F00000
F00000
F00000
F00000
F00000
F00000
FFFFFE
FFFFFE
FFFFFE
FFFFFE
ENDCHAR
STARTCHAR 0115
ENCODING 277
SWIDTH 562 0
DWIDTH 25 0
BBX 21 34 2 -1
BITMAP
0E0180
0E0380
0F0780
07FF00
03FF00
00FC00
000000
000000
000000
01FC00
07FF00
0FFF80
1F9FC0
3E03E0
7C01F0
7800F0
7800F0
F000F0
F00078
F00078
FFFFF8
FFFFF8
FFFFF8
F00000
F00000
F00000
F000F0
7800F0
7C01F0
3E03E0
3FDFC0
1FFF80
07FF00
01FC00
ENDCHAR
STARTCHAR 0116
ENCODING 278
SWIDTH 675 0
DWIDTH 30 0
BBX 23 40 4 0
BITMAP
007C00
007C00
007C00
007C00
007C00
000000
000000
000000
FFFFFC
FFFFFC
FFFFFC
FFFFFC
F00000
F00000
F00000
F00000
F00000
F00000
F00000
F00000
F00000
F00000
FFFFFC
FFFFFC
FFFFFC
FFFFFC
F00000
F00000
F00000
F00000
F00000
F00000
F00000
F00000
F00000
F00000
FFFFFE
FFFFFE
FFFFFE
FFFFFE
ENDCHAR
STARTCHAR 0117
ENCODING 279
SWIDTH 562 0
DWIDTH 25 0
BBX 21 34 2 -1
BITMAP
00F800
00F800
00F800
00F800
00F800
000000
000000
000000
000000
01FC00
07FF00
0FFF80
1F9FC0
3E03E0
7C01F0
7800F0
7800F0
F000F0
F00078
F00078
FFFFF8
FFFFF8
FFFFF8
F00000
F00000
F00000
F000F0
7800F0
7C01F0
3E03E0
3FDFC0
1FFF80
07FF00
01FC00
ENDCHAR
STARTCHAR 0118
ENCODING 280
SWIDTH 675 0
DWIDTH 30 0
BBX 25 41 4 -9
BITMAP
FFFFFC00
FFFFFC00
FFFFFC00
FFFFFC00
F0000000
F0000000
F0000000
F0000000
F0000000
F0000000
F0000000
F0000000
F0000000
F0000000
FFFFFC00
FFFFFC00
FFFFFC00
FFFFFC00
F0000000
F0000000
F0000000
F0000000
F0000000
F0000000
F0000000
F0000000
F0000000
F0000000
FFFFFE00
FFFFFE00
FFFFFE00
FFFFFE00
00001C00
00003800
00007000
0000E000
0000E000
0000E000
0000F000
00007F80
00001F80
ENDCHAR
STARTCHAR 0119
ENCODING 281
SWIDTH 562 0
DWIDTH 25 0
BBX 21 33 2 -9
BITMAP
01FC00
07FF00
0FFF80
1F9FC0
3E03E0
7C01F0
7800F0
7800F0
F00070
F00078
F00078
FFFFF8
FFFFF8
FFFFF8
F00000
F00000
F00000
F000F0
7800F0
7C01F0
3E03E0
3F9FC0
1FFFC0
07FF80
01FF00
000E00
001C00
001C00
003C00
003C00
001E00
001FF0
0007F0
ENDCHAR
STARTCHAR 011A
ENCODING 282
SWIDTH 675 0
DWIDTH 30 0
BBX 23 41 4 0
BITMAP
078380
038700
01CF00
01EE00
00FE00
007C00
000000
000000
000000
FFFFFC
FFFFFC
FFFFFC
FFFFFC
F00000
F00000
F00000
F00000
F00000
F00000
F00000
F00000
F00000
F00000
FFFFFC
FFFFFC
FFFFFC
FFFFFC
F00000
F00000
F00000
F00000
F00000
F00000
F00000
F00000
F00000
F00000
FFFFFE
FFFFFE
FFFFFE
FFFFFE
ENDCHAR
STARTCHAR 011B
ENCODING 283
SWIDTH 562 0
DWIDTH 25 0
BBX 21 34 2 -1
BITMAP
070380
070700
038F00
01DE00
01FC00
00FC00
00F800
000000
000000
01FC00
07FF00
0FFF80
1F9FC0
3E03E0
7C01F0
7800F0
7800F0
F000F0
F00078
F00078
FFFFF8
FFFFF8
FFFFF8
F00000
F00000
F00000
F000F0
7800F0
7C01F0
3E03E0
3FDFC0
1FFF80
07FF00
01FC00
ENDCHAR
STARTCHAR 011C
ENCODING 284
SWIDTH 787 0
DWIDTH 35 0
BBX 30 43 2 -1
BITMAP
00078000
000FC000
000FE000
001CE000
003C7000
00383800
00703800
00000000
00000000
001FF000
00FFFE00
01FFFF00
07FFFFC0
0FE00FE0
0F8003E0
1F0001F0
3E0000F0
3C0000F8
7C000078
78000000
78000000
F8000000
F0000000
F0000000
F0000000
F000FFFC
F000FFFC
F000FFFC
F000FFFC
F000003C
F800003C
7800003C
7800007C
7C00007C
3C00007C
3E0000FC
1F0001FC
1F8003FC
0FE00FBC
07FFFF3C
03FFFE3C
00FFF81C
001FE000
ENDCHAR
STARTCHAR 011D
ENCODING 285
SWIDTH 562 0
DWIDTH 25 0
BBX 19 43 2 -10
BITMAP
00F800
01F800
03FC00
039C00
070E00
070700
0E0700
000000
000000
03F000
0FFCE0
1FFEE0
3FBEE0
3C07E0
7803E0
7803E0
F001E0
F001E0
F001E0
F001E0
E000E0
E000E0
E000E0
F000E0
F001E0
F001E0
F001E0
F803E0
7803E0
7C07E0
3FBEE0
1FFCE0
0FF8E0
03F0E0
0001E0
0001E0
F001E0
7803C0
7803C0
3E0F80
3FFF00
0FFE00
03F800
ENDCHAR
STARTCHAR 011E
ENCODING 286
SWIDTH 787 0
DWIDTH 35 0
BBX 30 42 2 -1
BITMAP
00700C00
00701C00
00783C00
003FF800
001FF000
0007E000
00000000
00000000
001FF000
00FFFE00
01FFFF00
07FFFFC0
0FE00FE0
0F8003E0
1F0001F0
3E0000F0
3C0000F8
7C000078
78000000
78000000
F8000000
F0000000
F0000000
F0000000
F000FFFC
F000FFFC
F000FFFC
F000FFFC
F000003C
F800003C
7800003C
7800007C
7C00007C
3C00007C
3E0000FC
1F0001FC
1F8003FC
0FE00FBC
07FFFF3C
03FFFE3C
00FFF81C
001FE000
ENDCHAR
STARTCHAR 011F
ENCODING 287
SWIDTH 562 0
DWIDTH 25 0
BBX 19 43 2 -10
BITMAP
1C0380
1C0300
0F0F00
0FFF00
07FE00
01F800
000000
000000
000000
03F000
0FFCE0
1FFEE0
3FBEE0
3C07E0
7803E0
7803E0
F001E0
F001E0
F001E0
F001E0
E000E0
E000E0
E000E0
F000E0
F001E0
F001E0
F001E0
F803E0
7803E0
7C07E0
3FBEE0
1FFCE0
0FF8E0
03F0E0
0001E0
0001E0
F001E0
7803C0
7803C0
3E0F80
3FFF00
0FFE00
03F800
ENDCHAR
STARTCHAR 0120
ENCODING 288
SWIDTH 787 0
DWIDTH 35 0
BBX 30 42 2 -1
BITMAP
0007C000
0007C000
0007C000
0007C000
0007C000
00000000
00000000
00000000
001FF000
00FFFE00
01FFFF00
07FFFFC0
0FE00FE0
0F8003E0
1F0001F0
3E0000F0
3C0000F8
7C000078
78000000
78000000
F8000000
F0000000
F0000000
F0000000
F000FFFC
F000FFFC
F000FFFC
F000FFFC
F000003C
F800003C
7800003C
7800007C
7C00007C
3C00007C
3E0000FC
1F0001FC
1F8003FC
0FE00FBC
07FFFF3C
03FFFE3C
00FFF81C
001FE000
ENDCHAR
STARTCHAR 0121
ENCODING 289
SWIDTH 562 0
DWIDTH 25 0
BBX 19 42 2 -10
BITMAP
01F000
01F000
01F000
01F000
01F000
000000
000000
000000
03F000
0FFCE0
1FFEE0
3FBEE0
3C07E0
7803E0
7803E0
F001E0
F001E0
F001E0
F001E0
E000E0
E000E0
E000E0
F000E0
F001E0
F001E0
F001E0
F803E0
7803E0
7C07E0
3FBEE0
1FFCE0
0FF8E0
03F0E0
0001E0
0001E0
F001E0
7803C0
7803C0
3E0F80
3FFF00
0FFE00
03F800
ENDCHAR
STARTCHAR 0122
ENCODING 290
SWIDTH 787 0
DWIDTH 35 0
BBX 30 45 2 -13
BITMAP
001FF000
00FFFE00
01FFFF00
07FFFFC0
0FE00FE0
0F8003E0
1F0001F0
3E0000F0
3C0000F8
7C000078
78000000
78000000
F8000000
F0000000
F0000000
F0000000
F000FFFC
F000FFFC
F000FFFC
F000FFFC
F000003C
F800003C
7800003C
7800007C
7C00007C
3C00007C
3E0000FC
1F0001FC
1F8003FC
0FE00FBC
07FFFF3C
03FFFE3C
00FFF81C
001FE000
00000000
00000000
00078000
00078000
00078000
00078000
00018000
00018000
00018000
00038000
00070000
ENDCHAR
STARTCHAR 0123
ENCODING 291
SWIDTH 562 0
DWIDTH 25 0
BBX 19 47 2 -10
BITMAP
001000
007000
00E000
00C000
00C000
00C000
00F000
00F000
00F000
00F000
000000
000000
000000
03F000
0FFCE0
1FFEE0
3FBEE0
3C07E0
7803E0
7803E0
F001E0
F001E0
F001E0
F001E0
E000E0
E000E0
E000E0
F000E0
F001E0
F001E0
F001E0
F803E0
7803E0
7C07E0
3FBEE0
1FFCE0
0FF8E0
03F0E0
0001E0
0001E0
F001E0
7803C0
7803C0
3E0F80
3FFF00
0FFE00
03F800
ENDCHAR
STARTCHAR 0124
ENCODING 292
SWIDTH 720 0
DWIDTH 32 0
BBX 25 41 4 0
BITMAP
003E0000
007F0000
00770000
00E38000
01C1C000
01C1C000
00000000
00000000
00000000
F0000F80
F0000F80
F0000F80
F0000F80
F0000F80
F0000F80
F0000F80
F0000F80
F0000F80
F0000F80
F0000F80
F0000F80
F0000F80
F0000F80
FFFFFF80
FFFFFF80
FFFFFF80
FFFFFF80
F0000F80
F0000F80
F0000F80
F0000F80
F0000F80
F0000F80
F0000F80
F0000F80
F0000F80
F0000F80
F0000F80
F0000F80
F0000F80
F0000F80
ENDCHAR
STARTCHAR 0125
ENCODING 293
SWIDTH 562 0
DWIDTH 25 0
BBX 23 41 -1 0
BITMAP
1F8000
1F8000
3FC000
79E000
70E000
E07000
000000
000000
000000
0F0000
0F0000
0F0000
0F0000
0F0000
0F0000
0F0000
0F0000
0F0FE0
0F3FF0
0F7FF8
0FF0FC
0FC03C
0F803E
0F801E
0F001E
0F001E
0F001E
0F001E
0F001E
0F001E
0F001E
0F001E
0F001E
0F001E
0F001E
0F001E
0F001E
0F001E
0F001E
0F001E
0F001E
ENDCHAR
STARTCHAR 0126
ENCODING 294
SWIDTH 720 0
DWIDTH 32 0
BBX 32 32 0 0
BITMAP
0F0000F8
0F0000F8
0F0000F8
0F0000F8
0F0000F8
0F0000F8
0F0000F8
FFFFFFFF
FFFFFFFF
FFFFFFFF
0F0000F8
0F0000F8
0F0000F8
0F0000F8
0FFFFFF8
0FFFFFF8
0FFFFFF8
0FFFFFF8
0F0000F8
0F0000F8
0F0000F8
0F0000F8
0F0000F8
0F0000F8
0F0000F8
0F0000F8
0F0000F8
0F0000F8
0F0000F8
0F0000F8
0F0000F8
0F0000F8
ENDCHAR
STARTCHAR 0127
ENCODING 295
SWIDTH 562 0
DWIDTH 25 0
BBX 22 32 0 0
BITMAP
1E0000
1E0000
1E0000
FFFF00
FFFF00
1E0000
1E0000
1E0000
1E1FC0
1E7FE0
1EFFF0
1FE1F8
1F8078
1F007C
1F003C
1E003C
1E003C
1E003C
1E003C
1E003C
1E003C
1E003C
1E003C
1E003C
1E003C
1E003C
1E003C
1E003C
1E003C
1E003C
1E003C
1E003C
ENDCHAR
STARTCHAR 0128
ENCODING 296
SWIDTH 270 0
DWIDTH 12 0
BBX 14 40 -1 0
BITMAP
3F1C
7FFC
7FF8
E3F0
E000
0000
0000
0000
07C0
07C0
07C0
07C0
07C0
07C0
07C0
07C0
07C0
07C0
07C0
07C0
07C0
07C0
07C0
07C0
07C0
07C0
07C0
07C0
07C0
07C0
07C0
07C0
07C0
07C0
07C0
07C0
07C0
07C0
07C0
07C0
ENDCHAR
STARTCHAR 0129
ENCODING 297
SWIDTH 270 0
DWIDTH 12 0
BBX 14 33 -1 0
BITMAP
3C1C
7F1C
7FF8
E3F8
E0E0
0000
0000
0000
0000
0000
0780
0780
0780
0780
0780
0780
0780
0780
0780
0780
0780
0780
0780
0780
0780
0780
0780
0780
0780
0780
0780
0780
0780
ENDCHAR
STARTCHAR 012A
ENCODING 298
SWIDTH 270 0
DWIDTH 12 0
BBX 11 40 1 0
BITMAP
FFE0
FFE0
FFE0
0000
0000
0000
0000
0000
1F00
1F00
1F00
1F00
1F00
1F00
1F00
1F00
1F00
1F00
1F00
1F00
1F00
1F00
1F00
1F00
1F00
1F00
1F00
1F00
1F00
1F00
1F00
1F00
1F00
1F00
1F00
1F00
1F00
1F00
1F00
1F00
ENDCHAR
STARTCHAR 012B
ENCODING 299
SWIDTH 270 0
DWIDTH 12 0
BBX 11 31 1 0
BITMAP
FFE0
FFE0
FFE0
0000
0000
0000
0000
0000
1E00
1E00
1E00
1E00
1E00
1E00
1E00
1E00
1E00
1E00
1E00
1E00
1E00
1E00
1E00
1E00
1E00
1E00
1E00
1E00
1E00
1E00
1E00
ENDCHAR
STARTCHAR 012C
ENCODING 300
SWIDTH 270 0
DWIDTH 12 0
BBX 14 41 -1 0
BITMAP
E01C
701C
7878
7FF8
3FF0
0FC0
0000
0000
0000
0780
0780
0780
0780
0780
0780
0780
0780
0780
0780
0780
0780
0780
0780
0780
0780
0780
0780
0780
0780
0780
0780
0780
0780
0780
0780
0780
0780
0780
0780
0780
0780
ENDCHAR
STARTCHAR 012D
ENCODING 301
SWIDTH 270 0
DWIDTH 12 0
BBX 14 33 -1 0
BITMAP
E01C
701C
7838
7FF8
3FF0
0FC0
0000
0000
0000
0000
0780
0780
0780
0780
0780
0780
0780
0780
0780
0780
0780
0780
0780
0780
0780
0780
0780
0780
0780
0780
0780
0780
0780
ENDCHAR
STARTCHAR 012E
ENCODING 302
SWIDTH 270 0
DWIDTH 12 0
BBX 7 41 3 -9
BITMAP
7C
7C
7C
7C
7C
7C
7C
7C
7C
7C
7C
7C
7C
7C
7C
7C
7C
7C
7C
7C
7C
7C
7C
7C
7C
7C
7C
7C
7C
7C
7C
7C
18
30
70
E0
E0
E0
F0
7E
3E
ENDCHAR
STARTCHAR 012F
ENCODING 303
SWIDTH 225 0
DWIDTH 10 0
BBX 7 41 1 -9
BITMAP
3C
3C
3C
3C
3C
00
00
00
00
3C
3C
3C
3C
3C
3C
3C
3C
3C
3C
3C
3C
3C
3C
3C
3C
3C
3C
3C
3C
3C
3C
3C
18
30
70
E0
E0
E0
F0
7E
3E
ENDCHAR
STARTCHAR 0130
ENCODING 304
SWIDTH 270 0
DWIDTH 12 0
BBX 5 40 4 0
BITMAP
F8
F8
F8
F8
F8
00
00
00
F8
F8
F8
F8
F8
F8
F8
F8
F8
F8
F8
F8
F8
F8
F8
F8
F8
F8
F8
F8
F8
F8
F8
F8
F8
F8
F8
F8
F8
F8
F8
F8
ENDCHAR
STARTCHAR 0131
ENCODING 305
SWIDTH 270 0
DWIDTH 12 0
BBX 4 23 4 0
BITMAP
F0
F0
F0
F0
F0
F0
F0
F0
F0
F0
F0
F0
F0
F0
F0
F0
F0
F0
F0
F0
F0
F0
F0
ENDCHAR
STARTCHAR 0132
ENCODING 306
SWIDTH 742 0
DWIDTH 33 0
BBX 24 33 5 -1
BITMAP
F0000F
F0000F
F0000F
F0000F
F0000F
F0000F
F0000F
F0000F
F0000F
F0000F
F0000F
F0000F
F0000F
F0000F
F0000F
F0000F
F0000F
F0000F
F0000F
F0000F
F0000F
F0000F
F3C00F
F3C00F
F3C00F
F3C00F
F3E00F
F3E01F
F1F03E
F1FFFE
F0FFFC
F07FF8
000FC0
ENDCHAR
STARTCHAR 0133
ENCODING 307
SWIDTH 450 0
DWIDTH 20 0
BBX 12 42 4 -10
BITMAP
F0F0
F0F0
F0F0
F0F0
F0F0
0000
0000
0000
0000
F0F0
F0F0
F0F0
F0F0
F0F0
F0F0
F0F0
F0F0
F0F0
F0F0
F0F0
F0F0
F0F0
F0F0
F0F0
F0F0
F0F0
F0F0
F0F0
F0F0
F0F0
F0F0
F0F0
00F0
00F0
00F0
00F0
00F0
00F0
01F0
07F0
07E0
0780
ENDCHAR
STARTCHAR 0134
ENCODING 308
SWIDTH 495 0
DWIDTH 22 0
BBX 21 42 1 -1
BITMAP
0007C0
000FE0
001EE0
001CF0
003878
007038
000000
000000
000000
0003C0
0003C0
0003C0
0003C0
0003C0
0003C0
0003C0
0003C0
0003C0
0003C0
0003C0
0003C0
0003C0
0003C0
0003C0
0003C0
0003C0
0003C0
0003C0
0003C0
0003C0
0003C0
F003C0
F003C0
F003C0
F003C0
F007C0
F80780
7C0F80
7FFF00
3FFF00
1FFC00
07F000
ENDCHAR
STARTCHAR 0135
ENCODING 309
SWIDTH 225 0
DWIDTH 10 0
BBX 12 43 -1 -10
BITMAP
1F00
1F80
3F80
79C0
71E0
E0E0
E070
0000
0000
0000
0F00
0F00
0F00
0F00
0F00
0F00
0F00
0F00
0F00
0F00
0F00
0F00
0F00
0F00
0F00
0F00
0F00
0F00
0F00
0F00
0F00
0F00
0F00
0F00
0F00
0F00
0F00
0F00
0F00
1F00
FE00
FC00
F800
ENDCHAR
STARTCHAR 0136
ENCODING 310
SWIDTH 675 0
DWIDTH 30 0
BBX 25 44 4 -13
BITMAP
F0001F80
F0003F00
F0007E00
F000FC00
F001F800
F003F000
F007E000
F00FC000
F01F0000
F03E0000
F07C0000
F0F80000
F1F00000
F3F00000
F7F80000
FFFC0000
FF3C0000
FE3E0000
FC1F0000
F80F0000
F00F8000
F007C000
F003E000
F003E000
F001F000
F000F800
F000F800
F0007C00
F0003E00
F0001E00
F0001F00
F0000F80
00000000
00000000
00000000
007C0000
007C0000
007C0000
007C0000
000C0000
000C0000
00180000
00180000
00700000
ENDCHAR
STARTCHAR 0137
ENCODING 311
SWIDTH 495 0
DWIDTH 22 0
BBX 19 44 3 -13
BITMAP
E00000
E00000
E00000
E00000
E00000
E00000
E00000
E00000
E00000
E00780
E00F00
E01E00
E03C00
E07800
E0F000
E1E000
E3C000
E7C000
EFE000
FFE000
FDF000
F8F800
F07800
E07C00
E03E00
E01E00
E01F00
E00F00
E00F80
E007C0
E003C0
E003E0
000000
000000
000000
01E000
01E000
01E000
01E000
006000
006000
006000
00C000
018000
ENDCHAR
STARTCHAR 0138
ENCODING 312
SWIDTH 495 0
DWIDTH 22 0
BBX 18 23 2 0
BITMAP
E003C0
E00780
E00F00
E01E00
E03C00
E07800
E0F000
E1E000
E3C000
E78000
EF8000
FFC000
F9E000
F0E000
E07000
E07800
E03800
E01C00
E01E00
E00E00
E00700
E00780
E00380
ENDCHAR
STARTCHAR 0139
ENCODING 313
SWIDTH 562 0
DWIDTH 25 0
BBX 20 41 4 0
BITMAP
1F0000
3E0000
3C0000
780000
F00000
E00000
000000
000000
000000
F00000
F00000
F00000
F00000
F00000
F00000
F00000
F00000
F00000
F00000
F00000
F00000
F00000
F00000
F00000
F00000
F00000
F00000
F00000
F00000
F00000
F00000
F00000
F00000
F00000
F00000
F00000
F00000
FFFFF0
FFFFF0
FFFFF0
FFFFF0
ENDCHAR
STARTCHAR 013A
ENCODING 314
SWIDTH 225 0
DWIDTH 10 0
BBX 9 41 3 0
BITMAP
0F80
1E00
3C00
3800
7000
E000
0000
0000
0000
F000
F000
F000
F000
F000
F000
F000
F000
F000
F000
F000
F000
F000
F000
F000
F000
F000
F000
F000
F000
F000
F000
F000
F000
F000
F000
F000
F000
F000
F000
F000
F000
ENDCHAR
STARTCHAR 013B
ENCODING 315
SWIDTH 562 0
DWIDTH 25 0
BBX 20 45 4 -13
BITMAP
F00000
F00000
F00000
F00000
F00000
F00000
F00000
F00000
F00000
F00000
F00000
F00000
F00000
F00000
F00000
F00000
F00000
F00000
F00000
F00000
F00000
F00000
F00000
F00000
F00000
F00000
F00000
F00000
FFFFF0
FFFFF0
FFFFF0
FFFFF0
000000
000000
000000
01F000
01F000
01F000
01F000
003000
003000
003000
006000
01C000
010000
ENDCHAR
STARTCHAR 013C
ENCODING 316
SWIDTH 225 0
DWIDTH 10 0
BBX 4 44 3 -13
BITMAP
F0
F0
F0
F0
F0
F0
F0
F0
F0
F0
F0
F0
F0
F0
F0
F0
F0
F0
F0
F0
F0
F0
F0
F0
F0
F0
F0
F0
F0
F0
F0
F0
00
00
00
F0
F0
F0
F0
30
30
30
60
E0
ENDCHAR
STARTCHAR 013D
ENCODING 317
SWIDTH 562 0
DWIDTH 25 0
BBX 20 32 4 0
BITMAP
F0F800
F0F800
F0F800
F0F800
F01800
F01800
F03000
F03000
F0E000
F0C000
F00000
F00000
F00000
F00000
F00000
F00000
F00000
F00000
F00000
F00000
F00000
F00000
F00000
F00000
F00000
F00000
F00000
F00000
FFFFF0
FFFFF0
FFFFF0
FFFFF0
ENDCHAR
STARTCHAR 013E
ENCODING 318
SWIDTH 292 0
DWIDTH 13 0
BBX 11 32 3 0
BITMAP
F3E0
F3E0
F3E0
F3E0
F060
F060
F0C0
F0C0
F380
F300
F000
F000
F000
F000
F000
F000
F000
F000
F000
F000
F000
F000
F000
F000
F000
F000
F000
F000
F000
F000
F000
F000
ENDCHAR
STARTCHAR 013F
ENCODING 319
SWIDTH 562 0
DWIDTH 25 0
BBX 20 32 4 0
BITMAP
F00000
F00000
F00000
F00000
F00000
F00000
F00000
F00000
F00000
F00000
F00000
F00000
F00000
F00000
F01F00
F01F00
F01F00
F01F00
F01F00
F00000
F00000
F00000
F00000
F00000
F00000
F00000
F00000
F00000
FFFFF0
FFFFF0
FFFFF0
FFFFF0
ENDCHAR
STARTCHAR 0140
ENCODING 320
SWIDTH 337 0
DWIDTH 15 0
BBX 12 32 3 0
BITMAP
F000
F000
F000
F000
F000
F000
F000
F000
F000
F000
F000
F000
F000
F000
F1F0
F1F0
F1F0
F1F0
F1F0
F000
F000
F000
F000
F000
F000
F000
F000
F000
F000
F000
F000
F000
ENDCHAR
STARTCHAR 0141
ENCODING 321
SWIDTH 562 0
DWIDTH 25 0
BBX 25 32 0 0
BITMAP
0F000000
0F000000
0F000000
0F000000
0F000000
0F000000
0F000000
0F000000
0F000000
0F020000
0F060000
0F0E0000
0F3E0000
0F780000
0FF00000
0FE00000
1F800000
3F000000
FF000000
FF000000
CF000000
8F000000
0F000000
0F000000
0F000000
0F000000
0F000000
0F000000
0FFFFF80
0FFFFF80
0FFFFF80
0FFFFF80
ENDCHAR
STARTCHAR 0142
ENCODING 322
SWIDTH 225 0
DWIDTH 10 0
BBX 9 32 0 0
BITMAP
1C00
1C00
1C00
1C00
1C00
1C00
1C00
1C00
1C00
1C00
1C00
1C00
1C80
1D80
1F80
1F00
7C00
FC00
DC00
9C00
1C00
1C00
1C00
1C00
1C00
1C00
1C00
1C00
1C00
1C00
1C00
1C00
ENDCHAR
STARTCHAR 0143
ENCODING 323
SWIDTH 720 0
DWIDTH 32 0
BBX 26 41 3 0
BITMAP
0003E000
00078000
000F0000
000E0000
001C0000
00380000
00000000
00000000
00000000
F80003C0
FC0003C0
FC0003C0
FE0003C0
FF0003C0
FF0003C0
F78003C0
F7C003C0
F3C003C0
F3E003C0
F1F003C0
F0F003C0
F0F803C0
F07C03C0
F03C03C0
F03E03C0
F01F03C0
F00F03C0
F00F83C0
F00783C0
F003C3C0
F003E3C0
F001E3C0
F000F3C0
F000FBC0
F0007BC0
F0007FC0
F0003FC0
F0001FC0
F0001FC0
F0000FC0
F00007C0
ENDCHAR
STARTCHAR 0144
ENCODING 324
SWIDTH 562 0
DWIDTH 25 0
BBX 19 33 3 0
BITMAP
003E00
003C00
007800
007000
00E000
01C000
01C000
000000
000000
007E00
F1FF00
F7FF80
F70FC0
FC03C0
FC03E0
F801E0
F001E0
F001E0
F001E0
F001E0
F001E0
F001E0
F001E0
F001E0
F001E0
F001E0
F001E0
F001E0
F001E0
F001E0
F001E0
F001E0
F001E0
ENDCHAR
STARTCHAR 0145
ENCODING 325
SWIDTH 720 0
DWIDTH 32 0
BBX 26 44 3 -13
BITMAP
F80003C0
FC0003C0
FC0003C0
FE0003C0
FF0003C0
FF0003C0
F78003C0
F7C003C0
F3C003C0
F3E003C0
F1F003C0
F0F003C0
F0F803C0
F07C03C0
F03C03C0
F03E03C0
F01F03C0
F00F03C0
F00F83C0
F00783C0
F003C3C0
F003E3C0
F001E3C0
F000F3C0
F000FBC0
F0007BC0
F0007FC0
F0003FC0
F0001FC0
F0001FC0
F0000FC0
F00007C0
00000000
00000000
00000000
003E0000
003E0000
003E0000
003E0000
00060000
00060000
000C0000
001C0000
00380000
ENDCHAR
STARTCHAR 0146
ENCODING 326
SWIDTH 562 0
DWIDTH 25 0
BBX 19 36 3 -13
BITMAP
007E00
F1FF00
F7FF80
F70FC0
FC03C0
FC03E0
F801E0
F001E0
F001E0
F001E0
F001E0
F001E0
F001E0
F001E0
F001E0
F001E0
F001E0
F001E0
F001E0
F001E0
F001E0
F001E0
F001E0
F001E0
000000
000000
000000
01F000
01F000
01F000
01F000
003000
003000
006000
00E000
01C000
ENDCHAR
STARTCHAR 0147
ENCODING 327
SWIDTH 720 0
DWIDTH 32 0
BBX 26 41 3 0
BITMAP
01C0E000
00E1C000
00F3C000
007F8000
003F0000
003F0000
00000000
00000000
00000000
F80003C0
FC0003C0
FC0003C0
FE0003C0
FF0003C0
FF0003C0
F78003C0
F7C003C0
F3C003C0
F3E003C0
F1F003C0
F0F003C0
F0F803C0
F07C03C0
F03C03C0
F03E03C0
F01F03C0
F00F03C0
F00F83C0
F00783C0
F003C3C0
F003E3C0
F001E3C0
F000F3C0
F000FBC0
F0007BC0
F0007FC0
F0003FC0
F0001FC0
F0001FC0
F0000FC0
F00007C0
ENDCHAR
STARTCHAR 0148
ENCODING 328
SWIDTH 562 0
DWIDTH 25 0
BBX 19 33 3 0
BITMAP
1C0E00
0E0E00
071C00
07BC00
03F800
03F000
01F000
000000
000000
007E00
F1FF00
F7FF80
F70FC0
FC03C0
FC03E0
F801E0
F001E0
F001E0
F001E0
F001E0
F001E0
F001E0
F001E0
F001E0
F001E0
F001E0
F001E0
F001E0
F001E0
F001E0
F001E0
F001E0
F001E0
ENDCHAR
STARTCHAR 0149
ENCODING 329
SWIDTH 607 0
DWIDTH 27 0
BBX 24 34 0 0
BITMAP
F80000
F80000
F80000
F80000
180000
180000
180000
300000
F00000
E00000
0003F0
078FFC
079FFE
07BC7E
07F01F
07E00F
07C00F
07C00F
07800F
07800F
07800F
07800F
07800F
07800F
07800F
07800F
07800F
07800F
07800F
07800F
07800F
07800F
07800F
07800F
ENDCHAR
STARTCHAR 014A
ENCODING 330
SWIDTH 720 0
DWIDTH 32 0
BBX 24 46 4 -13
BITMAP
001FC0
F07FF0
F1FFFC
F3FFFE
F7807E
FF003F
FE001F
FC000F
F8000F
F8000F
F8000F
F8000F
F0000F
F0000F
F0000F
F0000F
F0000F
F0000F
F0000F
F0000F
F0000F
F0000F
F0000F
F0000F
F0000F
F0000F
F0000F
F0000F
F0000F
F0000F
F0000F
F0000F
F0000F
00000F
00000F
00000F
00000F
00000F
00000F
00000F
00000F
00001F
0003FF
0003FE
0003FC
0003F0
ENDCHAR
STARTCHAR 014B
ENCODING 331
SWIDTH 562 0
DWIDTH 25 0
BBX 19 34 3 -10
BITMAP
00FC00
F3FF00
F7FF80
FF8FC0
FE03C0
FC03E0
F801E0
F001E0
F001E0
F001E0
F001E0
F001E0
F001E0
F001E0
F001E0
F001E0
F001E0
F001E0
F001E0
F001E0
F001E0
F001E0
F001E0
F001E0
0001E0
0001E0
0001E0
0001E0
0001E0
0001E0
0003C0
001FC0
001F80
001F00
ENDCHAR
STARTCHAR 014C
ENCODING 332
SWIDTH 787 0
DWIDTH 35 0
BBX 31 41 2 -1
BITMAP
007FF800
007FF800
007FF800
00000000
00000000
00000000
00000000
001FF000
00FFFC00
01FFFF00
07FFFF80
0FE00FE0
1F8003E0
1F0001F0
3E0000F8
3C000078
7C00007C
7800003C
F800003C
F000003E
F000001E
F000001E
F000001E
F000001E
F000001E
F000001E
F000001E
F000001E
F000003E
F800003C
7800003C
7C00007C
7C000078
3E0000F8
1F0001F0
1F8003E0
0FE00FE0
07FFFF80
03FFFF00
00FFFC00
001FF000
ENDCHAR
STARTCHAR 014D
ENCODING 333
SWIDTH 562 0
DWIDTH 25 0
BBX 21 32 2 -1
BITMAP
0FFF00
0FFF00
0FFF00
000000
000000
000000
000000
01FC00
07FF00
1FFF80
3F9FC0
3E03E0
7C01E0
7801F0
F000F0
F000F0
F00070
F00078
F00078
E00078
F00078
F00078
F00070
F000F0
F000F0
7801F0
7C01E0
3E03E0
3F9FC0
1FFF80
0FFF00
01FC00
ENDCHAR
STARTCHAR 014E
ENCODING 334
SWIDTH 787 0
DWIDTH 35 0
BBX 31 42 2 -1
BITMAP
00601C00
00701C00
00783800
003FF800
003FF000
000FC000
00000000
00000000
001FF000
00FFFC00
01FFFF00
07FFFF80
0FE00FE0
1F8003E0
1F0001F0
3E0000F8
3C000078
7C00007C
7800003C
F800003C
F000003E
F000001E
F000001E
F000001E
F000001E
F000001E
F000001E
F000001E
F000001E
F000003E
F800003C
7800003C
7C00007C
7C000078
3E0000F8
1F0001F0
1F8003E0
0FE00FE0
07FFFF80
03FFFF00
00FFFC00
001FF000
ENDCHAR
STARTCHAR 014F
ENCODING 335
SWIDTH 562 0
DWIDTH 25 0
BBX 21 34 2 -1
BITMAP
1C0380
0E0380
0F0700
0FFF00
07FE00
01F800
000000
000000
000000
01FC00
07FF00
1FFF80
3F9FC0
3E03E0
7C01E0
7801F0
F000F0
F000F0
F00070
F00078
F00078
E00078
F00078
F00078
F00070
F000F0
F000F0
7801F0
7C01E0
3E03E0
3F9FC0
1FFF80
0FFF00
01FC00
ENDCHAR
STARTCHAR 0150
ENCODING 336
SWIDTH 787 0
DWIDTH 35 0
BBX 31 43 2 -1
BITMAP
0003E3E0
0007C7C0
00078F80
000F0F00
001E1E00
001C1C00
00383800
00000000
00000000
001FF000
00FFFC00
01FFFF00
07FFFF80
0FE00FE0
1F8003E0
1F0001F0
3E0000F8
3C000078
7C00007C
7800003C
F800003C
F000003E
F000001E
F000001E
F000001E
F000001E
F000001E
F000001E
F000001E
F000001E
F000003E
F800003C
7800003C
7C00007C
7C000078
3E0000F8
1F0001F0
1F8003E0
0FE00FE0
07FFFF80
03FFFF00
00FFFC00
001FF000
ENDCHAR
STARTCHAR 0151
ENCODING 337
SWIDTH 562 0
DWIDTH 25 0
BBX 21 34 2 -1
BITMAP
00F8F8
00F1F0
01E1E0
03C3C0
038780
070700
0E0E00
000000
000000
01FC00
07FF00
1FFF80
3F9FC0
3E03E0
7C01E0
7801F0
F000F0
F000F0
F00070
F00078
F00078
E00078
F00078
F00078
F00070
F000F0
F000F0
7801F0
7C01E0
3E03E0
3F9FC0
1FFF80
0FFF00
01FC00
ENDCHAR
STARTCHAR 0152
ENCODING 338
SWIDTH 990 0
DWIDTH 44 0
BBX 41 34 2 -1
BITMAP
003F80000000
01FFE7FFFF00
03FFF7FFFF00
0FFFFFFFFF00
0F807FFFFF00
1F001F800000
3E000F800000
3C000F800000
7C0007800000
780007800000
780007800000
F80007800000
F00007800000
F00007800000
F00007800000
F00007FFFF00
F00007FFFF00
F00007FFFF00
F00007FFFF00
F00007800000
F00007800000
F00007800000
F80007800000
780007800000
780007800000
7C0007800000
3C0007800000
3E000F800000
1F001F800000
1F807FFFFF80
0FFFFFFFFF80
07FFF7FFFF80
01FFE7FFFF80
007F80000000
ENDCHAR
STARTCHAR 0153
ENCODING 339
SWIDTH 945 0
DWIDTH 42 0
BBX 38 25 2 -1
BITMAP
01FC00FE00
07FF03FF80
1FFF87FFC0
3FDFCFEFE0
3E03FF01F0
7C01FE00F8
7800FC0078
F800FC0078
F000F8003C
F00078003C
F00078003C
F0007FFFFC
F0007FFFFC
F0007FFFFC
F000780000
F000780000
F000780000
F000F80038
7800FC0078
7C01FE0078
3E03FF01F0
3FDFCFEFF0
1FFF87FFE0
0FFF03FF80
01FC00FE00
ENDCHAR
STARTCHAR 0154
ENCODING 340
SWIDTH 720 0
DWIDTH 32 0
BBX 26 41 4 0
BITMAP
000FC000
000F0000
001E0000
001C0000
00380000
00700000
00000000
00000000
00000000
FFFFE000
FFFFF800
FFFFFE00
FFFFFF00
F0003F00
F0000F80
F0000F80
F0000F80
F0000780
F0000780
F0000780
F0000F00
F0000F00
F0001E00
FFFFFC00
FFFFF800
FFFFF800
FFFFFC00
F0003E00
F0001F00
F0000F00
F0000F00
F0000F00
F0000F00
F0000F00
F0000F00
F0000F00
F0000F00
F0000F80
F0000F80
F00007C0
F00007C0
ENDCHAR
STARTCHAR 0155
ENCODING 341
SWIDTH 337 0
DWIDTH 15 0
BBX 11 33 3 0
BITMAP
03E0
03C0
0780
0F00
0E00
1C00
1800
0000
0000
00E0
E3E0
E7E0
EFE0
EF00
FC00
F800
F800
F000
F000
F000
F000
F000
F000
F000
F000
F000
F000
F000
F000
F000
F000
F000
F000
ENDCHAR
STARTCHAR 0156
ENCODING 342
SWIDTH 720 0
DWIDTH 32 0
BBX 26 44 4 -13
BITMAP
FFFFE000
FFFFF800
FFFFFE00
FFFFFF00
F0003F00
F0000F80
F0000F80
F0000F80
F0000780
F0000780
F0000780
F0000F00
F0000F00
F0001E00
FFFFFC00
FFFFF800
FFFFF800
FFFFFC00
F0003E00
F0001F00
F0000F00
F0000F00
F0000F00
F0000F00
F0000F00
F0000F00
F0000F00
F0000F00
F0000F80
F0000F80
F00007C0
F00007C0
00000000
00000000
00000000
003E0000
003E0000
003E0000
003E0000
00060000
00060000
000C0000
001C0000
00380000
ENDCHAR
STARTCHAR 0157
ENCODING 343
SWIDTH 337 0
DWIDTH 15 0
BBX 11 36 3 -13
BITMAP
00E0
E3E0
E7E0
EFE0
EF00
FC00
F800
F800
F000
F000
F000
F000
F000
F000
F000
F000
F000
F000
F000
F000
F000
F000
F000
F000
0000
0000
0000
F000
F000
F000
F000
3000
3000
3000
7000
E000
ENDCHAR
STARTCHAR 0158
ENCODING 344
SWIDTH 720 0
DWIDTH 32 0
BBX 26 41 4 0
BITMAP
0381C000
01C38000
01E70000
00EF0000
007E0000
007C0000
00000000
00000000
00000000
FFFFE000
FFFFF800
FFFFFE00
FFFFFF00
F0003F00
F0000F80
F0000F80
F0000F80
F0000780
F0000780
F0000780
F0000F00
F0000F00
F0001E00
FFFFFC00
FFFFF800
FFFFF800
FFFFFC00
F0003E00
F0001F00
F0000F00
F0000F00
F0000F00
F0000F00
F0000F00
F0000F00
F0000F00
F0000F00
F0000F80
F0000F80
F00007C0
F00007C0
ENDCHAR
STARTCHAR 0159
ENCODING 345
SWIDTH 337 0
DWIDTH 15 0
BBX 13 33 2 0
BITMAP
E038
7070
38E0
3DE0
1FC0
0F80
0F80
0000
0000
0070
71F0
73F0
77F0
7780
7E00
7C00
7C00
7800
7800
7800
7800
7800
7800
7800
7800
7800
7800
7800
7800
7800
7800
7800
7800
ENDCHAR
STARTCHAR 015A
ENCODING 346
SWIDTH 675 0
DWIDTH 30 0
BBX 26 43 2 -1
BITMAP
0003E000
0007C000
00078000
000F0000
001E0000
001C0000
00380000
00000000
00000000
007F8000
03FFF000
0FFFF800
1FF7FC00
1F007E00
3E001F00
3C000F00
78000F00
78000F00
78000700
7C000000
7C000000
3E000000
3FC00000
1FF80000
0FFF8000
03FFF000
007FFC00
0007FE00
0000FF00
00001F80
00000F80
00000780
F00007C0
F00007C0
F8000780
78000780
7C000780
7E000F00
3F003F00
1FFFFE00
0FFFFC00
03FFF000
00FF8000
ENDCHAR
STARTCHAR 015B
ENCODING 347
SWIDTH 495 0
DWIDTH 22 0
BBX 18 34 2 -1
BITMAP
003E00
007C00
007800
00F000
01E000
01C000
038000
000000
000000
07F800
1FFE00
3FFF00
7F7F80
780F80
F00780
F00780
F00000
F80000
FC0000
7F8000
3FF800
1FFF00
03FF80
003FC0
0007C0
0003C0
F003C0
F003C0
F003C0
F807C0
7FBF80
7FFF00
1FFE00
07F800
ENDCHAR
STARTCHAR 015C
ENCODING 348
SWIDTH 675 0
DWIDTH 30 0
BBX 26 43 2 -1
BITMAP
003E0000
003F0000
007F0000
00F78000
00E3C000
01C1C000
0380E000
00000000
00000000
007F8000
03FFF000
0FFFF800
1FF7FC00
1F007E00
3E001F00
3C000F00
78000F00
78000F00
78000700
7C000000
7C000000
3E000000
3FC00000
1FF80000
0FFF8000
03FFF000
007FFC00
0007FE00
0000FF00
00001F80
00000F80
00000780
F00007C0
F00007C0
F8000780
78000780
7C000780
7E000F00
3F003F00
1FFFFE00
0FFFFC00
03FFF000
00FF8000
ENDCHAR
STARTCHAR 015D
ENCODING 349
SWIDTH 495 0
DWIDTH 22 0
BBX 18 34 2 -1
BITMAP
01F000
03F000
07F800
073800
0E1C00
1E0E00
1C0E00
000000
000000
07F800
1FFE00
3FFF00
7F7F80
780F80
F00780
F00780
F00000
F80000
FC0000
7F8000
3FF800
1FFF00
03FF80
003FC0
0007C0
0003C0
F003C0
F003C0
F003C0
F807C0
7FBF80
7FFF00
1FFE00
07F800
ENDCHAR
STARTCHAR 015E
ENCODING 350
SWIDTH 675 0
DWIDTH 30 0
BBX 26 43 2 -10
BITMAP
007F8000
03FFF000
0FFFF800
1FF7FC00
1F007E00
3E001F00
3C000F00
7C000F00
78000780
78000780
7C000000
7C000000
3F000000
3FC00000
1FFC0000
0FFF8000
03FFF800
007FFC00
0007FF00
00007F00
00001F80
00000F80
000007C0
F00007C0
F00003C0
780003C0
78000780
7C000780
3E000F80
3F003F00
1FFFFE00
0FFFFC00
03FFF800
007FC000
00180000
001E0000
003F8000
00078000
00038000
00038000
03878000
03FF0000
007C0000
ENDCHAR
STARTCHAR 015F
ENCODING 351
SWIDTH 495 0
DWIDTH 22 0
BBX 18 34 2 -10
BITMAP
07F800
1FFE00
3FFF00
7F7F80
780F80
F00780
F00780
F00000
F80000
FC0000
7F8000
3FF800
1FFF00
03FF80
003FC0
0007C0
0003C0
F003C0
F003C0
F003C0
F807C0
7FBF80
7FFF00
1FFE00
07F800
018000
03E000
03F000
007800
003800
003800
387000
3FF000
07C000
ENDCHAR
STARTCHAR 0160
ENCODING 352
SWIDTH 675 0
DWIDTH 30 0
BBX 26 43 2 -1
BITMAP
01C0E000
01C1C000
00E3C000
00738000
007F0000
003F0000
003E0000
00000000
00000000
007F8000
03FFF000
0FFFF800
1FF7FC00
1F007E00
3E001F00
3C000F00
78000F00
78000F00
78000700
7C000000
7C000000
3E000000
3FC00000
1FF80000
0FFF8000
03FFF000
007FFC00
0007FE00
0000FF00
00001F80
00000F80
00000780
F00007C0
F00007C0
F8000780
78000780
7C000780
7E000F00
3F003F00
1FFFFE00
0FFFFC00
03FFF000
00FF8000
ENDCHAR
STARTCHAR 0161
ENCODING 353
SWIDTH 495 0
DWIDTH 22 0
BBX 18 34 2 -1
BITMAP
1C0E00
1E1C00
0E3C00
073800
07F000
03F000
01E000
000000
000000
07F800
1FFE00
3FFF00
7F7F80
780F80
F00780
F00780
F00000
F80000
FC0000
7F8000
3FF800
1FFF00
03FF80
003FC0
0007C0
0003C0
F003C0
F003C0
F003C0
F807C0
7FBF80
7FFF00
1FFE00
07F800
ENDCHAR
STARTCHAR 0162
ENCODING 354
SWIDTH 607 0
DWIDTH 27 0
BBX 25 42 1 -10
BITMAP
FFFFFF80
FFFFFF80
FFFFFF80
FFFFFF80
001E0000
001E0000
001E0000
001E0000
001E0000
001E0000
001E0000
001E0000
001E0000
001E0000
001E0000
001E0000
001E0000
001E0000
001E0000
001E0000
001E0000
001E0000
001E0000
001E0000
001E0000
001E0000
001E0000
001E0000
001E0000
001E0000
001E0000
001E0000
000C0000
000C0000
00080000
001F8000
0013C000
0001C000
0001C000
00C3C000
00FF8000
003E0000
ENDCHAR
STARTCHAR 0163
ENCODING 355
SWIDTH 270 0
DWIDTH 12 0
BBX 10 39 1 -10
BITMAP
1C00
1C00
1C00
1C00
1C00
1C00
FFC0
FFC0
FFC0
1C00
1C00
1C00
1C00
1C00
1C00
1C00
1C00
1C00
1C00
1C00
1C00
1C00
1C00
1C00
1C00
1E00
1F00
1FC0
1FC0
07C0
0C00
0E00
1FC0
03C0
01C0
01C0
E3C0
FF80
3E00
ENDCHAR
STARTCHAR 0164
ENCODING 356
SWIDTH 607 0
DWIDTH 27 0
BBX 25 41 1 0
BITMAP
01C1E000
01E1C000
00E38000
00778000
007F0000
003E0000
00000000
00000000
00000000
FFFFFF80
FFFFFF80
FFFFFF80
FFFFFF80
001E0000
001E0000
001E0000
001E0000
001E0000
001E0000
001E0000
001E0000
001E0000
001E0000
001E0000
001E0000
001E0000
001E0000
001E0000
001E0000
001E0000
001E0000
001E0000
001E0000
001E0000
001E0000
001E0000
001E0000
001E0000
001E0000
001E0000
001E0000
ENDCHAR
STARTCHAR 0165
ENCODING 357
SWIDTH 315 0
DWIDTH 14 0
BBX 13 36 1 -1
BITMAP
0078
0078
0078
0078
0018
1C18
1C18
1C30
1C70
1C40
1C00
1C00
FFC0
FFC0
FFC0
1C00
1C00
1C00
1C00
1C00
1C00
1C00
1C00
1C00
1C00
1C00
1C00
1C00
1C00
1C00
1C00
1E00
1F00
1FC0
1FC0
07C0
ENDCHAR
STARTCHAR 0166
ENCODING 358
SWIDTH 607 0
DWIDTH 27 0
BBX 25 32 1 0
BITMAP
FFFFFF80
FFFFFF80
FFFFFF80
FFFFFF80
001E0000
001E0000
001E0000
001E0000
001E0000
001E0000
001E0000
1FFFFC00
1FFFFC00
1FFFFC00
001E0000
001E0000
001E0000
001E0000
001E0000
001E0000
001E0000
001E0000
001E0000
001E0000
001E0000
001E0000
001E0000
001E0000
001E0000
001E0000
001E0000
001E0000
ENDCHAR
STARTCHAR 0167
ENCODING 359
SWIDTH 270 0
DWIDTH 12 0
BBX 10 30 1 -1
BITMAP
1C00
1C00
1C00
1C00
1C00
1C00
FFC0
FFC0
FFC0
1C00
1C00
1C00
1C00
FFC0
FFC0
1C00
1C00
1C00
1C00
1C00
1C00
1C00
1C00
1C00
1C00
1E00
1F00
1FC0
1FC0
07C0
ENDCHAR
STARTCHAR 0168
ENCODING 360
SWIDTH 720 0
DWIDTH 32 0
BBX 25 41 4 -1
BITMAP
01F0E000
03FFE000
07FFC000
071F8000
06000000
00000000
00000000
00000000
F0000780
F0000780
F0000780
F0000780
F0000780
F0000780
F0000780
F0000780
F0000780
F0000780
F0000780
F0000780
F0000780
F0000780
F0000780
F0000780
F0000780
F0000780
F0000780
F0000780
F0000780
F0000780
F0000780
F0000F80
F0000F00
F0000F00
F8001F00
7C003E00
3F007E00
3FFFFC00
0FFFF800
07FFE000
00FF0000
ENDCHAR
STARTCHAR 0169
ENCODING 361
SWIDTH 562 0
DWIDTH 25 0
BBX 18 34 3 -1
BITMAP
0F0700
1FC700
1FFE00
38FE00
383C00
000000
000000
000000
000000
000000
F001C0
F001C0
F001C0
F001C0
F001C0
F001C0
F001C0
F001C0
F001C0
F001C0
F001C0
F001C0
F001C0
F001C0
F001C0
F001C0
F003C0
F003C0
F007C0
F80FC0
7E3DC0
7FFDC0
3FF1C0
0FE000
ENDCHAR
STARTCHAR 016A
ENCODING 362
SWIDTH 720 0
DWIDTH 32 0
BBX 25 41 4 -1
BITMAP
03FFC000
03FFC000
03FFC000
00000000
00000000
00000000
00000000
00000000
F0000780
F0000780
F0000780
F0000780
F0000780
F0000780
F0000780
F0000780
F0000780
F0000780
F0000780
F0000780
F0000780
F0000780
F0000780
F0000780
F0000780
F0000780
F0000780
F0000780
F0000780
F0000780
F0000780
F0000F80
F0000F00
F0000F00
F8001F00
7C003E00
3F007E00
3FFFFC00
0FFFF800
07FFE000
00FF0000
ENDCHAR
STARTCHAR 016B
ENCODING 363
SWIDTH 562 0
DWIDTH 25 0
BBX 18 32 3 -1
BITMAP
1FFE00
1FFE00
1FFE00
000000
000000
000000
000000
000000
F001C0
F001C0
F001C0
F001C0
F001C0
F001C0
F001C0
F001C0
F001C0
F001C0
F001C0
F001C0
F001C0
F001C0
F001C0
F001C0
F003C0
F003C0
F007C0
F80FC0
7E3FC0
7FFDC0
3FF1C0
0FE000
ENDCHAR
STARTCHAR 016C
ENCODING 364
SWIDTH 720 0
DWIDTH 32 0
BBX 25 42 4 -1
BITMAP
0700E000
0700C000
03C3C000
03FFC000
01FF8000
007E0000
00000000
00000000
00000000
F0000780
F0000780
F0000780
F0000780
F0000780
F0000780
F0000780
F0000780
F0000780
F0000780
F0000780
F0000780
F0000780
F0000780
F0000780
F0000780
F0000780
F0000780
F0000780
F0000780
F0000780
F0000780
F0000780
F0000F80
F0000F00
F0000F00
F8001F00
7C003E00
3F007E00
3FFFFC00
0FFFF800
07FFE000
00FF0000
ENDCHAR
STARTCHAR 016D
ENCODING 365
SWIDTH 562 0
DWIDTH 25 0
BBX 18 34 3 -1
BITMAP
180700
1C0700
1E0E00
0FFE00
0FFC00
03F000
000000
000000
000000
000000
F001C0
F001C0
F001C0
F001C0
F001C0
F001C0
F001C0
F001C0
F001C0
F001C0
F001C0
F001C0
F001C0
F001C0
F001C0
F001C0
F003C0
F003C0
F007C0
F80FC0
7E3FC0
7FFDC0
3FF1C0
0FE000
ENDCHAR
STARTCHAR 016E
ENCODING 366
SWIDTH 720 0
DWIDTH 32 0
BBX 25 43 4 -1
BITMAP
003C0000
007E0000
00670000
00C30000
00C30000
00670000
007E0000
003C0000
00000000
00000000
F0000780
F0000780
F0000780
F0000780
F0000780
F0000780
F0000780
F0000780
F0000780
F0000780
F0000780
F0000780
F0000780
F0000780
F0000780
F0000780
F0000780
F0000780
F0000780
F0000780
F0000780
F0000780
F0000780
F0000F80
F0000F00
F0000F00
F8001F00
7C003E00
3F007E00
3FFFFC00
0FFFF800
07FFE000
00FF0000
ENDCHAR
STARTCHAR 016F
ENCODING 367
SWIDTH 562 0
DWIDTH 25 0
BBX 18 34 3 -1
BITMAP
01E000
03F000
033800
061800
061800
033800
03F000
01E000
000000
000000
F001C0
F001C0
F001C0
F001C0
F001C0
F001C0
F001C0
F001C0
F001C0
F001C0
F001C0
F001C0
F001C0
F001C0
F001C0
F001C0
F003C0
F003C0
F007C0
F80FC0
7E3FC0
7FFDC0
3FF9C0
0FE000
ENDCHAR
STARTCHAR 0170
ENCODING 368
SWIDTH 720 0
DWIDTH 32 0
BBX 25 42 4 -1
BITMAP
003E3E00
007C7C00
00787800
00F0F000
00E1E000
01C1C000
00000000
00000000
00000000
F0000780
F0000780
F0000780
F0000780
F0000780
F0000780
F0000780
F0000780
F0000780
F0000780
F0000780
F0000780
F0000780
F0000780
F0000780
F0000780
F0000780
F0000780
F0000780
F0000780
F0000780
F0000780
F0000780
F0000F80
F0000F00
F0000F00
F8001F00
7C003E00
3F007E00
3FFFFC00
0FFFF800
07FFE000
00FF0000
ENDCHAR
STARTCHAR 0171
ENCODING 369
SWIDTH 562 0
DWIDTH 25 0
BBX 20 34 3 -1
BITMAP
01F1F0
01E1E0
03C3C0
038780
070700
0E0E00
0C1C00
000000
000000
000000
F001C0
F001C0
F001C0
F001C0
F001C0
F001C0
F001C0
F001C0
F001C0
F001C0
F001C0
F001C0
F001C0
F001C0
F001C0
F001C0
F003C0
F003C0
F007C0
F80FC0
7E3FC0
7FFDC0
3FF1C0
0FE000
ENDCHAR
STARTCHAR 0172
ENCODING 370
SWIDTH 720 0
DWIDTH 32 0
BBX 25 41 4 -9
BITMAP
F0000780
F0000780
F0000780
F0000780
F0000780
F0000780
F0000780
F0000780
F0000780
F0000780
F0000780
F0000780
F0000780
F0000780
F0000780
F0000780
F0000780
F0000780
F0000780
F0000780
F0000780
F0000780
F0000780
F0000F80
F0000F00
F0000F00
F8001F00
7C003E00
3F007E00
3FFFFC00
0FFFF800
07FFF000
00FF6000
0001C000
00038000
00038000
00038000
00038000
0003C000
0001FE00
00007E00
ENDCHAR
STARTCHAR 0173
ENCODING 371
SWIDTH 562 0
DWIDTH 25 0
BBX 20 32 3 -9
BITMAP
F001C0
F001C0
F001C0
F001C0
F001C0
F001C0
F001C0
F001C0
F001C0
F001C0
F001C0
F001C0
F001C0
F001C0
F001C0
F003C0
F003C0
F003C0
F007C0
F80FC0
7E3FC0
7FFDC0
3FF1C0
0FE1C0
000380
000700
000E00
000E00
000E00
000F00
0007F0
0001F0
ENDCHAR
STARTCHAR 0174
ENCODING 372
SWIDTH 945 0
DWIDTH 42 0
BBX 40 41 1 0
BITMAP
00007C0000
00007E0000
0000EF0000
0001E70000
0001C38000
000381C000
0000000000
0000000000
0000000000
F8003C000F
F8007E001F
78007E001F
78007E001E
7C007F001E
7C00FF003E
3C00FF003E
3C00F7003C
3E00E7803C
3E01E7807C
1E01E7807C
1E01C3C078
1F03C3C078
1F03C3C078
0F03C1C0F8
0F0381E0F0
0F0781E0F0
0F8781E0F0
078780F1F0
078F00F1E0
078F00F1E0
03CF0071E0
03CE0079C0
03DE007BC0
03DE007BC0
01FE003FC0
01FC003F80
01FC003F80
01FC001F80
00FC001F80
00F8001F00
00F8001F00
ENDCHAR
STARTCHAR 0175
ENCODING 373
SWIDTH 720 0
DWIDTH 32 0
BBX 31 33 0 0
BITMAP
0007C000
0007E000
000FE000
000E7000
001C7800
00383800
00381C00
00000000
00000000
00000000
F007C01E
7807C01E
7807E01E
7807E03C
3C0FE03C
3C0FE03C
3C0EF03C
3C0EF078
1E1E7078
1E1E7878
1E1C7870
0E1C78F0
0F3C38F0
0F3C3CE0
0F383CE0
07383DE0
07F81DE0
07F81FC0
03F01FC0
03F01FC0
03F00F80
01F00F80
01E00F80
ENDCHAR
STARTCHAR 0176
ENCODING 374
SWIDTH 675 0
DWIDTH 30 0
BBX 28 41 1 0
BITMAP
000F8000
001FC000
003DC000
0039E000
0070F000
00E07000
00000000
00000000
00000000
F80001F0
7C0001E0
7C0003E0
3E0007C0
3E0007C0
1F000F80
0F800F00
0F801F00
07C03E00
03C03C00
03E07C00
01F07800
00F0F800
00F9F000
007DE000
003FE000
003FC000
001F8000
001F8000
000F0000
000F0000
000F0000
000F0000
000F0000
000F0000
000F0000
000F0000
000F0000
000F0000
000F0000
000F0000
000F0000
ENDCHAR
STARTCHAR 0177
ENCODING 375
SWIDTH 495 0
DWIDTH 22 0
BBX 20 43 1 -10
BITMAP
00F800
01F800
03FC00
039C00
070E00
070700
0E0700
000000
000000
000000
F000F0
F000F0
7801E0
7801E0
7801E0
3C03C0
3C03C0
3C0380
1E0780
1E0780
1E0F00
0F0F00
0F0F00
0F1E00
079E00
079C00
07BC00
03FC00
03F800
01F800
01F800
01F000
00F000
00F000
01E000
01E000
03C000
03C000
07C000
7F8000
7F0000
7E0000
180000
ENDCHAR
STARTCHAR 0178
ENCODING 376
SWIDTH 675 0
DWIDTH 30 0
BBX 28 40 1 0
BITMAP
00F9F000
00F9F000
00F9F000
00F9F000
00F9F000
00000000
00000000
00000000
F80001F0
7C0001E0
7C0003E0
3E0007C0
3E0007C0
1F000F80
0F800F00
0F801F00
07C03E00
03C03C00
03E07C00
01F07800
00F0F800
00F9F000
007DE000
003FE000
003FC000
001F8000
001F8000
000F0000
000F0000
000F0000
000F0000
000F0000
000F0000
000F0000
000F0000
000F0000
000F0000
000F0000
000F0000
000F0000
ENDCHAR
STARTCHAR 0179
ENCODING 377
SWIDTH 607 0
DWIDTH 27 0
BBX 25 41 1 0
BITMAP
0003E000
0007C000
00078000
000F0000
001E0000
001C0000
00000000
00000000
00000000
7FFFFF80
7FFFFF80
7FFFFF80
7FFFFF80
00001F00
00003E00
00007E00
00007C00
0000F800
0001F000
0003E000
0003E000
0007C000
000F8000
001F0000
003F0000
003E0000
007C0000
00F80000
01F00000
03F00000
03E00000
07C00000
0F800000
1F000000
3F000000
3E000000
7C000000
FFFFFF80
FFFFFF80
FFFFFF80
FFFFFF80
ENDCHAR
STARTCHAR 017A
ENCODING 378
SWIDTH 495 0
DWIDTH 22 0
BBX 19 33 1 0
BITMAP
001F00
003E00
003C00
007800
007000
00E000
01C000
000000
000000
000000
7FFFE0
7FFFE0
7FFFE0
0003C0
0007C0
000F80
000F00
001E00
003C00
007800
00F800
01F000
03E000
03C000
078000
0F0000
1F0000
3E0000
7C0000
780000
FFFFE0
FFFFE0
FFFFE0
ENDCHAR
STARTCHAR 017B
ENCODING 379
SWIDTH 607 0
DWIDTH 27 0
BBX 25 40 1 0
BITMAP
001E0000
001E0000
001E0000
001E0000
001E0000
00000000
00000000
00000000
7FFFFF80
7FFFFF80
7FFFFF80
7FFFFF80
00001F00
00003E00
00007E00
00007C00
0000F800
0001F000
0003E000
0003E000
0007C000
000F8000
001F0000
003F0000
003E0000
007C0000
00F80000
01F00000
03F00000
03E00000
07C00000
0F800000
1F000000
3F000000
3E000000
7C000000
FFFFFF80
FFFFFF80
FFFFFF80
FFFFFF80
ENDCHAR
STARTCHAR 017C
ENCODING 380
SWIDTH 495 0
DWIDTH 22 0
BBX 19 33 1 0
BITMAP
00F000
00F000
00F000
00F000
00F000
000000
000000
000000
000000
000000
7FFFE0
7FFFE0
7FFFE0
0003C0
0007C0
000F80
000F00
001E00
003C00
007800
00F800
01F000
03E000
03C000
078000
0F0000
1F0000
3E0000
7C0000
780000
FFFFE0
FFFFE0
FFFFE0
ENDCHAR
STARTCHAR 017D
ENCODING 381
SWIDTH 607 0
DWIDTH 27 0
BBX 25 41 1 0
BITMAP
01C0E000
00E1C000
0073C000
007F8000
003F0000
001F0000
00000000
00000000
00000000
7FFFFF80
7FFFFF80
7FFFFF80
7FFFFF80
00001F00
00003E00
00007E00
00007C00
0000F800
0001F000
0003E000
0003E000
0007C000
000F8000
001F0000
003F0000
003E0000
007C0000
00F80000
01F00000
03F00000
03E00000
07C00000
0F800000
1F000000
3F000000
3E000000
7C000000
FFFFFF80
FFFFFF80
FFFFFF80
FFFFFF80
ENDCHAR
STARTCHAR 017E
ENCODING 382
SWIDTH 495 0
DWIDTH 22 0
BBX 19 33 1 0
BITMAP
0E0700
070F00
078E00
039C00
01FC00
01F800
00F000
000000
000000
000000
7FFFE0
7FFFE0
7FFFE0
0003C0
0007C0
000F80
000F00
001E00
003C00
007800
00F800
01F000
03E000
03C000
078000
0F0000
1F0000
3E0000
7C0000
780000
FFFFE0
FFFFE0
FFFFE0
ENDCHAR
STARTCHAR 017F
ENCODING 383
SWIDTH 225 0
DWIDTH 10 0
BBX 10 33 0 0
BITMAP
03C0
0FC0
1FC0
1F00
1E00
1C00
1C00
1C00
1C00
1C00
FC00
FC00
FC00
1C00
1C00
1C00
1C00
1C00
1C00
1C00
1C00
1C00
1C00
1C00
1C00
1C00
1C00
1C00
1C00
1C00
1C00
1C00
1C00
ENDCHAR
STARTCHAR 0192
ENCODING 402
SWIDTH 562 0
DWIDTH 25 0
BBX 23 42 1 -9
BITMAP
00007C
0001FE
0003FC
0007FC
000780
000F00
000F00
000F00
000E00
001E00
001E00
001E00
07FFF0
07FFF0
07FFF0
003C00
003C00
003C00
003C00
007800
007800
007800
007800
007800
007000
00F000
00F000
00F000
00F000
00E000
01E000
01E000
01E000
01E000
01E000
03C000
03C000
07C000
8F8000
FF0000
FE0000
FC0000
ENDCHAR
STARTCHAR 01FA
ENCODING 506
SWIDTH 675 0
DWIDTH 30 0
BBX 28 47 1 0
BITMAP
001F0000
003C0000
00780000
00700000
00E00000
00CF0000
001F8000
0039C000
0030C000
0030C000
00398000
001F8000
000F0000
00000000
00000000
001F8000
001F8000
003FC000
003FC000
003FC000
007FE000
0079E000
0079E000
00F1F000
00F0F000
00F0F000
01E0F800
01E07800
03E07800
03C07C00
03C03C00
07C03E00
07803E00
07801E00
0FFFFF00
0FFFFF00
0FFFFF00
1F000F80
1E000F80
3E000780
3C0007C0
3C0007C0
7C0003C0
780003E0
780001E0
F80001E0
F00001F0
ENDCHAR
STARTCHAR 01FB
ENCODING 507
SWIDTH 562 0
DWIDTH 25 0
BBX 22 41 2 -1
BITMAP
00F800
01E000
01C000
038000
070000
060000
007000
01F800
018C00
018C00
018C00
018C00
01F800
00F000
000000
000000
03FC00
0FFF80
1FFFC0
3F9FC0
7C03E0
7801E0
7801E0
7801E0
0001E0
0001E0
001FE0
07FFE0
1FFFE0
3FE1E0
7C01E0
F801E0
F001E0
F001E0
F001E0
F003E0
F807E0
7C3FF0
7FFCFC
3FF8FC
0FE07C
ENDCHAR
STARTCHAR 01FC
ENCODING 508
SWIDTH 990 0
DWIDTH 44 0
BBX 41 41 1 0
BITMAP
0000003E0000
000000780000
000000F00000
000000E00000
000001C00000
000003800000
000000000000
000000000000
000000000000
0007FFFFFF00
000FFFFFFF00
000FFFFFFF00
001FFFFFFF00
001E0F000000
003E0F000000
003C0F000000
003C0F000000
00780F000000
00780F000000
00F80F000000
00F00F000000
00F00F000000
01E00F000000
01E00FFFFF00
03E00FFFFF00
03C00FFFFF00
03C00FFFFF00
07800F000000
07FFFF000000
0FFFFF000000
0FFFFF000000
1FFFFF000000
1E000F000000
1E000F000000
3E000F000000
3C000F000000
7C000F000000
78000FFFFF80
78000FFFFF80
F8000FFFFF80
F0000FFFFF80
ENDCHAR
STARTCHAR 01FD
ENCODING 509
SWIDTH 900 0
DWIDTH 40 0
BBX 36 34 2 -1
BITMAP
00003E0000
00003C0000
0000780000
0000F00000
0000E00000
0001C00000
0001800000
0000000000
0000000000
03FC03F800
0FFF0FFE00
3FFF9FFF00
3FBFBF3F80
7C03FC07C0
7801F803C0
7801F003E0
7001E001E0
0001E001E0
0001E001E0
0007E000E0
01FFFFFFE0
1FFFFFFFF0
3FF9FFFFF0
7E01C00000
F801E00000
F001E00000
E001E001E0
E003F001E0
F003F003C0
F00F7807C0
FC3E7F3F80
7FFC3FFF00
3FF00FFE00
0FC003F800
ENDCHAR
STARTCHAR 01FE
ENCODING 510
SWIDTH 787 0
DWIDTH 35 0
BBX 31 43 2 -1
BITMAP
0001F000
0001E000
0003C000
00078000
00070000
000E0000
001C0000
00000000
00000000
001FF00E
00FFFC1E
01FFFF3C
07FFFFB8
0FE00FF0
1F8007E0
1F0001F0
3E0003F8
7C0007F8
78000E7C
78001C7C
F800383C
F000783C
F000F03E
F001E01E
F001C01E
F003801E
F007001E
F00E001E
F01C001E
F038003E
F070003C
F8E0003C
79C0003C
7B80007C
7F800078
3F0000F8
3F0001F0
1F8003E0
3FE00FC0
77FFFF80
E3FFFF00
C0FFFC00
001FE000
ENDCHAR
STARTCHAR 01FF
ENCODING 511
SWIDTH 607 0
DWIDTH 27 0
BBX 22 35 1 -1
BITMAP
000F80
001F00
003E00
003C00
007800
007000
00E000
000000
000000
000000
00FE04
03FF8C
0FFFD8
1FCFF8
1F01F0
3E00F0
3C01F8
7803F8
780378
78063C
780C3C
78183C
70383C
78703C
78E03C
79C038
7B8078
7B0078
3E00F8
3C00F0
1F01F0
3FCFE0
7FFFC0
E7FF80
C0FE00
ENDCHAR
STARTCHAR 0218
ENCODING 536
SWIDTH 675 0
DWIDTH 30 0
BBX 26 45 2 -13
BITMAP
007F8000
03FFF000
0FFFF800
1FF7FC00
1F007E00
3E001F00
3C000F00
78000F00
78000F00
78000700
7C000000
7C000000
3E000000
3FC00000
1FF80000
0FFF8000
03FFF000
007FFC00
0007FE00
0000FF00
00001F80
00000F80
00000780
F00007C0
F00007C0
F8000780
78000780
7C000780
7E000F00
3F003F00
1FFFFE00
0FFFFC00
03FFF000
00FF8000
00000000
00000000
001E0000
001E0000
001E0000
001E0000
00060000
00060000
00060000
000E0000
001C0000
ENDCHAR
STARTCHAR 0219
ENCODING 537
SWIDTH 495 0
DWIDTH 22 0
BBX 18 36 2 -13
BITMAP
07F800
1FFE00
3FFF00
7F7F80
780F80
F00780
F00780
F00000
F80000
FC0000
7F8000
3FF800
1FFF00
03FF80
003FC0
0007C0
0003C0
F003C0
F003C0
F003C0
F807C0
7FBF80
7FFF00
1FFE00
07F800
000000
000000
01E000
01E000
01E000
01E000
006000
006000
006000
00C000
01C000
ENDCHAR
STARTCHAR 021A
ENCODING 538
SWIDTH 607 0
DWIDTH 27 0
BBX 25 44 1 -13
BITMAP
FFFFFF80
FFFFFF80
FFFFFF80
FFFFFF80
001E0000
001E0000
001E0000
001E0000
001E0000
001E0000
001E0000
001E0000
001E0000
001E0000
001E0000
001E0000
001E0000
001E0000
001E0000
001E0000
001E0000
001E0000
001E0000
001E0000
001E0000
001E0000
001E0000
001E0000
001E0000
001E0000
001E0000
001E0000
00000000
00000000
00000000
001E0000
001E0000
001E0000
001E0000
00060000
00060000
00060000
000C0000
00180000
ENDCHAR
STARTCHAR 021B
ENCODING 539
SWIDTH 270 0
DWIDTH 12 0
BBX 10 41 1 -13
BITMAP
1C00
1C00
1C00
1C00
1C00
1C00
FFC0
FFC0
FFC0
1C00
1C00
1C00
1C00
1C00
1C00
1C00
1C00
1C00
1C00
1C00
1C00
1C00
1C00
1C00
1C00
1E00
1F00
1FC0
1FC0
07C0
0000
0000
0F00
0F00
0F00
0F00
0300
0300
0300
0700
0E00
ENDCHAR
STARTCHAR 02C6
ENCODING 710
SWIDTH 337 0
DWIDTH 15 0
BBX 13 7 1 26
BITMAP
0F80
1F80
1FC0
39E0
78E0
7070
E038
ENDCHAR
STARTCHAR 02C7
ENCODING 711
SWIDTH 337 0
DWIDTH 15 0
BBX 12 7 1 26
BITMAP
E070
7070
78E0
3DC0
1FC0
1F80
0F00
ENDCHAR
STARTCHAR 02C9
ENCODING 713
SWIDTH 337 0
DWIDTH 15 0
BBX 12 3 1 28
BITMAP
FFF0
FFF0
FFF0
ENDCHAR
STARTCHAR 02D8
ENCODING 728
SWIDTH 337 0
DWIDTH 15 0
BBX 13 6 1 27
BITMAP
C038
E038
F070
7FF0
7FE0
1F80
ENDCHAR
STARTCHAR 02D9
ENCODING 729
SWIDTH 337 0
DWIDTH 15 0
BBX 5 5 5 28
BITMAP
F8
F8
F8
F8
F8
ENDCHAR
STARTCHAR 02DA
ENCODING 730
SWIDTH 337 0
DWIDTH 15 0
BBX 7 8 4 26
BITMAP
38
FE
C6
C6
C6
C6
FC
78
ENDCHAR
STARTCHAR 02DB
ENCODING 731
SWIDTH 337 0
DWIDTH 15 0
BBX 9 9 3 -9
BITMAP
1C00
7800
E000
E000
E000
E000
F000
7F80
1F80
ENDCHAR
STARTCHAR 02DC
ENCODING 732
SWIDTH 337 0
DWIDTH 15 0
BBX 14 5 0 28
BITMAP
3C1C
7F1C
7FF8
E3F8
E0F0
ENDCHAR
STARTCHAR 02DD
ENCODING 733
SWIDTH 337 0
DWIDTH 15 0
BBX 16 7 -1 26
BITMAP
1F1F
1E3E
3C3C
7878
7070
E0E0
C1C0
ENDCHAR
STARTCHAR 0384
ENCODING 900
SWIDTH 337 0
DWIDTH 15 0
BBX 3 9 6 26
BITMAP
E0
E0
E0
E0
E0
E0
E0
C0
40
ENDCHAR
STARTCHAR 0385
ENCODING 901
SWIDTH 337 0
DWIDTH 15 0
BBX 11 12 2 26
BITMAP
0E00
0E00
0E00
0E00
0E00
0E00
0E00
FDE0
F5E0
F1E0
F1E0
F1E0
ENDCHAR
STARTCHAR 0386
ENCODING 902
SWIDTH 675 0
DWIDTH 30 0
BBX 28 32 1 0
BITMAP
781F8000
781F8000
783FC000
783FC000
383FC000
387FE000
3079E000
3079E000
10F1F000
00F0F000
00F0F000
01E0F800
01E07800
03E07800
03C07C00
03C03C00
07C03E00
07803E00
07801E00
0FFFFF00
0FFFFF00
0FFFFF00
1F000F80
1E000F80
3E000780
3C0007C0
3C0007C0
7C0003C0
780003E0
780001E0
F80001E0
F00001F0
ENDCHAR
STARTCHAR 0387
ENCODING 903
SWIDTH 270 0
DWIDTH 12 0
BBX 5 5 5 10
BITMAP
F8
F8
F8
F8
F8
ENDCHAR
STARTCHAR 0388
ENCODING 904
SWIDTH 787 0
DWIDTH 35 0
BBX 29 32 1 0
BITMAP
F3FFFFF8
F3FFFFF8
F3FFFFF8
F3FFFFF8
F3C00000
63C00000
63C00000
63C00000
63C00000
03C00000
03C00000
03C00000
03C00000
03C00000
03FFFFF0
03FFFFF0
03FFFFF0
03FFFFF0
03C00000
03C00000
03C00000
03C00000
03C00000
03C00000
03C00000
03C00000
03C00000
03C00000
03FFFFF8
03FFFFF8
03FFFFF8
03FFFFF8
ENDCHAR
STARTCHAR 0389
ENCODING 905
SWIDTH 832 0
DWIDTH 37 0
BBX 31 32 1 0
BITMAP
F3C0001E
F3C0001E
F3C0001E
F3C0001E
E3C0001E
E3C0001E
E3C0001E
63C0001E
43C0001E
03C0001E
03C0001E
03C0001E
03C0001E
03C0001E
03FFFFFE
03FFFFFE
03FFFFFE
03FFFFFE
03C0001E
03C0001E
03C0001E
03C0001E
03C0001E
03C0001E
03C0001E
03C0001E
03C0001E
03C0001E
03C0001E
03C0001E
03C0001E
03C0001E
ENDCHAR
STARTCHAR 038A
ENCODING 906
SWIDTH 382 0
DWIDTH 17 0
BBX 10 32 1 0
BITMAP
F3C0
F3C0
F3C0
F3C0
F3C0
63C0
63C0
63C0
63C0
03C0
03C0
03C0
03C0
03C0
03C0
03C0
03C0
03C0
03C0
03C0
03C0
03C0
03C0
03C0
03C0
03C0
03C0
03C0
03C0
03C0
03C0
03C0
ENDCHAR
STARTCHAR 038C
ENCODING 908
SWIDTH 765 0
DWIDTH 34 0
BBX 34 34 -1 -1
BITMAP
0003FC0000
F01FFF8000
F03FFFE000
F0FFFFF000
F1FC01F800
E3F000FC00
E3E0003E00
67C0001F00
6F80001F00
4F00000F80
0F00000F80
1F00000780
1E00000780
1E000007C0
1E000003C0
1E000003C0
1E000003C0
1E000003C0
1E000003C0
1E000003C0
1E000007C0
1E00000780
1F00000780
0F00000780
0F00000F00
0F80000F00
07C0001F00
07E0003E00
03F0007C00
01FC01F800
00FFFFF000
007FFFE000
001FFF8000
0003FC0000
ENDCHAR
STARTCHAR 038E
ENCODING 910
SWIDTH 855 0
DWIDTH 38 0
BBX 34 32 1 0
BITMAP
F3E00007C0
F3E0000F80
F1F0000F80
F0F8001F00
70F8001E00
707C003E00
603E007C00
603E007C00
201F00F800
000F00F000
000F81F000
0007C3E000
0007C3C000
0003E7C000
0001E78000
0001FF8000
0000FF0000
00007E0000
00007E0000
00003C0000
00003C0000
00003C0000
00003C0000
00003C0000
00003C0000
00003C0000
00003C0000
00003C0000
00003C0000
00003C0000
00003C0000
00003C0000
ENDCHAR
STARTCHAR 038F
ENCODING 911
SWIDTH 742 0
DWIDTH 33 0
BBX 33 33 -1 0
BITMAP
0003FC0000
F01FFF0000
F07FFFC000
F0FFFFF000
F1F803F800
F3E000F800
E7C0007C00
6780003E00
6F80001E00
6F00001F00
0F00000F00
1F00000F00
1E00000F00
1E00000F00
1E00000F00
1E00000F00
1E00000F00
1E00000F00
1E00000F00
1F00000F00
0F00000F00
0F00001E00
0F80001E00
0780003E00
07C0003C00
03C0007800
01E000F000
00F001E000
007C03C000
3FFE0FFF80
3FFE0FFF80
3FFE0FFF80
3FFE0FFF80
ENDCHAR
STARTCHAR 0390
ENCODING 912
SWIDTH 225 0
DWIDTH 10 0
BBX 12 38 -1 0
BITMAP
0F00
0F00
0F00
0F00
0F00
0E00
0600
F6F0
F6F0
F0F0
F0F0
F0F0
0000
0000
0000
0F00
0F00
0F00
0F00
0F00
0F00
0F00
0F00
0F00
0F00
0F00
0F00
0F00
0F00
0F00
0F00
0F00
0F00
0F00
0F00
0F00
0F00
0F00
ENDCHAR
STARTCHAR 0391
ENCODING 913
SWIDTH 675 0
DWIDTH 30 0
BBX 28 32 1 0
BITMAP
001F8000
001F8000
003FC000
003FC000
003FC000
007FE000
0079E000
0079E000
00F1F000
00F0F000
00F0F000
01E0F800
01E07800
03E07800
03C07C00
03C03C00
07C03E00
07803E00
07801E00
0FFFFF00
0FFFFF00
0FFFFF00
1F000F80
1E000F80
3E000780
3C0007C0
3C0007C0
7C0003C0
780003E0
780001E0
F80001E0
F00001F0
ENDCHAR
STARTCHAR 0392
ENCODING 914
SWIDTH 675 0
DWIDTH 30 0
BBX 24 32 4 0
BITMAP
FFFF80
FFFFE0
FFFFF0
FFFFF8
F000F8
F0007C
F0003C
F0003C
F0003C
F0003C
F0003C
F0003C
F00078
F001F0
FFFFE0
FFFFC0
FFFFF0
FFFFFC
F0007C
F0003E
F0001E
F0001F
F0000F
F0000F
F0001F
F0001E
F0003E
F0007E
FFFFFC
FFFFF8
FFFFF0
FFFFC0
ENDCHAR
STARTCHAR 0393
ENCODING 915
SWIDTH 540 0
DWIDTH 24 0
BBX 21 32 3 0
BITMAP
FFFFF8
FFFFF8
FFFFF8
FFFFF8
F80000
F80000
F80000
F80000
F80000
F80000
F80000
F80000
F80000
F80000
F80000
F80000
F80000
F80000
F80000
F80000
F80000
F80000
F80000
F80000
F80000
F80000
F80000
F80000
F80000
F80000
F80000
F80000
ENDCHAR
STARTCHAR 0394
ENCODING 916
SWIDTH 675 0
DWIDTH 30 0
BBX 30 32 0 0
BITMAP
000F8000
000FC000
001FC000
001FC000
001FE000
003FE000
003DF000
007CF000
0078F000
00787800
00F87800
00F07C00
01F03C00
01E03E00
01E01E00
03E01E00
03C01F00
07C00F00
07800F80
07800780
0F800780
0F0007C0
1F0003C0
1E0003E0
1E0001E0
3E0001E0
3C0001F0
7C0000F0
7FFFFFF8
FFFFFFF8
FFFFFFFC
FFFFFFFC
ENDCHAR
STARTCHAR 0395
ENCODING 917
SWIDTH 675 0
DWIDTH 30 0
BBX 23 32 4 0
BITMAP
FFFFFC
FFFFFC
FFFFFC
FFFFFC
F00000
F00000
F00000
F00000
F00000
F00000
F00000
F00000
F00000
F00000
FFFFFC
FFFFFC
FFFFFC
FFFFFC
F00000
F00000
F00000
F00000
F00000
F00000
F00000
F00000
F00000
F00000
FFFFFE
FFFFFE
FFFFFE
FFFFFE
ENDCHAR
STARTCHAR 0396
ENCODING 918
SWIDTH 607 0
DWIDTH 27 0
BBX 25 32 1 0
BITMAP
7FFFFF80
7FFFFF80
7FFFFF80
7FFFFF80
00001F00
00003E00
00007E00
00007C00
0000F800
0001F000
0003E000
0003E000
0007C000
000F8000
001F0000
003F0000
003E0000
007C0000
00F80000
01F00000
03F00000
03E00000
07C00000
0F800000
1F000000
3F000000
3E000000
7C000000
FFFFFF80
FFFFFF80
FFFFFF80
FFFFFF80
ENDCHAR
STARTCHAR 0397
ENCODING 919
SWIDTH 720 0
DWIDTH 32 0
BBX 25 32 4 0
BITMAP
F0000F80
F0000F80
F0000F80
F0000F80
F0000F80
F0000F80
F0000F80
F0000F80
F0000F80
F0000F80
F0000F80
F0000F80
F0000F80
F0000F80
FFFFFF80
FFFFFF80
FFFFFF80
FFFFFF80
F0000F80
F0000F80
F0000F80
F0000F80
F0000F80
F0000F80
F0000F80
F0000F80
F0000F80
F0000F80
F0000F80
F0000F80
F0000F80
F0000F80
ENDCHAR
STARTCHAR 0398
ENCODING 920
SWIDTH 787 0
DWIDTH 35 0
BBX 31 34 2 -1
BITMAP
001FF000
00FFFC00
01FFFF00
07FFFFC0
0FE00FE0
1F8003E0
1F0001F0
3E0000F8
7C000078
7800007C
7800003C
F800003C
F000003E
F000003E
F000001E
F07FFC1E
F07FFC1E
F07FFC1E
F000001E
F000001E
F000003E
F000003C
F800003C
7800003C
7C00007C
7C000078
3E0000F8
1F0001F0
1F8003E0
0FE00FC0
07FFFF80
01FFFF00
00FFFC00
001FE000
ENDCHAR
STARTCHAR 0399
ENCODING 921
SWIDTH 270 0
DWIDTH 12 0
BBX 5 32 4 0
BITMAP
F8
F8
F8
F8
F8
F8
F8
F8
F8
F8
F8
F8
F8
F8
F8
F8
F8
F8
F8
F8
F8
F8
F8
F8
F8
F8
F8
F8
F8
F8
F8
F8
ENDCHAR
STARTCHAR 039A
ENCODING 922
SWIDTH 675 0
DWIDTH 30 0
BBX 25 32 4 0
BITMAP
F0001F80
F0003F00
F0007E00
F000FC00
F001F800
F003F000
F007E000
F00FC000
F01F0000
F03E0000
F07C0000
F0F80000
F1F00000
F3F00000
F7F80000
FFFC0000
FF3C0000
FE3E0000
FC1F0000
F80F0000
F00F8000
F007C000
F003E000
F003E000
F001F000
F000F800
F000F800
F0007C00
F0003E00
F0001E00
F0001F00
F0000F80
ENDCHAR
STARTCHAR 039B
ENCODING 923
SWIDTH 675 0
DWIDTH 30 0
BBX 28 32 1 0
BITMAP
001F8000
001F8000
003FC000
003FC000
007FC000
007BE000
0079E000
00F9E000
00F1F000
00F0F000
01F0F000
01E0F800
01E07800
03E07800
03C07C00
03C03C00
07C03C00
07803E00
07801E00
0F801F00
0F001F00
1F000F00
1F000F80
1E000F80
3E000780
3E0007C0
3C0007C0
7C0003C0
7C0003E0
780003E0
F80001E0
F80001F0
ENDCHAR
STARTCHAR 039C
ENCODING 924
SWIDTH 832 0
DWIDTH 37 0
BBX 31 32 3 0
BITMAP
FC00007E
FE00007E
FE0000FE
FE0000FE
FF0000FE
FF0001FE
F70001DE
F78001DE
F78003DE
F380039E
F3C0039E
F3C0079E
F1C0071E
F1E0071E
F1E00F1E
F0E00E1E
F0F01E1E
F0F01E1E
F0701C1E
F0783C1E
F0783C1E
F038381E
F03C781E
F01C781E
F01E701E
F01EF01E
F00EF01E
F00FE01E
F00FE01E
F007E01E
F007C01E
F007C01E
ENDCHAR
STARTCHAR 039D
ENCODING 925
SWIDTH 720 0
DWIDTH 32 0
BBX 26 32 3 0
BITMAP
F80003C0
FC0003C0
FC0003C0
FE0003C0
FF0003C0
FF0003C0
F78003C0
F7C003C0
F3C003C0
F3E003C0
F1F003C0
F0F003C0
F0F803C0
F07C03C0
F03C03C0
F03E03C0
F01F03C0
F00F03C0
F00F83C0
F00783C0
F003C3C0
F003E3C0
F001E3C0
F000F3C0
F000FBC0
F0007BC0
F0007FC0
F0003FC0
F0001FC0
F0001FC0
F0000FC0
F00007C0
ENDCHAR
STARTCHAR 039E
ENCODING 926
SWIDTH 652 0
DWIDTH 29 0
BBX 23 32 3 0
BITMAP
FFFFFE
FFFFFE
FFFFFE
FFFFFE
000000
000000
000000
000000
000000
000000
000000
000000
000000
000000
7FFFFC
7FFFFC
7FFFFC
7FFFFC
000000
000000
000000
000000
000000
000000
000000
000000
000000
000000
FFFFFE
FFFFFE
FFFFFE
FFFFFE
ENDCHAR
STARTCHAR 039F
ENCODING 927
SWIDTH 787 0
DWIDTH 35 0
BBX 31 34 2 -1
BITMAP
001FF000
00FFFC00
01FFFF00
07FFFF80
0FE00FE0
1F8003E0
1F0001F0
3E0000F8
3C000078
7C00007C
7800003C
F800003C
F000003E
F000001E
F000001E
F000001E
F000001E
F000001E
F000001E
F000001E
F000001E
F000003E
F800003C
7800003C
7C00007C
7C000078
3E0000F8
1F0001F0
1F8003E0
0FE00FE0
07FFFF80
03FFFF00
00FFFC00
001FF000
ENDCHAR
STARTCHAR 03A0
ENCODING 928
SWIDTH 720 0
DWIDTH 32 0
BBX 25 32 4 0
BITMAP
FFFFFF80
FFFFFF80
FFFFFF80
FFFFFF80
F0000F80
F0000F80
F0000F80
F0000F80
F0000F80
F0000F80
F0000F80
F0000F80
F0000F80
F0000F80
F0000F80
F0000F80
F0000F80
F0000F80
F0000F80
F0000F80
F0000F80
F0000F80
F0000F80
F0000F80
F0000F80
F0000F80
F0000F80
F0000F80
F0000F80
F0000F80
F0000F80
F0000F80
ENDCHAR
STARTCHAR 03A1
ENCODING 929
SWIDTH 675 0
DWIDTH 30 0
BBX 23 32 4 0
BITMAP
FFFF80
FFFFF0
FFFFF8
FFFFFC
F000FC
F0003E
F0003E
F0001E
F0001E
F0001E
F0001E
F0001E
F0003E
F0007E
F000FC
FFFFF8
FFFFF0
FFFFE0
FFFF00
F00000
F00000
F00000
F00000
F00000
F00000
F00000
F00000
F00000
F00000
F00000
F00000
F00000
ENDCHAR
STARTCHAR 03A3
ENCODING 931
SWIDTH 607 0
DWIDTH 27 0
BBX 24 32 2 0
BITMAP
FFFFFE
FFFFFE
FFFFFE
FFFFFE
7C0000
3E0000
1F0000
0F8000
07C000
03E000
01F000
00F800
007C00
003E00
001F00
000F80
000F80
001F00
003E00
007C00
00F800
01F000
03E000
07C000
0F8000
1F0000
3E0000
7C0000
FFFFFF
FFFFFF
FFFFFF
FFFFFF
ENDCHAR
STARTCHAR 03A4
ENCODING 932
SWIDTH 607 0
DWIDTH 27 0
BBX 25 32 1 0
BITMAP
FFFFFF80
FFFFFF80
FFFFFF80
FFFFFF80
001E0000
001E0000
001E0000
001E0000
001E0000
001E0000
001E0000
001E0000
001E0000
001E0000
001E0000
001E0000
001E0000
001E0000
001E0000
001E0000
001E0000
001E0000
001E0000
001E0000
001E0000
001E0000
001E0000
001E0000
001E0000
001E0000
001E0000
001E0000
ENDCHAR
STARTCHAR 03A5
ENCODING 933
SWIDTH 675 0
DWIDTH 30 0
BBX 28 32 1 0
BITMAP
F80001F0
7C0001E0
7C0003E0
3E0007C0
3E0007C0
1F000F80
0F800F00
0F801F00
07C03E00
03C03C00
03E07C00
01F07800
00F0F800
00F9F000
007DE000
003FE000
003FC000
001F8000
001F8000
000F0000
000F0000
000F0000
000F0000
000F0000
000F0000
000F0000
000F0000
000F0000
000F0000
000F0000
000F0000
000F0000
ENDCHAR
STARTCHAR 03A6
ENCODING 934
SWIDTH 787 0
DWIDTH 35 0
BBX 29 34 3 -1
BITMAP
00078000
00078000
00078000
00078000
003FF000
01FFFE00
03FFFF00
0FFFFFC0
1FC78FC0
1F0783E0
3E0781F0
3C0781F0
780780F0
780780F8
78078078
78078078
F8078078
F8078078
F8078078
78078078
780780F8
780780F0
7C0781F0
3E0781F0
1F0787E0
1FC78FC0
0FFFFF80
07FFFF00
01FFFC00
003FE000
00078000
00078000
00078000
00078000
ENDCHAR
STARTCHAR 03A7
ENCODING 935
SWIDTH 675 0
DWIDTH 30 0
BBX 27 32 1 0
BITMAP
7C0003E0
3E0007C0
3E0007C0
1F000F80
0F801F00
0F801E00
07C03E00
03E07C00
01E07800
01F0F800
00F9F000
0079E000
007FE000
003FC000
001F8000
001F0000
001F8000
003FC000
007FC000
007BE000
00F9F000
01F0F800
01E0F800
03E07C00
07C03E00
07803E00
0F801F00
1F000F80
3E000F80
3E0007C0
7C0003E0
F80003E0
ENDCHAR
STARTCHAR 03A8
ENCODING 936
SWIDTH 832 0
DWIDTH 37 0
BBX 31 32 3 0
BITMAP
F007C01E
F007C01E
F007C01E
F007C01E
F007C01E
F007C01E
F007C01E
F007C01E
F007C01E
F007C01E
F007C01E
F007C01E
F007C01E
F007C01E
F007C01E
F007C01E
F807C01E
7807C03E
7807C03C
7C07C07C
3E07C0F8
3F87C3F8
1FFFFFF0
07FFFFC0
03FFFF00
003FF800
0007C000
0007C000
0007C000
0007C000
0007C000
0007C000
ENDCHAR
STARTCHAR 03A9
ENCODING 937
SWIDTH 742 0
DWIDTH 33 0
BBX 31 33 1 0
BITMAP
000FF000
007FFC00
01FFFF00
03FFFFC0
07E00FE0
0F8003E0
1F0001F0
1E0000F8
3E000078
3C00007C
3C00007C
7C00003C
7800003C
7800003C
7800003C
7800003C
7800003C
7800003C
7800003C
7800003C
3C00003C
3C000078
3C000078
1E0000F8
1F0000F0
0F0001E0
078003C0
03C00780
01F00F00
FFF83FFE
FFF83FFE
FFF83FFE
FFF83FFE
ENDCHAR
STARTCHAR 03AA
ENCODING 938
SWIDTH 270 0
DWIDTH 12 0
BBX 12 40 0 0
BITMAP
F9F0
F9F0
F9F0
F9F0
F9F0
0000
0000
0000
0F80
0F80
0F80
0F80
0F80
0F80
0F80
0F80
0F80
0F80
0F80
0F80
0F80
0F80
0F80
0F80
0F80
0F80
0F80
0F80
0F80
0F80
0F80
0F80
0F80
0F80
0F80
0F80
0F80
0F80
0F80
0F80
ENDCHAR
STARTCHAR 03AB
ENCODING 939
SWIDTH 675 0
DWIDTH 30 0
BBX 28 40 1 0
BITMAP
00F9F000
00F9F000
00F9F000
00F9F000
00F9F000
00000000
00000000
00000000
F80001F0
7C0001E0
7C0003E0
3E0007C0
3E0007C0
1F000F80
0F800F00
0F801F00
07C03E00
03C03C00
03E07C00
01F07800
00F0F800
00F9F000
007DE000
003FE000
003FC000
001F8000
001F8000
000F0000
000F0000
000F0000
000F0000
000F0000
000F0000
000F0000
000F0000
000F0000
000F0000
000F0000
000F0000
000F0000
ENDCHAR
STARTCHAR 03AC
ENCODING 940
SWIDTH 585 0
DWIDTH 26 0
BBX 26 36 0 -1
BITMAP
00780000
00780000
00780000
00780000
00780000
00700000
00300000
00300000
00300000
00000000
00000000
00FC0000
03FE03C0
0FFF0380
1FDF8780
1E03C780
3C01EF00
7C00EF00
7800FF00
78007E00
70007E00
F0007C00
F0003C00
F0003C00
F0003C00
F0007E00
78007E00
7800FE00
7800EF00
7C01EF00
3C01C780
3F03C780
1FDF8780
0FFF03C0
07FE03C0
01F80000
ENDCHAR
STARTCHAR 03AD
ENCODING 941
SWIDTH 450 0
DWIDTH 20 0
BBX 19 36 1 -1
BITMAP
01E000
01E000
01E000
01E000
01E000
01C000
00C000
00C000
00C000
000000
000000
03F000
1FFE00
3FFF00
7F3F80
7C0780
7803C0
F003C0
7001C0
780000
7C0000
3FF000
0FF000
1FF000
7FF000
780000
F00000
F00000
F001E0
F001C0
F003C0
F80780
7F3F80
3FFF00
1FFC00
07F000
ENDCHAR
STARTCHAR 03AE
ENCODING 942
SWIDTH 562 0
DWIDTH 25 0
BBX 19 44 3 -10
BITMAP
00F000
00F000
00F000
00F000
007000
007000
006000
006000
000000
000000
007E00
F1FF00
F7FF80
F78FC0
FE03C0
FC03E0
F801E0
F001E0
F001E0
F001E0
F001E0
F001E0
F001E0
F001E0
F001E0
F001E0
F001E0
F001E0
F001E0
F001E0
F001E0
F001E0
F001E0
F001E0
0001E0
0001E0
0001E0
0001E0
0001E0
0001E0
0001E0
0001E0
0001E0
0001E0
ENDCHAR
STARTCHAR 03AF
ENCODING 943
SWIDTH 225 0
DWIDTH 10 0
BBX 4 34 3 0
BITMAP
F0
F0
F0
F0
F0
60
60
60
00
00
00
F0
F0
F0
F0
F0
F0
F0
F0
F0
F0
F0
F0
F0
F0
F0
F0
F0
F0
F0
F0
F0
F0
F0
ENDCHAR
STARTCHAR 03B0
ENCODING 944
SWIDTH 540 0
DWIDTH 24 0
BBX 18 39 3 -1
BITMAP
01E000
01E000
01E000
01E000
01E000
00E000
00C000
1EDE00
1EDE00
1E1E00
1E1E00
1E1E00
000000
000000
000000
F001C0
F001C0
F001C0
F001C0
F001C0
F001C0
F001C0
F001C0
F001C0
F001C0
F001C0
F001C0
F001C0
F001C0
F001C0
F001C0
F001C0
F003C0
F003C0
F807C0
7FBF80
3FFF80
1FFE00
07F800
ENDCHAR
STARTCHAR 03B1
ENCODING 945
SWIDTH 585 0
DWIDTH 26 0
BBX 25 25 1 -1
BITMAP
01F80000
07FE0780
0FFF0780
1FBF0F00
3E078F00
3C03CE00
7C01DE00
7801FE00
7800FC00
7800FC00
70007800
F0007800
F0007800
F0007800
7000FC00
7800FC00
7801FE00
7801FE00
7C03CE00
3C03CF00
3E078F00
1FFF0780
0FFE0780
07FC0780
01F00000
ENDCHAR
STARTCHAR 03B2
ENCODING 946
SWIDTH 585 0
DWIDTH 26 0
BBX 19 43 4 -10
BITMAP
07F000
1FFC00
3FFE00
7E3F00
F80F80
F00780
F00780
E00380
E00380
E00780
E00780
E00780
E00F00
E1FE00
E1FC00
E1FE00
E17F80
E007C0
E003C0
E003E0
E001E0
E001E0
E001E0
E001E0
E001E0
E001E0
E001E0
E001E0
F003C0
F807C0
FF7F80
FFFF00
EFFE00
E3F800
E00000
E00000
E00000
E00000
E00000
E00000
E00000
E00000
E00000
ENDCHAR
STARTCHAR 03B3
ENCODING 947
SWIDTH 495 0
DWIDTH 22 0
BBX 20 33 1 -10
BITMAP
F000F0
F000F0
7800F0
7801E0
7801E0
3C01E0
3C03C0
3E03C0
1E0780
1E0780
0F0780
0F0F00
0F0F00
078F00
079E00
03DE00
03DC00
03FC00
01FC00
01F800
00F800
00F800
00F000
00F000
00F000
00F000
00F000
00F000
00F000
00F000
00F000
00F000
00F000
ENDCHAR
STARTCHAR 03B4
ENCODING 948
SWIDTH 562 0
DWIDTH 25 0
BBX 21 33 2 -1
BITMAP
3FFFE0
3FFFE0
3FFFE0
1F0000
0F8000
07C000
01F000
00F800
007C00
03FF00
0FFF80
1FFFC0
3E07E0
7C01E0
7800F0
7800F0
F000F8
F00078
F00078
F00078
F00078
F00078
F00078
F00078
F00078
7800F0
7800F0
7C01F0
3E03E0
3FDFC0
1FFF80
07FF00
01FC00
ENDCHAR
STARTCHAR 03B5
ENCODING 949
SWIDTH 450 0
DWIDTH 20 0
BBX 19 25 1 -1
BITMAP
03F000
1FFE00
3FFF00
7F3F80
7C0780
7803C0
F003C0
7001C0
780000
7C0000
3FF000
0FF000
1FF000
7FF000
780000
F00000
F00000
F001E0
F001C0
F003C0
F80780
7F3F80
3FFF00
1FFC00
07F000
ENDCHAR
STARTCHAR 03B6
ENCODING 950
SWIDTH 450 0
DWIDTH 20 0
BBX 18 42 2 -10
BITMAP
3FFF80
3FFF80
3FFF80
001F80
003E00
007C00
00F000
01E000
03C000
078000
0F0000
1F0000
1E0000
3C0000
3C0000
780000
780000
780000
F00000
F00000
F00000
F00000
F00000
F00000
F00000
F00000
F80000
780000
7E0000
3FFC00
1FFF80
07FFC0
001FC0
0003C0
0003C0
0003C0
0003C0
0003C0
000380
000780
000780
000F00
ENDCHAR
STARTCHAR 03B7
ENCODING 951
SWIDTH 562 0
DWIDTH 25 0
BBX 19 34 3 -10
BITMAP
007E00
F1FF00
F7FF80
F78FC0
FE03C0
FC03E0
F801E0
F001E0
F001E0
F001E0
F001E0
F001E0
F001E0
F001E0
F001E0
F001E0
F001E0
F001E0
F001E0
F001E0
F001E0
F001E0
F001E0
F001E0
0001E0
0001E0
0001E0
0001E0
0001E0
0001E0
0001E0
0001E0
0001E0
0001E0
ENDCHAR
STARTCHAR 03B8
ENCODING 952
SWIDTH 562 0
DWIDTH 25 0
BBX 21 34 2 -1
BITMAP
01FC00
07FF00
0FFF80
1FDFC0
3E03C0
3C01E0
7801E0
7800F0
7800F0
7000F0
700070
F00070
F00070
F00078
F00078
FFFFF8
FFFFF8
FFFFF8
F00078
F00078
F00078
F00070
F00070
F00070
7000F0
7000F0
7800F0
7800E0
3C01E0
3E03C0
1FDFC0
0FFF80
07FF00
01FC00
ENDCHAR
STARTCHAR 03B9
ENCODING 953
SWIDTH 225 0
DWIDTH 10 0
BBX 4 23 3 0
BITMAP
F0
F0
F0
F0
F0
F0
F0
F0
F0
F0
F0
F0
F0
F0
F0
F0
F0
F0
F0
F0
F0
F0
F0
ENDCHAR
STARTCHAR 03BA
ENCODING 954
SWIDTH 495 0
DWIDTH 22 0
BBX 19 23 3 0
BITMAP
E00780
E00F00
E01E00
E03C00
E07800
E0F000
E1E000
E7C000
EFC000
FFE000
FFE000
FDF000
F8F800
F07800
E07C00
E03E00
E01E00
E01F00
E00F00
E00F80
E007C0
E003C0
E003E0
ENDCHAR
STARTCHAR 03BB
ENCODING 955
SWIDTH 495 0
DWIDTH 22 0
BBX 20 32 1 0
BITMAP
078000
078000
078000
03C000
03C000
03C000
01E000
01E000
00F000
00F000
00F000
01F800
01F800
01F800
03FC00
03FC00
039E00
079E00
079E00
0F0F00
0F0F00
0F0F00
1E0780
1E0780
1E07C0
3C03C0
3C03C0
3C01E0
7801E0
7801E0
7000F0
F000F0
ENDCHAR
STARTCHAR 03BC
ENCODING 956
SWIDTH 585 0
DWIDTH 26 0
BBX 18 33 4 -10
BITMAP
E003C0
E003C0
E003C0
E003C0
E003C0
E003C0
E003C0
E003C0
E003C0
E003C0
E003C0
E003C0
E003C0
E003C0
E003C0
E003C0
E003C0
E007C0
F007C0
F80FC0
FC3DC0
FFF9C0
FFF1C0
EFC000
E00000
E00000
E00000
E00000
E00000
E00000
E00000
E00000
E00000
ENDCHAR
STARTCHAR 03BD
ENCODING 957
SWIDTH 495 0
DWIDTH 22 0
BBX 20 23 1 0
BITMAP
F000F0
F000F0
F800F0
7801E0
7801E0
7C03E0
3C03C0
3C03C0
1E0780
1E0780
1E0780
0F0F00
0F0F00
0F0E00
079E00
079E00
079C00
03FC00
03F800
03F800
01F800
01F000
00F000
ENDCHAR
STARTCHAR 03BE
ENCODING 958
SWIDTH 450 0
DWIDTH 20 0
BBX 19 42 1 -10
BITMAP
7FFFC0
7FFFC0
7FFFC0
07E000
0F0000
1E0000
1E0000
3C0000
3C0000
3C0000
3E0000
1E0000
1F0000
0FF000
07FF00
01FF00
0FFF00
1F8000
3E0000
7C0000
780000
780000
F00000
F00000
F00000
780000
780000
7C0000
3F0000
3FFF00
1FFFC0
07FFE0
0007E0
0001E0
0000E0
0000E0
0001E0
0001E0
0001E0
0001C0
0003C0
0003C0
ENDCHAR
STARTCHAR 03BF
ENCODING 959
SWIDTH 562 0
DWIDTH 25 0
BBX 21 25 2 -1
BITMAP
01FC00
07FF00
1FFF80
3FDFC0
3E03E0
7C01F0
7800F0
7800F0
F000F8
F00078
F00078
F00078
F00078
F00078
F00078
F00078
F00078
F800F0
7800F0
7C01F0
3E03E0
3FDFC0
1FFF80
07FF00
01FC00
ENDCHAR
STARTCHAR 03C0
ENCODING 960
SWIDTH 697 0
DWIDTH 31 0
BBX 25 23 3 0
BITMAP
FFFFFF80
FFFFFF80
FFFFFF80
1E003800
1E003800
1E003800
1E003800
1E003800
1E003800
1E003800
1E003800
1E003800
1E003800
1E003800
1E003800
1E003800
1E003800
1E003800
1E003800
1E003800
1E003800
1E003800
1E003800
ENDCHAR
STARTCHAR 03C1
ENCODING 961
SWIDTH 562 0
DWIDTH 25 0
BBX 20 34 3 -10
BITMAP
01FC00
07FF00
1FFF80
3F9FC0
3E07E0
7803E0
F801E0
F000F0
F000F0
F000F0
E000F0
E00070
E00070
E00070
F000F0
F000F0
F000F0
F000F0
F801E0
FC03E0
FE07E0
FFFFC0
EFFF80
E7FF00
E1FC00
E00000
E00000
E00000
E00000
E00000
E00000
E00000
E00000
E00000
ENDCHAR
STARTCHAR 03C2
ENCODING 962
SWIDTH 472 0
DWIDTH 21 0
BBX 21 34 1 -10
BITMAP
00FC00
07FF80
0FFFC0
1FCFE0
3E03E0
3C01F0
7800F0
7800F0
700078
F00000
F00000
F00000
F00000
F00000
780000
780000
7C0000
3C0000
3F0000
1FC000
0FF800
07FE00
01FFC0
003FE0
0007F0
0001F0
0000F0
0000F0
0000E0
0001E0
0001E0
0001C0
0003C0
0003C0
ENDCHAR
STARTCHAR 03C3
ENCODING 963
SWIDTH 607 0
DWIDTH 27 0
BBX 23 25 3 -1
BITMAP
01F800
07FFFE
1FFFFE
3F9FFE
3E03C0
7C01E0
7800E0
F000F0
F000F0
F00070
F00078
F00078
F00078
F00078
F00078
F00078
F000F0
F000F0
7800F0
7C01E0
3E03E0
3F9FC0
1FFF80
0FFF00
01FC00
ENDCHAR
STARTCHAR 03C4
ENCODING 964
SWIDTH 405 0
DWIDTH 18 0
BBX 19 23 -1 0
BITMAP
FFFFE0
FFFFE0
FFFFE0
00F000
00F000
00F000
00F000
00F000
00F000
00F000
00F000
00F000
00F000
00F000
00F000
00F000
00F000
00F000
00F000
00F000
00F000
00F000
00F000
ENDCHAR
STARTCHAR 03C5
ENCODING 965
SWIDTH 540 0
DWIDTH 24 0
BBX 18 24 3 -1
BITMAP
F001C0
F001C0
F001C0
F001C0
F001C0
F001C0
F001C0
F001C0
F001C0
F001C0
F001C0
F001C0
F001C0
F001C0
F001C0
F001C0
F001C0
F003C0
F003C0
F807C0
7FBF80
3FFF80
1FFE00
07F800
ENDCHAR
STARTCHAR 03C6
ENCODING 966
SWIDTH 652 0
DWIDTH 29 0
BBX 26 34 1 -10
BITMAP
001F8000
031FF000
071FFC00
0F1EFE00
1F1E1F00
3C1E0F00
3C1E0780
781E0780
781E0780
781E03C0
F81E03C0
F01E03C0
F01E03C0
F81E03C0
781E03C0
781E03C0
781E07C0
781E0780
3C1E0F80
3E1E0F00
1F1E1F00
1FFEFE00
0FFFFC00
03FFF000
007FC000
001E0000
001E0000
001E0000
001E0000
001E0000
001E0000
001E0000
001E0000
001E0000
ENDCHAR
STARTCHAR 03C7
ENCODING 967
SWIDTH 517 0
DWIDTH 23 0
BBX 20 33 2 -10
BITMAP
F001E0
F803E0
7803C0
7C03C0
3C0780
3E0780
1E0F00
1F0F00
0F1E00
0F9E00
07BC00
07BC00
03F800
03F800
01F000
01F000
01F000
01F800
03F800
03F800
07BC00
07BC00
0F1E00
0F1E00
1E0F00
1E0F00
3C0780
3C0780
7803C0
7803C0
F001E0
F001E0
F000F0
ENDCHAR
STARTCHAR 03C8
ENCODING 968
SWIDTH 720 0
DWIDTH 32 0
BBX 24 33 4 -10
BITMAP
F03C07
F03C07
F03C07
F03C07
F03C07
F03C07
F03C07
F03C07
F03C07
F03C07
F03C07
F03C07
F03C07
F03C07
F03C07
F03C07
F03C0F
783C0F
783C1F
7E3C3E
3FFFFC
1FFFF8
07FFE0
00FF00
003C00
003C00
003C00
003C00
003C00
003C00
003C00
003C00
003C00
ENDCHAR
STARTCHAR 03C9
ENCODING 969
SWIDTH 787 0
DWIDTH 35 0
BBX 27 24 4 -1
BITMAP
0F803C00
1F001E00
1E000F00
3C000F80
3C000780
78000780
781E03C0
781E03C0
F01E03C0
F01E01E0
F01E01E0
F01E01E0
F01E01E0
F01E01E0
F01E01E0
F01E01E0
F01E01C0
F01E03C0
781F03C0
7C3F0780
3E7BCF80
3FF3FF00
1FF1FE00
07C0FC00
ENDCHAR
STARTCHAR 03CA
ENCODING 970
SWIDTH 225 0
DWIDTH 10 0
BBX 12 32 -1 0
BITMAP
F1F0
F1F0
F1F0
F1F0
F1F0
0000
0000
0000
0000
0F00
0F00
0F00
0F00
0F00
0F00
0F00
0F00
0F00
0F00
0F00
0F00
0F00
0F00
0F00
0F00
0F00
0F00
0F00
0F00
0F00
0F00
0F00
ENDCHAR
STARTCHAR 03CB
ENCODING 971
SWIDTH 540 0
DWIDTH 24 0
BBX 18 33 3 -1
BITMAP
1F3E00
1F3E00
1F3E00
1F3E00
1F3E00
000000
000000
000000
000000
F001C0
F001C0
F001C0
F001C0
F001C0
F001C0
F001C0
F001C0
F001C0
F001C0
F001C0
F001C0
F001C0
F001C0
F001C0
F001C0
F001C0
F003C0
F003C0
F807C0
7FBF80
3FFF80
1FFE00
07F800
ENDCHAR
STARTCHAR 03CC
ENCODING 972
SWIDTH 562 0
DWIDTH 25 0
BBX 21 36 2 -1
BITMAP
007000
007000
007000
007000
007000
007000
007000
006000
002000
000000
000000
01FC00
07FF00
1FFF80
3FDFC0
3E03E0
7C01F0
7800F0
7800F0
F000F8
F00078
F00078
F00078
F00078
F00078
F00078
F00078
F00078
F800F0
7800F0
7C01F0
3E03E0
3FDFC0
1FFF80
07FF00
01FC00
ENDCHAR
STARTCHAR 03CD
ENCODING 973
SWIDTH 540 0
DWIDTH 24 0
BBX 18 35 3 -1
BITMAP
01E000
01E000
01E000
01E000
00E000
00E000
00C000
00C000
000000
000000
000000
F001C0
F001C0
F001C0
F001C0
F001C0
F001C0
F001C0
F001C0
F001C0
F001C0
F001C0
F001C0
F001C0
F001C0
F001C0
F001C0
F001C0
F003C0
F003C0
F807C0
7FBF80
3FFF80
1FFE00
07F800
ENDCHAR
STARTCHAR 03CE
ENCODING 974
SWIDTH 787 0
DWIDTH 35 0
BBX 27 35 4 -1
BITMAP
001E0000
001E0000
001E0000
001E0000
000E0000
000E0000
000C0000
000C0000
00000000
00000000
00000000
0F803C00
1F001E00
1E000F00
3C000F80
3C000780
78000780
781E03C0
781E03C0
F01E03C0
F01E01E0
F01E01E0
F01E01E0
F01E01E0
F01E01E0
F01E01E0
F01E01E0
F01E01C0
F01E03C0
781F03C0
7C3F0780
3E7BCF80
3FF3FF00
1FF1FE00
07C0FC00
ENDCHAR
STARTCHAR 03D1
ENCODING 977
SWIDTH 540 0
DWIDTH 24 0
BBX 24 34 0 -1
BITMAP
00FE00
03FF80
07FFC0
0783E0
0F01F0
0E00F0
0E0078
1E0078
1E0078
0E0038
0F0038
0F0038
07803C
07E03C
03F83C
00FFFF
007FFF
000FFF
00003C
00003C
F8003C
F8003C
FC0038
3C0038
3C0038
3C0078
3C0078
1E0070
1E00F0
0F01F0
0FEFE0
07FFC0
03FF80
00FE00
ENDCHAR
STARTCHAR 03D5
ENCODING 981
SWIDTH 562 0
DWIDTH 25 0
BBX 23 39 1 -10
BITMAP
003800
003800
003800
003800
003800
01FF00
07FFC0
1FFFF0
3FBBF8
3E38F8
78387C
78383C
F0381E
F0381E
F0381E
F0381E
E0381E
E0381E
F0381E
F0381E
F0381E
F0381E
F0381E
78383C
78387C
3E38F8
3FBBF8
1FFFF0
07FFC0
01FF00
003800
003800
003800
003800
003800
003800
003800
003800
003800
ENDCHAR
STARTCHAR 03D6
ENCODING 982
SWIDTH 787 0
DWIDTH 35 0
BBX 28 24 3 -1
BITMAP
FFFF8000
FFFFF800
FFFFFE00
0F80FF00
1F001F80
3E0007C0
3C0003C0
780003E0
780001E0
780001E0
780F00F0
700F00F0
700F00F0
700F00F0
700F00F0
780F00F0
780F00E0
780F81E0
781F81E0
3C1FC3C0
1F7FE7C0
1FFDFF80
0FF8FF00
03E07C00
ENDCHAR
STARTCHAR 0400
ENCODING 1024
SWIDTH 675 0
DWIDTH 30 0
BBX 23 41 4 0
BITMAP
03E000
01F000
00F800
003800
001C00
000C00
000000
000000
000000
FFFFFC
FFFFFC
FFFFFC
FFFFFC
F00000
F00000
F00000
F00000
F00000
F00000
F00000
F00000
F00000
F00000
FFFFFC
FFFFFC
FFFFFC
FFFFFC
F00000
F00000
F00000
F00000
F00000
F00000
F00000
F00000
F00000
F00000
FFFFFE
FFFFFE
FFFFFE
FFFFFE
ENDCHAR
STARTCHAR 0401
ENCODING 1025
SWIDTH 675 0
DWIDTH 30 0
BBX 23 40 4 0
BITMAP
07CF80
07CF80
07CF80
07CF80
07CF80
000000
000000
000000
FFFFFC
FFFFFC
FFFFFC
FFFFFC
F00000
F00000
F00000
F00000
F00000
F00000
F00000
F00000
F00000
F00000
FFFFFC
FFFFFC
FFFFFC
FFFFFC
F00000
F00000
F00000
F00000
F00000
F00000
F00000
F00000
F00000
F00000
FFFFFE
FFFFFE
FFFFFE
FFFFFE
ENDCHAR
STARTCHAR 0402
ENCODING 1026
SWIDTH 855 0
DWIDTH 38 0
BBX 33 32 1 0
BITMAP
FFFFFC0000
FFFFFC0000
FFFFFC0000
FFFFFC0000
003E000000
003E000000
003E000000
003E000000
003E000000
003E000000
003E07C000
003E7FFC00
003EFFFE00
003FFFFF00
003FC01F80
003F800F80
003F000780
003E000780
003E000780
003E000780
003E000780
003E000780
003E000780
003E000780
003E000780
003E000780
003E000780
003E000780
003E0FFF80
003E0FFF00
003E0FFE00
003E0FF800
ENDCHAR
STARTCHAR 0403
ENCODING 1027
SWIDTH 540 0
DWIDTH 24 0
BBX 20 41 4 0
BITMAP
007C00
00F800
00F000
01E000
03C000
038000
000000
000000
000000
FFFFF0
FFFFF0
FFFFF0
FFFFF0
F00000
F00000
F00000
F00000
F00000
F00000
F00000
F00000
F00000
F00000
F00000
F00000
F00000
F00000
F00000
F00000
F00000
F00000
F00000
F00000
F00000
F00000
F00000
F00000
F00000
F00000
F00000
F00000
ENDCHAR
STARTCHAR 0404
ENCODING 1028
SWIDTH 720 0
DWIDTH 32 0
BBX 30 34 1 -1
BITMAP
001FF000
00FFFC00
01FFFF00
07FFFFC0
0FE00FE0
1F8003E0
1F0001F0
3E0000F8
7C0000F8
7800007C
78000020
F8000000
F0000000
F0000000
F0000000
FFFFC000
FFFFC000
FFFFC000
FFFFC000
F0000000
F0000000
F0000000
F800003C
7800003C
7C00007C
7C000078
3E0000F8
1F0001F0
1F8003E0
0FE00FC0
07FFFF80
03FFFF00
00FFFC00
001FE000
ENDCHAR
STARTCHAR 0405
ENCODING 1029
SWIDTH 675 0
DWIDTH 30 0
BBX 26 34 2 -1
BITMAP
007F8000
03FFF000
0FFFF800
1FF7FC00
1F007E00
3E001F00
3C000F00
78000F00
78000F00
78000700
7C000000
7C000000
3E000000
3FC00000
1FF80000
0FFF8000
03FFF000
007FFC00
0007FE00
0000FF00
00001F80
00000F80
00000780
F00007C0
F00007C0
F8000780
78000780
7C000780
7E000F00
3F003F00
1FFFFE00
0FFFFC00
03FFF000
00FF8000
ENDCHAR
STARTCHAR 0406
ENCODING 1030
SWIDTH 270 0
DWIDTH 12 0
BBX 4 32 4 0
BITMAP
F0
F0
F0
F0
F0
F0
F0
F0
F0
F0
F0
F0
F0
F0
F0
F0
F0
F0
F0
F0
F0
F0
F0
F0
F0
F0
F0
F0
F0
F0
F0
F0
ENDCHAR
STARTCHAR 0407
ENCODING 1031
SWIDTH 270 0
DWIDTH 12 0
BBX 12 40 0 0
BITMAP
F9F0
F9F0
F9F0
F9F0
F9F0
0000
0000
0000
0F00
0F00
0F00
0F00
0F00
0F00
0F00
0F00
0F00
0F00
0F00
0F00
0F00
0F00
0F00
0F00
0F00
0F00
0F00
0F00
0F00
0F00
0F00
0F00
0F00
0F00
0F00
0F00
0F00
0F00
0F00
0F00
ENDCHAR
STARTCHAR 0408
ENCODING 1032
SWIDTH 495 0
DWIDTH 22 0
BBX 18 33 1 -1
BITMAP
0003C0
0003C0
0003C0
0003C0
0003C0
0003C0
0003C0
0003C0
0003C0
0003C0
0003C0
0003C0
0003C0
0003C0
0003C0
0003C0
0003C0
0003C0
0003C0
0003C0
0003C0
0003C0
F003C0
F003C0
F003C0
F007C0
F007C0
F80780
7C0F80
7FFF00
3FFE00
1FFC00
07F000
ENDCHAR
STARTCHAR 0409
ENCODING 1033
SWIDTH 1057 0
DWIDTH 47 0
BBX 45 32 1 0
BITMAP
03FFFFC00000
03FFFFC00000
03FFFFC00000
03FFFFC00000
03C003C00000
03C003C00000
03C003C00000
03C003C00000
03C003C00000
03C003C00000
03C003C00000
03C003C00000
03C003C00000
03C003FFF000
03C003FFFF00
03C003FFFFC0
03C003FFFFE0
03C003C007F0
03C003C001F0
03C003C000F8
03C003C000F8
03C003C00078
07C003C00078
078003C00078
078003C000F8
078003C000F8
0F0003C001F0
1F0003C003F0
FE0003FFFFE0
FC0003FFFFC0
F80003FFFF80
F00003FFFE00
ENDCHAR
STARTCHAR 040A
ENCODING 1034
SWIDTH 1012 0
DWIDTH 45 0
BBX 42 32 2 0
BITMAP
F8003C000000
F8003C000000
F8003C000000
F8003C000000
F8003C000000
F8003C000000
F8003C000000
F8003C000000
F8003C000000
F8003C000000
F8003C000000
F8003C000000
F8003C000000
FFFFFFFF8000
FFFFFFFFF800
FFFFFFFFFE00
FFFFFFFFFF00
F8003C003F80
F8003C000F80
F8003C000780
F8003C0007C0
F8003C0003C0
F8003C0003C0
F8003C0003C0
F8003C0007C0
F8003C0007C0
F8003C000F80
F8003C001F80
F8003FFFFF00
F8003FFFFE00
F8003FFFFC00
F8003FFFE000
ENDCHAR
STARTCHAR 040B
ENCODING 1035
SWIDTH 855 0
DWIDTH 38 0
BBX 32 32 1 0
BITMAP
FFFFFF00
FFFFFF00
FFFFFF00
FFFFFF00
003C0000
003C0000
003C0000
003C0000
003C0000
003C0000
003C0780
003C7FF0
003CFFFC
003DFFFE
003FC07E
003F001F
003E000F
003E000F
003C000F
003C000F
003C000F
003C000F
003C000F
003C000F
003C000F
003C000F
003C000F
003C000F
003C000F
003C000F
003C000F
003C000F
ENDCHAR
STARTCHAR 040C
ENCODING 1036
SWIDTH 585 0
DWIDTH 26 0
BBX 21 41 3 0
BITMAP
003E00
003C00
007800
00F000
00E000
01C000
000000
000000
000000
F003E0
F003C0
F007C0
F00780
F00F80
F01F00
F01E00
F03E00
F03C00
F07C00
F0F800
F0F000
F1F000
FFE000
FFE000
FFC000
FFE000
F1F000
F0F000
F0F800
F07C00
F03C00
F03E00
F01F00
F00F00
F00F80
F007C0
F003C0
F003E0
F001F0
F000F0
F000F8
ENDCHAR
STARTCHAR 040D
ENCODING 1037
SWIDTH 720 0
DWIDTH 32 0
BBX 26 41 3 0
BITMAP
00F80000
007C0000
003C0000
001E0000
000F0000
00070000
00000000
00000000
00000000
F80007C0
F80007C0
F80007C0
F80007C0
F80007C0
F8000FC0
F8001FC0
F8003FC0
F8007FC0
F800FFC0
F801F7C0
F803F7C0
F807E7C0
F807C7C0
F80F87C0
F81F07C0
F83E07C0
F87C07C0
F8F807C0
F9F007C0
FBF007C0
FFE007C0
FFC007C0
FF8007C0
FF0007C0
FE0007C0
FC0007C0
F80007C0
F80007C0
F80007C0
F80007C0
F80007C0
ENDCHAR
STARTCHAR 040E
ENCODING 1038
SWIDTH 630 0
DWIDTH 28 0
BBX 27 41 1 0
BITMAP
03807000
01C07000
01E1E000
01FFE000
00FFC000
003F0000
00000000
00000000
00000000
F80003E0
780007C0
7C0007C0
7C000780
3E000F80
3E000F00
1F001F00
1F001F00
0F801E00
0F803E00
07803C00
07C07C00
03C07800
03E0F800
01E0F800
01F0F000
00F1F000
00F1E000
00FBE000
007BC000
007FC000
003F8000
003F8000
001F8000
001F0000
001F0000
001E0000
003E0000
07FC0000
07FC0000
07F80000
07E00000
ENDCHAR
STARTCHAR 040F
ENCODING 1039
SWIDTH 720 0
DWIDTH 32 0
BBX 24 39 4 -7
BITMAP
F0000F
F0000F
F0000F
F0000F
F0000F
F0000F
F0000F
F0000F
F0000F
F0000F
F0000F
F0000F
F0000F
F0000F
F0000F
F0000F
F0000F
F0000F
F0000F
F0000F
F0000F
F0000F
F0000F
F0000F
F0000F
F0000F
F0000F
F0000F
FFFFFF
FFFFFF
FFFFFF
FFFFFF
003C00
003C00
003C00
003C00
003C00
003C00
003C00
ENDCHAR
STARTCHAR 0410
ENCODING 1040
SWIDTH 675 0
DWIDTH 30 0
BBX 28 32 1 0
BITMAP
001F8000
001F8000
003FC000
003FC000
003FC000
007BE000
0079E000
0079E000
00F1F000
00F0F000
01F0F000
01E0F800
01E07800
03E07800
03C07C00
03C03C00
07803C00
07803E00
07801E00
0FFFFF00
0FFFFF00
1FFFFF00
1F000F80
1E000F80
3E000780
3C0007C0
3C0007C0
7C0003C0
780003E0
780003E0
F80001E0
F00001F0
ENDCHAR
STARTCHAR 0411
ENCODING 1041
SWIDTH 652 0
DWIDTH 29 0
BBX 25 32 3 0
BITMAP
FFFFFC00
FFFFFC00
FFFFFC00
FFFFFC00
F8000000
F8000000
F8000000
F8000000
F8000000
F8000000
F8000000
F8000000
F8000000
FFFF0000
FFFFF000
FFFFFC00
FFFFFE00
F8007E00
F8001F00
F8000F00
F8000F00
F8000F80
F8000F80
F8000F80
F8000F00
F8000F00
F8001F00
F8003F00
FFFFFE00
FFFFFC00
FFFFF800
FFFFC000
ENDCHAR
STARTCHAR 0412
ENCODING 1042
SWIDTH 675 0
DWIDTH 30 0
BBX 24 32 4 0
BITMAP
FFFF80
FFFFE0
FFFFF0
FFFFF8
F000FC
F0007C
F0003C
F0003C
F0003C
F0003C
F0003C
F0003C
F00078
F001F0
FFFFE0
FFFFC0
FFFFF0
FFFFFC
F0007E
F0003E
F0001E
F0001F
F0000F
F0000F
F0001F
F0001E
F0001E
F0007E
FFFFFC
FFFFF8
FFFFF0
FFFFC0
ENDCHAR
STARTCHAR 0413
ENCODING 1043
SWIDTH 540 0
DWIDTH 24 0
BBX 20 32 4 0
BITMAP
FFFFF0
FFFFF0
FFFFF0
FFFFF0
F00000
F00000
F00000
F00000
F00000
F00000
F00000
F00000
F00000
F00000
F00000
F00000
F00000
F00000
F00000
F00000
F00000
F00000
F00000
F00000
F00000
F00000
F00000
F00000
F00000
F00000
F00000
F00000
ENDCHAR
STARTCHAR 0414
ENCODING 1044
SWIDTH 675 0
DWIDTH 30 0
BBX 29 39 0 -7
BITMAP
00FFFFE0
00FFFFE0
00FFFFE0
00FFFFE0
00F001E0
00F001E0
00F001E0
00F001E0
00F001E0
00F001E0
00F001E0
00F001E0
00F001E0
00F001E0
00F001E0
00F001E0
00F801E0
00F001E0
00F001E0
00F001E0
00F001E0
00F001E0
01F001E0
01E001E0
03E001E0
03C001E0
07C001E0
1F8001E0
FFFFFFF8
FFFFFFF8
FFFFFFF8
FFFFFFF8
F8000078
F8000078
F8000078
F8000078
F8000078
F8000078
F8000078
ENDCHAR
STARTCHAR 0415
ENCODING 1045
SWIDTH 675 0
DWIDTH 30 0
BBX 23 32 4 0
BITMAP
FFFFFC
FFFFFC
FFFFFC
FFFFFC
F00000
F00000
F00000
F00000
F00000
F00000
F00000
F00000
F00000
F00000
FFFFFC
FFFFFC
FFFFFC
FFFFFC
F00000
F00000
F00000
F00000
F00000
F00000
F00000
F00000
F00000
F00000
FFFFFE
FFFFFE
FFFFFE
FFFFFE
ENDCHAR
STARTCHAR 0416
ENCODING 1046
SWIDTH 922 0
DWIDTH 41 0
BBX 41 32 0 0
BITMAP
3C003E001E00
3E003E003E00
1F003E007C00
0F003E007800
0F803E00F800
07803E00F000
07C03E01F000
03E03E03E000
01E03E03C000
01F03E07C000
00F03E078000
00F83E0F8000
007C3E1F0000
003FFFFE0000
003FFFFE0000
003FFFFE0000
003FFFFE0000
007C3E1F0000
00F83E0F8000
00F03E078000
01F03E07C000
03E03E03E000
03C03E01E000
07C03E01F000
0F803E00F800
0F003E007800
1F003E007C00
3E003E003E00
3C003E001E00
7C003E001F00
F8003E000F80
F0003E000780
ENDCHAR
STARTCHAR 0417
ENCODING 1047
SWIDTH 607 0
DWIDTH 27 0
BBX 21 34 3 -1
BITMAP
01FC00
07FF00
0FFF80
1FFFC0
3E03E0
7C01F0
7801F0
7800F0
7800F0
7800F0
F800F0
0000F0
0001E0
0003E0
00FFC0
00FF80
00FF80
00FFE0
0007F0
0001F0
0000F8
000078
000078
F00078
F00078
F00078
F00078
F800F8
7801F0
7E03F0
3FFFE0
1FFFC0
0FFF80
01FC00
ENDCHAR
STARTCHAR 0418
ENCODING 1048
SWIDTH 720 0
DWIDTH 32 0
BBX 26 32 3 0
BITMAP
F80007C0
F80007C0
F80007C0
F80007C0
F80007C0
F8000FC0
F8001FC0
F8003FC0
F8007FC0
F800FFC0
F801F7C0
F803F7C0
F807E7C0
F807C7C0
F80F87C0
F81F07C0
F83E07C0
F87C07C0
F8F807C0
F9F007C0
FBF007C0
FFE007C0
FFC007C0
FF8007C0
FF0007C0
FE0007C0
FC0007C0
F80007C0
F80007C0
F80007C0
F80007C0
F80007C0
ENDCHAR
STARTCHAR 0419
ENCODING 1049
SWIDTH 720 0
DWIDTH 32 0
BBX 25 41 3 0
BITMAP
03807000
03806000
01E1E000
01FFE000
00FFC000
003F0000
00000000
00000000
00000000
F8000780
F8000780
F8000780
F8000780
F8000F80
F8000F80
F8001F80
F8003F80
F8007F80
F800FF80
F801F780
F803F780
F807E780
F80FC780
F80F8780
F81F0780
F83E0780
F87C0780
F8F80780
F9F00780
FBF00780
FFE00780
FFC00780
FF800780
FF000780
FE000780
FC000780
F8000780
F8000780
F8000780
F8000780
F8000780
ENDCHAR
STARTCHAR 041A
ENCODING 1050
SWIDTH 585 0
DWIDTH 26 0
BBX 21 32 3 0
BITMAP
F003E0
F003C0
F007C0
F00780
F00F80
F01F00
F01E00
F03E00
F03C00
F07C00
F0F800
F0F800
F1F000
FFE000
FFE000
FFC000
FFE000
F1F000
F0F000
F07800
F07C00
F03C00
F01E00
F01F00
F00F00
F00780
F007C0
F003C0
F001E0
F001F0
F000F0
F00078
ENDCHAR
STARTCHAR 041B
ENCODING 1051
SWIDTH 652 0
DWIDTH 29 0
BBX 27 32 0 0
BITMAP
07FFFFE0
07FFFFE0
07FFFFE0
07FFFFE0
07C001E0
07C001E0
07C001E0
07C001E0
07C001E0
07C001E0
07C001E0
07C001E0
07C001E0
07C001E0
07C001E0
07C001E0
07C001E0
07C001E0
07C001E0
07C001E0
07C001E0
07C001E0
078001E0
078001E0
078001E0
0F8001E0
0F0001E0
1F0001E0
FE0001E0
FC0001E0
F80001E0
F00001E0
ENDCHAR
STARTCHAR 041C
ENCODING 1052
SWIDTH 832 0
DWIDTH 37 0
BBX 31 32 3 0
BITMAP
FC00007E
FE00007E
FE0000FE
FE0000FE
FF0000FE
FF0001FE
F70001DE
F78003DE
F78003DE
F380039E
F3C0079E
F3C0079E
F1C0071E
F1E00F1E
F1E00F1E
F0E00E1E
F0F01E1E
F0F01E1E
F0701C1E
F0783C1E
F0783C1E
F038381E
F03C781E
F03C781E
F01C701E
F01EF01E
F01EF01E
F00EE01E
F00FE01E
F007E01E
F007C01E
F007C01E
ENDCHAR
STARTCHAR 041D
ENCODING 1053
SWIDTH 720 0
DWIDTH 32 0
BBX 25 32 4 0
BITMAP
F0000F80
F0000F80
F0000F80
F0000F80
F0000F80
F0000F80
F0000F80
F0000F80
F0000F80
F0000F80
F0000F80
F0000F80
F0000F80
F0000F80
FFFFFF80
FFFFFF80
FFFFFF80
FFFFFF80
F0000F80
F0000F80
F0000F80
F0000F80
F0000F80
F0000F80
F0000F80
F0000F80
F0000F80
F0000F80
F0000F80
F0000F80
F0000F80
F0000F80
ENDCHAR
STARTCHAR 041E
ENCODING 1054
SWIDTH 787 0
DWIDTH 35 0
BBX 31 34 2 -1
BITMAP
001FF000
00FFFC00
01FFFF00
07FFFF80
0FE00FC0
1F8003E0
1F0001F0
3E0000F8
7C000078
7800007C
7800003C
F800003C
F000003E
F000003E
F000001E
F000001E
F000001E
F000001E
F000001E
F000001E
F000001E
F000003C
F800003C
7800003C
7C00007C
7C000078
3E0000F8
1F0001F0
1F8003E0
0FE00FC0
07FFFF80
03FFFF00
00FFFC00
001FE000
ENDCHAR
STARTCHAR 041F
ENCODING 1055
SWIDTH 720 0
DWIDTH 32 0
BBX 24 32 4 0
BITMAP
FFFFFF
FFFFFF
FFFFFF
FFFFFF
F0000F
F0000F
F0000F
F0000F
F0000F
F0000F
F0000F
F0000F
F0000F
F0000F
F0000F
F0000F
F0000F
F0000F
F0000F
F0000F
F0000F
F0000F
F0000F
F0000F
F0000F
F0000F
F0000F
F0000F
F0000F
F0000F
F0000F
F0000F
ENDCHAR
STARTCHAR 0420
ENCODING 1056
SWIDTH 675 0
DWIDTH 30 0
BBX 23 32 4 0
BITMAP
FFFF80
FFFFF0
FFFFF8
FFFFFC
F0007C
F0003E
F0001E
F0001E
F0001E
F0001E
F0001E
F0001E
F0003E
F0007E
F000FC
FFFFF8
FFFFF0
FFFFE0
FFFF00
F00000
F00000
F00000
F00000
F00000
F00000
F00000
F00000
F00000
F00000
F00000
F00000
F00000
ENDCHAR
STARTCHAR 0421
ENCODING 1057
SWIDTH 720 0
DWIDTH 32 0
BBX 28 34 2 -1
BITMAP
001FE000
00FFFC00
01FFFE00
07FFFF80
0FE01FC0
1F8007C0
1F0003E0
3E0001E0
3C0001F0
7C0001F0
780001F0
78000000
F8000000
F0000000
F0000000
F0000000
F0000000
F0000000
F0000000
F0000000
F0000000
F8000000
780000F0
780000F0
7C0001F0
3C0001F0
3E0001E0
1F0003E0
1F8007C0
0FE01F80
07FFFF00
03FFFE00
00FFF800
003FE000
ENDCHAR
STARTCHAR 0422
ENCODING 1058
SWIDTH 607 0
DWIDTH 27 0
BBX 25 32 1 0
BITMAP
FFFFFF80
FFFFFF80
FFFFFF80
FFFFFF80
003E0000
003E0000
003E0000
003E0000
003E0000
003E0000
003E0000
003E0000
003E0000
003E0000
003E0000
003E0000
003E0000
003E0000
003E0000
003E0000
003E0000
003E0000
003E0000
003E0000
003E0000
003E0000
003E0000
003E0000
003E0000
003E0000
003E0000
003E0000
ENDCHAR
STARTCHAR 0423
ENCODING 1059
SWIDTH 630 0
DWIDTH 28 0
BBX 27 32 1 0
BITMAP
F80003E0
780007C0
7C0007C0
7C000780
3E000F80
3E000F00
1F001F00
1F001F00
0F801E00
0F803E00
07803C00
07C07C00
03C07800
03E0F800
01E0F800
01F0F000
00F1F000
00F1E000
00FBE000
007BC000
007FC000
003F8000
003F8000
001F8000
001F0000
001F0000
001E0000
003E0000
07FC0000
07FC0000
07F80000
07E00000
ENDCHAR
STARTCHAR 0424
ENCODING 1060
SWIDTH 765 0
DWIDTH 34 0
BBX 32 34 1 -1
BITMAP
0003C000
0003C000
0003C000
0003C000
001FF800
00FFFF00
03FFFFC0
0FFFFFF0
1FC3C3F8
1F03C1F8
3E03C07C
7C03C03E
7803C03E
7803C01E
F803C01E
F803C01E
F003C01F
F003C01F
F803C01E
F803C01E
7803C01E
7803C03E
7C03C03C
3E03C07C
1F03C1F8
1FC3C7F8
0FFFFFF0
03FFFFC0
00FFFF00
001FF800
0003C000
0003C000
0003C000
0003C000
ENDCHAR
STARTCHAR 0425
ENCODING 1061
SWIDTH 675 0
DWIDTH 30 0
BBX 27 32 1 0
BITMAP
7C0003E0
3E0007C0
3E000780
1F000F80
0F801F00
0F801E00
07C03E00
03E07C00
03E07800
01F0F800
00F9F000
0079E000
007FC000
003FC000
001F8000
001F0000
001F8000
003FC000
007FC000
007BE000
00F9F000
01F0F000
01E0F800
03E07C00
07C03E00
0F803E00
0F801F00
1F000F80
3E000F80
3E0007C0
7C0003E0
F80003E0
ENDCHAR
STARTCHAR 0426
ENCODING 1062
SWIDTH 742 0
DWIDTH 33 0
BBX 27 39 4 -7
BITMAP
F0000F80
F0000F80
F0000F80
F0000F80
F0000F80
F0000F80
F0000F80
F0000F80
F0000F80
F0000F80
F0000F80
F0000F80
F0000F80
F0000F80
F0000F80
F0000F80
F0000F80
F0000F80
F0000F80
F0000F80
F0000F80
F0000F80
F0000F80
F0000F80
F0000F80
F0000F80
F0000F80
F0000F80
FFFFFFE0
FFFFFFE0
FFFFFFE0
FFFFFFE0
000001E0
000001E0
000001E0
000001E0
000001E0
000001E0
000001E0
ENDCHAR
STARTCHAR 0427
ENCODING 1063
SWIDTH 675 0
DWIDTH 30 0
BBX 25 32 2 0
BITMAP
F0000780
F0000780
F0000780
F0000780
F0000780
F0000780
F0000780
F0000780
F0000780
F0000780
F0000780
F0000780
F0000780
F0000780
F8000780
78000780
7E001F80
3FFFFF80
1FFFFF80
0FFFFF80
01FF8780
00000780
00000780
00000780
00000780
00000780
00000780
00000780
00000780
00000780
00000780
00000780
ENDCHAR
STARTCHAR 0428
ENCODING 1064
SWIDTH 922 0
DWIDTH 41 0
BBX 36 32 2 0
BITMAP
F000F000F0
F000F000F0
F000F000F0
F000F000F0
F000F000F0
F000F000F0
F000F000F0
F000F000F0
F000F000F0
F000F000F0
F000F000F0
F000F000F0
F000F000F0
F000F000F0
F000F000F0
F000F000F0
F000F000F0
F000F000F0
F000F000F0
F000F000F0
F000F000F0
F000F000F0
F000F000F0
F000F000F0
F000F000F0
F000F000F0
F000F000F0
F000F000F0
FFFFFFFFF0
FFFFFFFFF0
FFFFFFFFF0
FFFFFFFFF0
ENDCHAR
STARTCHAR 0429
ENCODING 1065
SWIDTH 945 0
DWIDTH 42 0
BBX 40 39 2 -7
BITMAP
F800F80078
F800F80078
F800F80078
F800F80078
F800F80078
F800F80078
F800F80078
F800F80078
F800F80078
F800F80078
F800F80078
F800F80078
F800F80078
F800F80078
F800F80078
F800F80078
F800F80078
F800F80078
F800F80078
F800F80078
F800F80078
F800F80078
F800F80078
F800F80078
F800F80078
F800F80078
F800F80078
F800F80078
FFFFFFFFFF
FFFFFFFFFF
FFFFFFFFFF
FFFFFFFFFF
000000001F
000000001F
000000001F
000000001F
000000001F
000000001F
000000001F
ENDCHAR
STARTCHAR 042A
ENCODING 1066
SWIDTH 787 0
DWIDTH 35 0
BBX 35 32 -1 0
BITMAP
FFFF000000
FFFF000000
FFFF000000
FFFF000000
000F000000
000F000000
000F000000
000F000000
000F000000
000F000000
000F000000
000F000000
000F000000
000FFFC000
000FFFFC00
000FFFFF00
000FFFFF80
000F001FC0
000F0007C0
000F0003C0
000F0003E0
000F0001E0
000F0001E0
000F0001E0
000F0003E0
000F0003E0
000F0007C0
000F000FC0
000FFFFF80
000FFFFF00
000FFFFE00
000FFFF800
ENDCHAR
STARTCHAR 042B
ENCODING 1067
SWIDTH 877 0
DWIDTH 39 0
BBX 32 32 4 0
BITMAP
F000001F
F000001F
F000001F
F000001F
F000001F
F000001F
F000001F
F000001F
F000001F
F000001F
F000001F
F000001F
F000001F
FFFE001F
FFFFF01F
FFFFF81F
FFFFFC1F
F000FE1F
F0003E1F
F0001F1F
F0001F1F
F0000F1F
F0000F1F
F0000F1F
F0000F1F
F0001F1F
F0003E1F
F0007E1F
FFFFFC1F
FFFFF81F
FFFFF01F
FFFFC01F
ENDCHAR
STARTCHAR 042C
ENCODING 1068
SWIDTH 652 0
DWIDTH 29 0
BBX 25 32 3 0
BITMAP
F8000000
F8000000
F8000000
F8000000
F8000000
F8000000
F8000000
F8000000
F8000000
F8000000
F8000000
F8000000
F8000000
FFFF0000
FFFFF000
FFFFFC00
FFFFFE00
F8007E00
F8001F00
F8000F00
F8000F00
F8000F80
F8000F80
F8000F80
F8000F80
F8000F00
F8001F00
F8003F00
FFFFFE00
FFFFFC00
FFFFF800
FFFFC000
ENDCHAR
STARTCHAR 042D
ENCODING 1069
SWIDTH 720 0
DWIDTH 32 0
BBX 30 34 1 -1
BITMAP
001FE000
00FFFC00
03FFFF00
07FFFF80
0FC01FC0
1F0007E0
3E0003E0
7C0001F0
780000F8
F80000F8
10000078
0000007C
0000003C
0000003C
0000003C
000FFFFC
000FFFFC
000FFFFC
000FFFFC
0000003C
0000003C
0000003C
F000007C
F0000078
F8000078
780000F8
7C0001F0
3E0003E0
1F0007E0
1FC01FC0
07FFFF80
03FFFE00
00FFFC00
003FE000
ENDCHAR
STARTCHAR 042E
ENCODING 1070
SWIDTH 1012 0
DWIDTH 45 0
BBX 40 34 3 -1
BITMAP
000003FC00
F0001FFF00
F0003FFFC0
F000FFFFE0
F001FC03F0
F003F001F8
F003E0007C
F007C0007C
F00780003E
F00F80003E
F00F00001E
F00F00001E
F01F00001F
F01E00000F
FFFE00000F
FFFE00000F
FFFE00000F
FFFE00000F
F01E00000F
F01E00000F
F01E00000F
F01F00001F
F00F00001E
F00F00001E
F00F80003E
F00780003C
F007C0007C
F003E000F8
F003F001F8
F001FC03F0
F000FFFFE0
F0007FFFC0
F0001FFF00
000003FC00
ENDCHAR
STARTCHAR 042F
ENCODING 1071
SWIDTH 720 0
DWIDTH 32 0
BBX 25 32 3 0
BITMAP
01FFFF80
0FFFFF80
1FFFFF80
3FFFFF80
7E000780
7C000780
78000780
78000780
F8000780
78000780
78000780
78000780
7C000780
3E000780
1FFFFF80
07FFFF80
0FFFFF80
1FFFFF80
3F000780
3C000780
7C000780
78000780
78000780
78000780
78000780
78000780
78000780
78000780
78000780
78000780
F8000780
F0000780
ENDCHAR
STARTCHAR 0430
ENCODING 1072
SWIDTH 562 0
DWIDTH 25 0
BBX 22 25 2 -1
BITMAP
03FC00
0FFF80
1FFFC0
3F9FC0
7C03E0
7801E0
7801E0
7801E0
0001E0
0003E0
003FE0
0FFFE0
1FFFE0
7FE1E0
7C01E0
F801E0
F001E0
F001E0
F001E0
F003E0
F807E0
7C3FF0
7FFDFC
3FF8FC
0FE07C
ENDCHAR
STARTCHAR 0431
ENCODING 1073
SWIDTH 562 0
DWIDTH 25 0
BBX 21 36 2 -1
BITMAP
000380
000380
000780
000780
000F80
00FF00
03FF00
0FFC00
1FE000
1E0000
3C0000
38FC00
7BFF00
7FFFC0
7FDFE0
7E03E0
7C01F0
7800F0
F80078
F80078
F00078
F00078
F00078
F00078
F00078
F00078
F00078
780078
780078
7800F0
3C01F0
3E03E0
1FCFE0
0FFFC0
07FF00
01FC00
ENDCHAR
STARTCHAR 0432
ENCODING 1074
SWIDTH 540 0
DWIDTH 24 0
BBX 19 23 3 0
BITMAP
FFFE00
FFFF00
FFFF80
E007C0
E003C0
E003C0
E001C0
E003C0
E007C0
FFFF80
FFFF00
FFFF80
E007C0
E001E0
E001E0
E001E0
E000E0
E001E0
E001E0
E007E0
FFFFC0
FFFF80
FFFF00
ENDCHAR
STARTCHAR 0433
ENCODING 1075
SWIDTH 360 0
DWIDTH 16 0
BBX 14 23 3 0
BITMAP
FFFC
FFFC
FFFC
E000
E000
E000
E000
E000
E000
E000
E000
E000
E000
E000
E000
E000
E000
E000
E000
E000
E000
E000
E000
ENDCHAR
STARTCHAR 0434
ENCODING 1076
SWIDTH 585 0
DWIDTH 26 0
BBX 23 27 1 -4
BITMAP
03FFF8
03FFF8
03FFF8
03C038
03C038
03C038
03C038
03C038
03C038
03C038
03C038
038038
078038
078038
078038
0F0038
0F0038
1E0038
3C0038
FC0038
FFFFFE
FFFFFE
FFFFFE
F0001E
F0001E
F0001E
F0001E
ENDCHAR
STARTCHAR 0435
ENCODING 1077
SWIDTH 562 0
DWIDTH 25 0
BBX 21 25 2 -1
BITMAP
01FC00
07FF00
0FFF80
1FDFC0
3E03E0
3C01F0
7800F0
7800F0
F00078
F00078
F00078
FFFFF8
FFFFF8
FFFFF8
F00000
F00000
F00000
F00070
7800F0
7C00F0
3E01E0
3FDFC0
1FFFC0
07FF00
01FC00
ENDCHAR
STARTCHAR 0436
ENCODING 1078
SWIDTH 675 0
DWIDTH 30 0
BBX 30 23 0 0
BITMAP
7C0780F0
3C0781F0
1E0781E0
1E0783E0
0F0783C0
0F0787C0
07878780
07C78F00
03C78F00
03FFFE00
01FFFE00
03FFFF00
07C78F00
07878F80
0F878780
0F0783C0
1F0783E0
1E0781E0
3C0781F0
7C0780F0
78078078
F807807C
F007803C
ENDCHAR
STARTCHAR 0437
ENCODING 1079
SWIDTH 450 0
DWIDTH 20 0
BBX 16 25 2 -1
BITMAP
07E0
1FF8
3FFC
3F7E
781F
780F
700F
F00F
F00F
001E
007E
03FC
03F8
03FE
003F
000F
000F
F007
F00F
F00F
F81F
7E7E
3FFC
1FF8
07E0
ENDCHAR
STARTCHAR 0438
ENCODING 1080
SWIDTH 562 0
DWIDTH 25 0
BBX 17 23 4 0
BITMAP
E00380
E00380
E00780
E00F80
E00F80
E01F80
E03F80
E07B80
E07B80
E0F380
E1E380
E3C380
E3C380
E78380
EF0380
FE0380
FE0380
FC0380
F80380
F00380
F00380
E00380
E00380
ENDCHAR
STARTCHAR 0439
ENCODING 1081
SWIDTH 562 0
DWIDTH 25 0
BBX 17 33 4 0
BITMAP
300E00
380E00
3C1E00
1FFC00
1FF800
07F000
000000
000000
000000
000000
E00380
E00380
E00780
E00F80
E00F80
E01F80
E03F80
E07B80
E07B80
E0F380
E1E380
E3C380
E3C380
E78380
EF0380
FE0380
FE0380
FC0380
F80380
F00380
F00380
E00380
E00380
ENDCHAR
STARTCHAR 043A
ENCODING 1082
SWIDTH 427 0
DWIDTH 19 0
BBX 19 23 2 0
BITMAP
E00F80
E00F00
E01F00
E01E00
E03E00
E03C00
E07C00
E07800
E0F000
FFF000
FFF000
FFF000
E0F800
E07800
E07C00
E03C00
E01E00
E01F00
E00F00
E00F80
E00780
E003C0
E003E0
ENDCHAR
STARTCHAR 043B
ENCODING 1083
SWIDTH 585 0
DWIDTH 26 0
BBX 21 23 1 0
BITMAP
0FFFF8
0FFFF8
0FFFF8
0F0038
0F0038
0F0038
0F0038
0F0038
0F0038
0F0038
0F0038
0F0038
0F0038
0F0038
0F0038
0F0038
0F0038
1E0038
3E0038
7C0038
FC0038
F80038
E00038
ENDCHAR
STARTCHAR 043C
ENCODING 1084
SWIDTH 697 0
DWIDTH 31 0
BBX 27 23 2 0
BITMAP
FC0007E0
FC000FE0
FE000FE0
FE000FE0
FE001DE0
FF001DE0
F7003DE0
F78039E0
F38039E0
F38071E0
F3C071E0
F1C0F1E0
F1E0E1E0
F0E0E1E0
F0E1E1E0
F0F1C1E0
F073C1E0
F07B81E0
F03B81E0
F03F81E0
F03F01E0
F01F01E0
F01E01E0
ENDCHAR
STARTCHAR 043D
ENCODING 1085
SWIDTH 562 0
DWIDTH 25 0
BBX 18 23 3 0
BITMAP
F001C0
F001C0
F001C0
F001C0
F001C0
F001C0
F001C0
F001C0
F001C0
FFFFC0
FFFFC0
FFFFC0
F001C0
F001C0
F001C0
F001C0
F001C0
F001C0
F001C0
F001C0
F001C0
F001C0
F001C0
ENDCHAR
STARTCHAR 043E
ENCODING 1086
SWIDTH 562 0
DWIDTH 25 0
BBX 21 25 2 -1
BITMAP
01FC00
07FF00
1FFF80
3FDFC0
3E03E0
7C01F0
7800F0
7800F0
F000F8
F00078
F00078
F00078
F00078
F00078
F00078
F00078
F00078
F800F0
7800F0
7C01F0
3E03E0
3FDFC0
1FFF80
07FF00
01FC00
ENDCHAR
STARTCHAR 043F
ENCODING 1087
SWIDTH 540 0
DWIDTH 24 0
BBX 18 23 3 0
BITMAP
FFFFC0
FFFFC0
FFFFC0
F003C0
F003C0
F003C0
F003C0
F003C0
F003C0
F003C0
F003C0
F003C0
F003C0
F003C0
F003C0
F003C0
F003C0
F003C0
F003C0
F003C0
F003C0
F003C0
F003C0
ENDCHAR
STARTCHAR 0440
ENCODING 1088
SWIDTH 562 0
DWIDTH 25 0
BBX 20 34 3 -10
BITMAP
00FC00
E3FF00
EFFF80
EFFFC0
FC07E0
F803E0
F801E0
F000F0
F000F0
F000F0
E000F0
E00070
E00070
E00070
E000F0
F000F0
F000F0
F000F0
F801E0
F803E0
FE07C0
FFBFC0
EFFF80
E7FF00
E1FC00
E00000
E00000
E00000
E00000
E00000
E00000
E00000
E00000
E00000
ENDCHAR
STARTCHAR 0441
ENCODING 1089
SWIDTH 495 0
DWIDTH 22 0
BBX 20 25 1 -1
BITMAP
00FC00
07FF00
0FFFC0
1FDFC0
3E03E0
3C01E0
7C00F0
7800F0
7800F0
780000
F00000
F00000
F00000
F00000
F00000
700000
7800F0
7800F0
7C00F0
3C01E0
3E03E0
1FDFC0
0FFF80
07FF00
01FC00
ENDCHAR
STARTCHAR 0442
ENCODING 1090
SWIDTH 450 0
DWIDTH 20 0
BBX 17 23 2 0
BITMAP
FFFF80
FFFF80
FFFF80
03C000
03C000
03C000
03C000
03C000
03C000
03C000
03C000
03C000
03C000
03C000
03C000
03C000
03C000
03C000
03C000
03C000
03C000
03C000
03C000
ENDCHAR
STARTCHAR 0443
ENCODING 1091
SWIDTH 495 0
DWIDTH 22 0
BBX 20 32 1 -10
BITMAP
F000F0
F000F0
7801E0
7801E0
7801E0
3C03C0
3C03C0
1C03C0
1E0780
1E0780
0E0700
0F0F00
0F0F00
070E00
079E00
079E00
03BC00
03FC00
03F800
01F800
01F800
01F000
00F000
00F000
01E000
01E000
03C000
03C000
07C000
7F8000
7F0000
7E0000
ENDCHAR
STARTCHAR 0444
ENCODING 1092
SWIDTH 832 0
DWIDTH 37 0
BBX 31 39 3 -10
BITMAP
00078000
00078000
00078000
00078000
00078000
003FF800
01FFFF00
07FFFFC0
0FFFBFE0
1F8783F0
3E0781F8
3C078078
7807807C
7807803C
7007803C
F007803C
F007801E
F007801E
F007801E
F007801C
7007803C
7807803C
7807807C
3C078078
3E0780F8
1F8783F0
0FF7BFE0
07FFFFC0
01FFFF00
003FF800
00078000
00078000
00078000
00078000
00078000
00078000
00078000
00078000
00078000
ENDCHAR
STARTCHAR 0445
ENCODING 1093
SWIDTH 495 0
DWIDTH 22 0
BBX 20 23 1 0
BITMAP
F801F0
7C01E0
3C03C0
1E07C0
1F0780
0F0F00
079F00
07DE00
03FC00
01F800
00F800
00F000
01F800
01FC00
03FC00
079E00
078F00
0F0F00
1E0780
1E03C0
3C03C0
7801E0
F001F0
ENDCHAR
STARTCHAR 0446
ENCODING 1094
SWIDTH 562 0
DWIDTH 25 0
BBX 19 30 4 -7
BITMAP
F00780
F00780
F00780
F00780
F00780
F00780
F00780
F00780
F00780
F00780
F00780
F00780
F00780
F00780
F00780
F00780
F00780
F00780
F00780
F00780
FFFFE0
FFFFE0
FFFFE0
0001E0
0001E0
0001E0
0001E0
0001E0
0001E0
0001E0
ENDCHAR
STARTCHAR 0447
ENCODING 1095
SWIDTH 517 0
DWIDTH 23 0
BBX 17 23 3 0
BITMAP
E00780
E00780
E00780
E00780
E00780
E00780
E00780
E00780
E00780
E00780
F00780
F80F80
FFFF80
7FFF80
1FF780
000780
000780
000780
000780
000780
000780
000780
000780
ENDCHAR
STARTCHAR 0448
ENCODING 1096
SWIDTH 810 0
DWIDTH 36 0
BBX 30 23 3 0
BITMAP
F007803C
F007803C
F007803C
F007803C
F007803C
F007803C
F007803C
F007803C
F007803C
F007803C
F007803C
F007803C
F007803C
F007803C
F007803C
F007803C
F007803C
F007803C
F007803C
F007803C
FFFFFFFC
FFFFFFFC
FFFFFFFC
ENDCHAR
STARTCHAR 0449
ENCODING 1097
SWIDTH 832 0
DWIDTH 37 0
BBX 32 30 3 -7
BITMAP
F007803C
F007803C
F007803C
F007803C
F007803C
F007803C
F007803C
F007803C
F007803C
F007803C
F007803C
F007803C
F007803C
F007803C
F007803C
F007803C
F007803C
F007803C
F007803C
F007803C
FFFFFFFF
FFFFFFFF
FFFFFFFF
0000000F
0000000F
0000000F
0000000F
0000000F
0000000F
0000000F
ENDCHAR
STARTCHAR 044A
ENCODING 1098
SWIDTH 630 0
DWIDTH 28 0
BBX 28 23 -1 0
BITMAP
FFF80000
FFF80000
FFF80000
00780000
00780000
00780000
00780000
00780000
00780000
007FFF00
007FFF80
007FFFE0
007803E0
007801F0
007800F0
007800F0
007800F0
007800F0
007801F0
007803E0
007FFFE0
007FFFC0
007FFF00
ENDCHAR
STARTCHAR 044B
ENCODING 1099
SWIDTH 720 0
DWIDTH 32 0
BBX 24 23 4 0
BITMAP
E00007
E00007
E00007
E00007
E00007
E00007
E00007
E00007
E00007
FFFC07
FFFF07
FFFF87
E00F87
E003C7
E003C7
E003C7
E003C7
E003C7
E003C7
E00F87
FFFF87
FFFF07
FFFC07
ENDCHAR
STARTCHAR 044C
ENCODING 1100
SWIDTH 517 0
DWIDTH 23 0
BBX 19 23 3 0
BITMAP
F00000
F00000
F00000
F00000
F00000
F00000
F00000
F00000
F00000
FFFC00
FFFF00
FFFF80
F00FC0
F003C0
F001E0
F001E0
F001E0
F001E0
F003C0
F007C0
FFFF80
FFFF00
FFFC00
ENDCHAR
STARTCHAR 044D
ENCODING 1101
SWIDTH 517 0
DWIDTH 23 0
BBX 21 25 1 -1
BITMAP
01FC00
07FF00
1FFF80
3FDFC0
3E03E0
7801E0
7800F0
F000F0
0000F0
000078
00FFF8
00FFF8
00FFF8
000078
000078
300070
F000F0
F800F0
7801F0
7C01E0
3E03E0
3FDFC0
1FFF80
0FFF00
01F800
ENDCHAR
STARTCHAR 044E
ENCODING 1102
SWIDTH 742 0
DWIDTH 33 0
BBX 30 25 2 -1
BITMAP
0000FE00
F003FFC0
F007FFE0
F00FEFF0
F01F01F0
F01E00F8
F03C0078
F03C003C
F03C003C
F078003C
FFF8003C
FFF8003C
FFF8003C
F078003C
F078003C
F038003C
F03C003C
F03C003C
F03E0078
F01E00F8
F01F01F0
F00FE7F0
F007FFE0
F003FF80
0000FE00
ENDCHAR
STARTCHAR 044F
ENCODING 1103
SWIDTH 540 0
DWIDTH 24 0
BBX 19 23 2 0
BITMAP
07FFE0
1FFFE0
3FFFE0
7C01E0
F801E0
F001E0
F001E0
F001E0
F001E0
F801E0
7C01E0
3FFFE0
1FFFE0
0FFFE0
1E01E0
3C01E0
3801E0
7801E0
7801E0
7801E0
7801E0
7801E0
7801E0
ENDCHAR
STARTCHAR 0450
ENCODING 1104
SWIDTH 562 0
DWIDTH 25 0
BBX 21 34 2 -1
BITMAP
078000
03C000
01E000
00E000
007000
003800
001800
000000
000000
01FC00
07FF00
0FFF80
1F9FC0
3E03E0
7C01F0
7800F0
7800F0
F000F0
F00078
F00078
FFFFF8
FFFFF8
FFFFF8
F00000
F00000
F00000
F000F0
7800F0
7C01F0
3E03E0
3FDFC0
1FFF80
07FF00
01FC00
ENDCHAR
STARTCHAR 0451
ENCODING 1105
SWIDTH 562 0
DWIDTH 25 0
BBX 21 33 2 -1
BITMAP
0F8F00
0F8F00
0F8F00
0F8F00
0F8F00
000000
000000
000000
01FC00
07FF00
0FFF80
1FDFC0
3E03E0
3C01F0
7800F0
7800F0
F00078
F00078
F00078
FFFFF8
FFFFF8
FFFFF8
F00000
F00000
F00000
F00070
7800F0
7C00F0
3E01E0
3FDFC0
1FFFC0
07FF00
01FC00
ENDCHAR
STARTCHAR 0452
ENCODING 1106
SWIDTH 562 0
DWIDTH 25 0
BBX 23 38 -1 -6
BITMAP
0F0000
0F0000
0F0000
FFF800
FFF800
FFF800
0F0000
0F0000
0F07E0
0F1FF0
0F3FF8
0F7FFC
0FF03C
0FC01E
0FC01E
0F801E
0F001E
0F001E
0F001E
0F001E
0F001E
0F001E
0F001E
0F001E
0F001E
0F001E
0F001E
0F001E
0F001E
0F001E
0F001E
0F001E
00003C
00003C
0001F8
007FF8
007FE0
007F80
ENDCHAR
STARTCHAR 0453
ENCODING 1107
SWIDTH 360 0
DWIDTH 16 0
BBX 14 33 3 0
BITMAP
01F0
01E0
03C0
0780
0700
0E00
1C00
0000
0000
0000
FFFC
FFFC
FFFC
F000
F000
F000
F000
F000
F000
F000
F000
F000
F000
F000
F000
F000
F000
F000
F000
F000
F000
F000
F000
ENDCHAR
STARTCHAR 0454
ENCODING 1108
SWIDTH 517 0
DWIDTH 23 0
BBX 21 25 1 -1
BITMAP
01FC00
07FF00
0FFFC0
1FDFE0
3E03E0
7C01F0
7800F0
7800F0
F00000
F00000
FFF000
FFF000
FFF000
F00000
F00000
F00060
F00078
7800F0
7800F0
7C01F0
3E03E0
1FDFC0
0FFF80
07FF00
01FC00
ENDCHAR
STARTCHAR 0455
ENCODING 1109
SWIDTH 495 0
DWIDTH 22 0
BBX 18 25 2 -1
BITMAP
07F800
1FFE00
3FFF00
7F7F80
780F80
F00780
F00780
F00000
F80000
FC0000
7F8000
3FF800
1FFF00
03FF80
003FC0
0007C0
0003C0
F003C0
F003C0
F003C0
F807C0
7FBF80
7FFF00
1FFE00
07F800
ENDCHAR
STARTCHAR 0456
ENCODING 1110
SWIDTH 225 0
DWIDTH 10 0
BBX 4 32 3 0
BITMAP
F0
F0
F0
F0
F0
00
00
00
00
F0
F0
F0
F0
F0
F0
F0
F0
F0
F0
F0
F0
F0
F0
F0
F0
F0
F0
F0
F0
F0
F0
F0
ENDCHAR
STARTCHAR 0457
ENCODING 1111
SWIDTH 270 0
DWIDTH 12 0
BBX 12 32 0 0
BITMAP
F9F0
F9F0
F9F0
F9F0
F9F0
0000
0000
0000
0000
0F00
0F00
0F00
0F00
0F00
0F00
0F00
0F00
0F00
0F00
0F00
0F00
0F00
0F00
0F00
0F00
0F00
0F00
0F00
0F00
0F00
0F00
0F00
ENDCHAR
STARTCHAR 0458
ENCODING 1112
SWIDTH 225 0
DWIDTH 10 0
BBX 8 42 -1 -10
BITMAP
0F
0F
0F
0F
0F
00
00
00
00
0F
0F
0F
0F
0F
0F
0F
0F
0F
0F
0F
0F
0F
0F
0F
0F
0F
0F
0F
0F
0F
0F
0F
0F
0F
0F
0F
0F
0F
3F
FE
FC
F8
ENDCHAR
STARTCHAR 0459
ENCODING 1113
SWIDTH 900 0
DWIDTH 40 0
BBX 37 23 1 0
BITMAP
0FFFFC0000
0FFFFC0000
0FFFFC0000
0F003C0000
0F003C0000
0F003C0000
0F003C0000
0F003C0000
0F003C0000
0F003FFF00
0F003FFFC0
0F003FFFE0
0F003C03F0
0F003C00F0
0F003C00F0
0F003C0078
0E003C0078
1E003C0070
3E003C00F0
7C003C03F0
FC003FFFE0
F8003FFFC0
E0003FFF00
ENDCHAR
STARTCHAR 045A
ENCODING 1114
SWIDTH 810 0
DWIDTH 36 0
BBX 33 23 2 0
BITMAP
F001C00000
F001C00000
F001C00000
F001C00000
F001C00000
F001C00000
F001C00000
F001C00000
F001C00000
FFFFFFF800
FFFFFFFE00
FFFFFFFF00
F001C01F80
F001C00780
F001C00780
F001C00780
F001C00780
F001C00780
F001C00780
F001C01F80
F001FFFF00
F001FFFE00
F001FFF800
ENDCHAR
STARTCHAR 045B
ENCODING 1115
SWIDTH 562 0
DWIDTH 25 0
BBX 23 32 -1 0
BITMAP
0F0000
0F0000
0F0000
FFF800
FFF800
FFF800
0F0000
0F0000
0F07E0
0F1FF0
0F3FF8
0F7FFC
0FF03C
0FC01E
0FC01E
0F801E
0F001E
0F001E
0F001E
0F001E
0F001E
0F001E
0F001E
0F001E
0F001E
0F001E
0F001E
0F001E
0F001E
0F001E
0F001E
0F001E
ENDCHAR
STARTCHAR 045C
ENCODING 1116
SWIDTH 427 0
DWIDTH 19 0
BBX 19 33 2 0
BITMAP
007800
00F000
01E000
01C000
038000
078000
070000
000000
000000
000000
E00F80
E00F00
E01F00
E01E00
E03E00
E03C00
E07C00
E07800
E0F000
FFF000
FFF000
FFF000
E0F800
E07800
E07C00
E03C00
E01E00
E01F00
E00F00
E00F80
E00780
E003C0
E003E0
ENDCHAR
STARTCHAR 045D
ENCODING 1117
SWIDTH 562 0
DWIDTH 25 0
BBX 17 33 4 0
BITMAP
3E0000
1E0000
0F0000
078000
038000
01C000
00C000
000000
000000
000000
E00380
E00380
E00780
E00F80
E00F80
E01F80
E03F80
E07B80
E07B80
E0F380
E1E380
E3C380
E3C380
E78380
EF0380
FE0380
FE0380
FC0380
F80380
F00380
F00380
E00380
E00380
ENDCHAR
STARTCHAR 045E
ENCODING 1118
SWIDTH 495 0
DWIDTH 22 0
BBX 20 42 1 -10
BITMAP
1C0380
0E0380
0F0700
0FFF00
07FE00
01F800
000000
000000
000000
000000
F000F0
F000F0
7801E0
7801E0
7801E0
3C03C0
3C03C0
1C03C0
1E0780
1E0780
0E0700
0F0F00
0F0F00
070E00
079E00
079E00
03BC00
03FC00
03F800
01F800
01F800
01F000
00F000
00F000
01E000
01E000
03C000
03C000
07C000
7F8000
7F0000
7E0000
ENDCHAR
STARTCHAR 045F
ENCODING 1119
SWIDTH 562 0
DWIDTH 25 0
BBX 17 30 4 -7
BITMAP
E00780
E00780
E00780
E00780
E00780
E00780
E00780
E00780
E00780
E00780
E00780
E00780
E00780
E00780
E00780
E00780
E00780
E00780
E00780
E00780
FFFF80
FFFF80
FFFF80
03C000
03C000
03C000
03C000
03C000
03C000
03C000
ENDCHAR
STARTCHAR 0462
ENCODING 1122
SWIDTH 787 0
DWIDTH 35 0
BBX 33 32 0 0
BITMAP
00F8000000
00F8000000
00F8000000
00F8000000
FFFFF80000
FFFFF80000
FFFFF80000
FFFFF80000
00F8000000
00F8000000
00F8000000
00F8000000
00F8000000
00FFFF0000
00FFFFF000
00FFFFFC00
00FFFFFE00
00F8007E00
00F8001F00
00F8001F00
00F8000F00
00F8000F00
00F8000F80
00F8000F80
00F8000F00
00F8000F00
00F8001F00
00F8003E00
00FFFFFE00
00FFFFFC00
00FFFFF800
00FFFFC000
ENDCHAR
STARTCHAR 0463
ENCODING 1123
SWIDTH 607 0
DWIDTH 27 0
BBX 22 29 2 0
BITMAP
0E0000
0E0000
0E0000
0E0000
0E0000
0E0000
FFE000
FFE000
FFE000
0E0000
0E0000
0E0000
0E0000
0E0000
0E0000
0FFFC0
0FFFF0
0FFFF8
0E00F8
0E003C
0E003C
0E003C
0E003C
0E003C
0E003C
0E00F8
0FFFF8
0FFFF0
0FFFC0
ENDCHAR
STARTCHAR 0472
ENCODING 1138
SWIDTH 787 0
DWIDTH 35 0
BBX 31 34 2 -1
BITMAP
001FF000
00FFFC00
01FFFF00
07FFFF80
0FE00FC0
1F8003E0
1F0001F0
3E0000F8
7C0000F8
7C00007C
7800003C
F800003C
F000003E
F000003E
F1FC001E
FFFF001E
FFFF807E
FFBFFFFE
F803FFFE
F001FF9E
F0007C3E
F000003C
F800003C
7800003C
7800007C
7C000078
3E0000F8
1F0001F0
1F8003E0
0FE00FC0
07FFFF80
03FFFF00
00FFFC00
001FE000
ENDCHAR
STARTCHAR 0473
ENCODING 1139
SWIDTH 562 0
DWIDTH 25 0
BBX 21 25 2 -1
BITMAP
01FC00
07FF00
1FFF80
3FDFC0
3E03E0
7C01F0
7800F0
7800F0
F00078
F00078
F7E078
FFF1F8
FFFFF8
F87FF8
F03E78
F00078
F00078
F800F0
7800F0
7C01F0
3E03E0
3FCFC0
1FFF80
07FF00
01FC00
ENDCHAR
STARTCHAR 0474
ENCODING 1140
SWIDTH 810 0
DWIDTH 36 0
BBX 29 33 4 0
BITMAP
000000F8
F00003F8
F80003F8
780007F8
78000780
7C000F80
3C000F00
3E000F00
3E001F00
1E001E00
1F001E00
0F003E00
0F003C00
0F803C00
07803C00
07807800
07C07800
03C07800
03C0F000
03E0F000
01E0F000
01E0F000
00F1E000
00F1E000
00F9E000
007BC000
007BC000
007FC000
003F8000
003F8000
003F8000
001F0000
001F0000
ENDCHAR
STARTCHAR 0475
ENCODING 1141
SWIDTH 630 0
DWIDTH 28 0
BBX 21 24 4 0
BITMAP
0000F0
F001F8
F003F8
F803C0
7807C0
780780
7C0780
3C0780
3C0F00
3E0F00
1E0F00
1E0E00
0F0E00
0F1E00
0F1E00
079C00
079C00
07BC00
03F800
03F800
03F800
01F000
01F000
01F000
ENDCHAR
STARTCHAR 0490
ENCODING 1168
SWIDTH 495 0
DWIDTH 22 0
BBX 27 39 2 0
BITMAP
000007E0
00000780
00000F00
00000E00
00001C00
00003800
00003000
FFFFF000
FFFFF000
FFFFF000
FFFFF000
F8000000
F8000000
F8000000
F8000000
F8000000
F8000000
F8000000
F8000000
F8000000
F8000000
F8000000
F8000000
F8000000
F8000000
F8000000
F8000000
F8000000
F8000000
F8000000
F8000000
F8000000
F8000000
F8000000
F8000000
F8000000
F8000000
F8000000
F8000000
ENDCHAR
STARTCHAR 0491
ENCODING 1169
SWIDTH 405 0
DWIDTH 18 0
BBX 21 30 4 0
BITMAP
0001F8
0001E0
0003C0
000380
000700
000E00
000C00
FFFC00
FFFC00
FFFC00
F00000
F00000
F00000
F00000
F00000
F00000
F00000
F00000
F00000
F00000
F00000
F00000
F00000
F00000
F00000
F00000
F00000
F00000
F00000
F00000
ENDCHAR
STARTCHAR 0492
ENCODING 1170
SWIDTH 540 0
DWIDTH 24 0
BBX 22 32 2 0
BITMAP
3FFFFC
3FFFFC
3FFFFC
3FFFFC
3C0000
3C0000
3C0000
3C0000
3C0000
3C0000
3C0000
3C0000
3C0000
3C0000
FFFF80
FFFF80
FFFF80
FFFF80
3C0000
3C0000
3C0000
3C0000
3C0000
3C0000
3C0000
3C0000
3C0000
3C0000
3C0000
3C0000
3C0000
3C0000
ENDCHAR
STARTCHAR 0493
ENCODING 1171
SWIDTH 382 0
DWIDTH 17 0
BBX 15 23 2 0
BITMAP
7FFE
7FFE
7FFE
7800
7800
7800
7800
7800
7800
FFF0
FFF0
FFF0
7800
7800
7800
7800
7800
7800
7800
7800
7800
7800
7800
ENDCHAR
STARTCHAR 0496
ENCODING 1174
SWIDTH 1012 0
DWIDTH 45 0
BBX 45 38 0 -6
BITMAP
3E000F000F80
1F000F000F00
1F000F001F00
0F800F001E00
07800F003E00
07C00F007C00
03E00F007800
03E00F00F800
01F00F00F000
00F00F01F000
00F80F03E000
007C0F03C000
007C0F07C000
003FFFFF8000
001FFFFF8000
001FFFFF0000
003FFFFF8000
003C0F07C000
007C0F03C000
00F80F03E000
00F00F01F000
01F00F00F000
03E00F00F800
03C00F007C00
07C00F003C00
0F800F003E00
0F000F001F00
1F000F000F00
3E000F000FF8
3C000F0007F8
7C000F0003F8
F8000F0003F8
000000000078
000000000078
000000000078
000000000078
000000000078
000000000078
ENDCHAR
STARTCHAR 0497
ENCODING 1175
SWIDTH 810 0
DWIDTH 36 0
BBX 36 30 0 -7
BITMAP
3E00E00F80
1E00E00F00
1F00E01F00
0F00E01E00
0F80E03E00
0780E03C00
07C0E07800
03C0E07800
03E0E0F000
01FFFFF000
01FFFFE000
01FFFFF000
03E0E0F800
03C0E07800
07C0E07C00
0F80E03C00
0F00E01E00
1F00E01F00
1E00E00F00
3E00E00F80
3C00E007F0
7800E003F0
F800E003F0
0000000070
0000000070
0000000070
0000000070
0000000070
0000000070
0000000070
ENDCHAR
STARTCHAR 0498
ENCODING 1176
SWIDTH 607 0
DWIDTH 27 0
BBX 21 43 3 -10
BITMAP
01FC00
07FF00
0FFFC0
1FFFE0
3E03E0
3C01F0
7C00F0
7800F0
7800F0
7800F0
7800F0
0000F0
0001F0
0003E0
007FC0
007F80
007F80
007FE0
0007F0
0001F0
0000F8
000078
000078
F00078
F00078
F00078
F00078
F800F8
7C00F0
7E03F0
3FFFE0
1FFFC0
07FF80
01FC00
004000
00F000
00FC00
001E00
001E00
001E00
0E1C00
0FFC00
01F000
ENDCHAR
STARTCHAR 0499
ENCODING 1177
SWIDTH 450 0
DWIDTH 20 0
BBX 16 34 2 -10
BITMAP
07E0
1FF8
3FFC
3F7E
781F
780F
700F
F00F
F00F
001E
007E
03FC
03F8
03FE
003E
000F
000F
F007
F00F
F00F
F81F
7F7E
3FFE
1FF8
07E0
0180
03C0
03F0
0078
0038
0078
3870
3FF0
07C0
ENDCHAR
STARTCHAR 049A
ENCODING 1178
SWIDTH 675 0
DWIDTH 30 0
BBX 24 39 4 -7
BITMAP
F001E0
F003E0
F007C0
F00780
F00F80
F00F00
F01F00
F03E00
F03C00
F07C00
F07800
F0F800
F1F000
FFE000
FFE000
FFE000
FFE000
F1F000
F0F800
F07800
F07C00
F03E00
F01E00
F01F00
F00F80
F00780
F007C0
F003E0
F001FF
F001FF
F000FF
F0007F
00000F
00000F
00000F
00000F
00000F
00000F
00000F
ENDCHAR
STARTCHAR 049B
ENCODING 1179
SWIDTH 540 0
DWIDTH 24 0
BBX 21 30 3 -7
BITMAP
F00780
F00F80
F00F00
F01F00
F01E00
F03E00
F03C00
F07800
F07800
FFF000
FFF000
FFF800
F07800
F07C00
F03C00
F01E00
F01F00
F00F00
F00F80
F00780
F003F8
F003F8
F001F8
000078
000078
000078
000078
000078
000078
000078
ENDCHAR
STARTCHAR 049C
ENCODING 1180
SWIDTH 607 0
DWIDTH 27 0
BBX 23 32 4 0
BITMAP
F000F8
F000F0
F001F0
F001E0
F003E0
F387C0
F38780
F38F80
F38F00
F39F00
F3BE00
F3BC00
F3FC00
FFF800
FFF800
FFF000
FFF800
F3FC00
F3BC00
F3BE00
F39F00
F38F00
F38F80
F387C0
F383C0
F003E0
F001F0
F000F0
F000F8
F0007C
F0003C
F0003E
ENDCHAR
STARTCHAR 049D
ENCODING 1181
SWIDTH 495 0
DWIDTH 22 0
BBX 19 23 3 0
BITMAP
F00780
F00F80
F00F00
F39F00
F39E00
F3BE00
F3BC00
F3F800
F3F800
FFF000
FFF000
FFF800
F3F800
F3FC00
F3BC00
F39E00
F39F00
F38F00
F00F80
F00780
F003C0
F003E0
F001E0
ENDCHAR
STARTCHAR 04A0
ENCODING 1184
SWIDTH 585 0
DWIDTH 26 0
BBX 33 32 -9 0
BITMAP
FFFF003E00
FFFF003C00
FFFF007C00
FFFF007800
000F00F800
000F01F000
000F01E000
000F03E000
000F03C000
000F07C000
000F0F8000
000F0F8000
000F1F0000
000FFE0000
000FFE0000
000FFC0000
000FFE0000
000F1F0000
000F0F0000
000F078000
000F07C000
000F03C000
000F01E000
000F01F000
000F00F000
000F007800
000F007C00
000F003C00
000F001E00
000F001F00
000F000F00
000F000780
ENDCHAR
STARTCHAR 04A1
ENCODING 1185
SWIDTH 427 0
DWIDTH 19 0
BBX 29 23 -8 0
BITMAP
FFF803E0
FFF803C0
FFF807C0
00380780
00380F80
00380F00
00381F00
00381E00
00383C00
003FFC00
003FFC00
003FFC00
00383E00
00381E00
00381F00
00380F00
00380780
003807C0
003803C0
003803E0
003801E0
003800F0
003800F8
ENDCHAR
STARTCHAR 04A2
ENCODING 1186
SWIDTH 720 0
DWIDTH 32 0
BBX 27 39 4 -7
BITMAP
F0000F80
F0000F80
F0000F80
F0000F80
F0000F80
F0000F80
F0000F80
F0000F80
F0000F80
F0000F80
F0000F80
F0000F80
F0000F80
F0000F80
FFFFFF80
FFFFFF80
FFFFFF80
FFFFFF80
F0000F80
F0000F80
F0000F80
F0000F80
F0000F80
F0000F80
F0000F80
F0000F80
F0000F80
F0000F80
F0000FE0
F0000FE0
F0000FE0
F0000FE0
000001E0
000001E0
000001E0
000001E0
000001E0
000001E0
000001E0
ENDCHAR
STARTCHAR 04A3
ENCODING 1187
SWIDTH 540 0
DWIDTH 24 0
BBX 20 30 3 -7
BITMAP
F001C0
F001C0
F001C0
F001C0
F001C0
F001C0
F001C0
F001C0
F001C0
FFFFC0
FFFFC0
FFFFC0
F001C0
F001C0
F001C0
F001C0
F001C0
F001C0
F001C0
F001C0
F001F0
F001F0
F001F0
0000F0
0000F0
0000F0
0000F0
0000F0
0000F0
0000F0
ENDCHAR
STARTCHAR 04AA
ENCODING 1194
SWIDTH 720 0
DWIDTH 32 0
BBX 28 43 2 -10
BITMAP
001FE000
00FFFC00
03FFFE00
07FFFF00
0FC01F80
0F8007C0
1F0003C0
3E0003E0
3C0001E0
7C0001E0
780001E0
78000000
78000000
F8000000
F0000000
F0000000
F0000000
F0000000
F0000000
F0000000
F8000000
780000F0
780000F0
780001F0
7C0001E0
3C0001E0
3E0003E0
1F0003C0
1F8007C0
0FE01F80
07FFFF00
03FFFE00
00FFFC00
001FE000
00060000
00078000
000FE000
0000E000
0000E000
0040E000
0071E000
007FC000
001F0000
ENDCHAR
STARTCHAR 04AB
ENCODING 1195
SWIDTH 495 0
DWIDTH 22 0
BBX 20 34 1 -10
BITMAP
00FC00
07FF00
0FFFC0
1FDFC0
1E03E0
3C01E0
3C00F0
7800F0
7800F0
780000
700000
F00000
F00000
F00000
F00000
780000
7800F0
7800F0
7C00F0
3C01E0
3E03E0
1FDFC0
0FFF80
07FF00
01FC00
006000
007800
00FE00
000E00
000F00
040E00
071E00
07FC00
00F000
ENDCHAR
STARTCHAR 04AE
ENCODING 1198
SWIDTH 675 0
DWIDTH 30 0
BBX 28 32 1 0
BITMAP
F80001F0
FC0001E0
7C0003E0
3E0007C0
3E0007C0
1F000F80
0F800F00
0F801F00
07C03E00
03C03C00
03E07C00
01F07800
00F0F800
00F9F000
007DE000
007FE000
003FC000
001F8000
001F8000
000F0000
000F0000
000F0000
000F0000
000F0000
000F0000
000F0000
000F0000
000F0000
000F0000
000F0000
000F0000
000F0000
ENDCHAR
STARTCHAR 04AF
ENCODING 1199
SWIDTH 495 0
DWIDTH 22 0
BBX 20 33 1 -10
BITMAP
F000F0
7000F0
7801E0
7801E0
3C01E0
3C03C0
3C03C0
1E03C0
1E0780
1E0780
0F0780
0F0F00
0F0F00
078E00
079E00
039E00
03DC00
03FC00
01FC00
01F800
01F800
00F800
00F000
00F000
00F000
00F000
00F000
00F000
00F000
00F000
00F000
00F000
00F000
ENDCHAR
STARTCHAR 04B0
ENCODING 1200
SWIDTH 675 0
DWIDTH 30 0
BBX 28 32 1 0
BITMAP
F80001F0
FC0001E0
7C0003E0
3E0007C0
3E0007C0
1F000F80
0F800F00
0F801F00
07C03E00
03C03C00
03E07C00
01F07800
00F0F800
00F9F000
007DE000
007FE000
003FC000
001F8000
001F8000
000F0000
000F0000
000F0000
07FFFE00
07FFFE00
07FFFE00
07FFFE00
000F0000
000F0000
000F0000
000F0000
000F0000
000F0000
ENDCHAR
STARTCHAR 04B1
ENCODING 1201
SWIDTH 495 0
DWIDTH 22 0
BBX 20 33 1 -10
BITMAP
F000F0
7000F0
7801E0
7801E0
3C01E0
3C03C0
3C03C0
1E03C0
1E0780
1E0780
0F0780
0F0F00
0F0F00
078E00
079E00
039E00
03DC00
03FC00
01FC00
01F800
01F800
00F800
00F000
1FFF80
1FFF80
1FFF80
00F000
00F000
00F000
00F000
00F000
00F000
00F000
ENDCHAR
STARTCHAR 04B2
ENCODING 1202
SWIDTH 720 0
DWIDTH 32 0
BBX 30 39 1 -7
BITMAP
7C0003E0
3E0007C0
3E000780
1F000F80
0F801F00
0F801E00
07C03E00
03E07C00
03E07800
01F0F800
00F9F000
0079E000
007FC000
003FC000
001F8000
001F0000
001F8000
003FC000
007FC000
007BE000
00F9F000
01F0F000
01E0F800
03E07C00
07C03E00
0F803E00
0F801F00
1F000F80
3E000FFC
3E0007FC
7C0003FC
F80003FC
0000007C
0000007C
0000007C
0000007C
0000007C
0000007C
0000007C
ENDCHAR
STARTCHAR 04B3
ENCODING 1203
SWIDTH 517 0
DWIDTH 23 0
BBX 21 30 1 -7
BITMAP
F801F0
7801E0
3C03C0
3E0780
1E0780
0F0F00
079E00
079E00
03FC00
01F800
01F800
00F000
01F800
03FC00
03FC00
079E00
0F1F00
0F0F00
1E0780
3C07C0
3C03F8
7801F8
F001F8
000038
000038
000038
000038
000038
000038
000038
ENDCHAR
STARTCHAR 04B6
ENCODING 1206
SWIDTH 697 0
DWIDTH 31 0
BBX 27 39 3 -7
BITMAP
F0000F00
F0000F00
F0000F00
F0000F00
F0000F00
F0000F00
F0000F00
F0000F00
F0000F00
F0000F00
F0000F00
F0000F00
F0000F00
F0000F00
F0000F00
F8000F00
7E001F00
7FFFFF00
3FFFFF00
0FFFFF00
01FF8F00
00000F00
00000F00
00000F00
00000F00
00000F00
00000F00
00000F00
00000FE0
00000FE0
00000FE0
00000FE0
000001E0
000001E0
000001E0
000001E0
000001E0
000001E0
000001E0
ENDCHAR
STARTCHAR 04B7
ENCODING 1207
SWIDTH 517 0
DWIDTH 23 0
BBX 19 30 2 -7
BITMAP
F00380
F00380
F00380
F00380
F00380
F00380
F00380
F00380
F00380
F00380
F80380
7C0F80
7FFF80
3FFF80
1FFB80
000380
000380
000380
000380
000380
0003E0
0003E0
0003E0
0001E0
0001E0
0001E0
0001E0
0001E0
0001E0
0001E0
ENDCHAR
STARTCHAR 04B8
ENCODING 1208
SWIDTH 697 0
DWIDTH 31 0
BBX 24 32 3 0
BITMAP
F0000F
F0000F
F0000F
F0000F
F0000F
F0000F
F0000F
F0000F
F0180F
F0180F
F0180F
F0180F
F0180F
F0180F
F0180F
F8180F
7C181F
7FFFFF
3FFFFF
0FFFFF
03FF8F
00180F
00180F
00180F
00180F
00180F
00180F
00000F
00000F
00000F
00000F
00000F
ENDCHAR
STARTCHAR 04B9
ENCODING 1209
SWIDTH 517 0
DWIDTH 23 0
BBX 18 23 2 0
BITMAP
F003C0
F003C0
F003C0
F003C0
F003C0
F003C0
F003C0
F0C3C0
F0C3C0
F0C3C0
F8C3C0
7CC7C0
7FFFC0
3FFFC0
1FFBC0
00C3C0
00C3C0
00C3C0
00C3C0
0003C0
0003C0
0003C0
0003C0
ENDCHAR
STARTCHAR 04BA
ENCODING 1210
SWIDTH 697 0
DWIDTH 31 0
BBX 24 32 3 0
BITMAP
F00000
F00000
F00000
F00000
F00000
F00000
F00000
F00000
F00000
F00000
F00000
F0FFC0
FFFFF0
FFFFFC
FFFFFE
F8007E
F0001F
F0000F
F0000F
F0000F
F0000F
F0000F
F0000F
F0000F
F0000F
F0000F
F0000F
F0000F
F0000F
F0000F
F0000F
F0000F
ENDCHAR
STARTCHAR 04BB
ENCODING 1211
SWIDTH 562 0
DWIDTH 25 0
BBX 18 32 4 0
BITMAP
E00000
E00000
E00000
E00000
E00000
E00000
E00000
E00000
E0FC00
E3FF00
E7FF80
EFDF80
FE07C0
FC03C0
F803C0
F003C0
E003C0
E003C0
E003C0
E003C0
E003C0
E003C0
E003C0
E003C0
E003C0
E003C0
E003C0
E003C0
E003C0
E003C0
E003C0
E003C0
ENDCHAR
STARTCHAR 04C0
ENCODING 1216
SWIDTH 270 0
DWIDTH 12 0
BBX 4 32 4 0
BITMAP
F0
F0
F0
F0
F0
F0
F0
F0
F0
F0
F0
F0
F0
F0
F0
F0
F0
F0
F0
F0
F0
F0
F0
F0
F0
F0
F0
F0
F0
F0
F0
F0
ENDCHAR
STARTCHAR 04CB
ENCODING 1227
SWIDTH 675 0
DWIDTH 30 0
BBX 25 39 2 -7
BITMAP
F0000780
F0000780
F0000780
F0000780
F0000780
F0000780
F0000780
F0000780
F0000780
F0000780
F0000780
F0000780
F0000780
F0000780
F8000780
78000780
7E001F80
3FFFFF80
1FFFFF80
0FFFFF80
01FF8780
00000780
00000780
00000780
00000780
00000780
00000780
00000780
00003F80
00003F80
00003F80
00003F80
00003C00
00003C00
00003C00
00003C00
00003C00
00003C00
00003C00
ENDCHAR
STARTCHAR 04CC
ENCODING 1228
SWIDTH 517 0
DWIDTH 23 0
BBX 17 30 3 -7
BITMAP
E00780
E00780
E00780
E00780
E00780
E00780
E00780
E00780
E00780
E00780
F00780
F80F80
FFFF80
7FFF80
1FF780
000780
000780
000780
000780
000780
003F80
003F80
003F80
003C00
003C00
003C00
003C00
003C00
003C00
003C00
ENDCHAR
STARTCHAR 04CF
ENCODING 1231
SWIDTH 270 0
DWIDTH 12 0
BBX 4 32 4 0
BITMAP
F0
F0
F0
F0
F0
F0
F0
F0
F0
F0
F0
F0
F0
F0
F0
F0
F0
F0
F0
F0
F0
F0
F0
F0
F0
F0
F0
F0
F0
F0
F0
F0
ENDCHAR
STARTCHAR 04D8
ENCODING 1240
SWIDTH 787 0
DWIDTH 35 0
BBX 31 34 2 -1
BITMAP
001FF000
00FFFC00
03FFFF00
07FFFF80
0FE00FE0
1F8003E0
1F0001F0
3E0000F8
7C000078
7800007C
0000003C
0000003C
0000003E
0000003E
0000001E
FFFFFFFE
FFFFFFFE
FFFFFFFE
FFFFFFFE
F000001E
F000003E
F000003C
F800003C
7800003C
7C00007C
7C000078
3E0000F8
1F0001F0
1F8003E0
0FE00FC0
07FFFF80
01FFFF00
00FFFC00
001FE000
ENDCHAR
STARTCHAR 04D9
ENCODING 1241
SWIDTH 562 0
DWIDTH 25 0
BBX 21 25 2 -1
BITMAP
01FC00
07FF00
1FFF80
3F9FC0
3C03E0
7801F0
7000F0
F000F0
000078
000078
000078
FFFFF8
FFFFF8
FFFFF8
F00078
F00078
F000F0
F000F0
7800F0
7C01E0
3E03E0
3F9FC0
1FFF80
07FF00
01F800
ENDCHAR
STARTCHAR 04E2
ENCODING 1250
SWIDTH 720 0
DWIDTH 32 0
BBX 26 37 3 0
BITMAP
01FFF000
01FFF000
01FFF000
00000000
00000000
F80007C0
F80007C0
F80007C0
F80007C0
F80007C0
F8000FC0
F8001FC0
F8003FC0
F8007FC0
F800FFC0
F801F7C0
F803F7C0
F807E7C0
F807C7C0
F80F87C0
F81F07C0
F83E07C0
F87C07C0
F8F807C0
F9F007C0
FBF007C0
FFE007C0
FFC007C0
FF8007C0
FF0007C0
FE0007C0
FC0007C0
F80007C0
F80007C0
F80007C0
F80007C0
F80007C0
ENDCHAR
STARTCHAR 04E3
ENCODING 1251
SWIDTH 562 0
DWIDTH 25 0
BBX 17 28 4 0
BITMAP
3FFC00
3FFC00
3FFC00
000000
000000
E00380
E00380
E00780
E00F80
E00F80
E01F80
E03F80
E07B80
E07B80
E0F380
E1E380
E3C380
E3C380
E78380
EF0380
FE0380
FE0380
FC0380
F80380
F00380
F00380
E00380
E00380
ENDCHAR
STARTCHAR 04E8
ENCODING 1256
SWIDTH 787 0
DWIDTH 35 0
BBX 31 34 2 -1
BITMAP
001FF000
00FFFC00
01FFFF00
07FFFFC0
0FE00FE0
1F8003E0
1F0001F0
3E0000F8
7C000078
7800007C
7800003C
F800003C
F000003E
F000003E
F000001E
FFFFFFFE
FFFFFFFE
FFFFFFFE
FFFFFFFE
F000001E
F000003E
F000003C
F800003C
7800003C
7C00007C
7C000078
3E0000F8
1F0001F0
1F8003E0
0FE00FC0
07FFFF80
03FFFF00
00FFFC00
001FE000
ENDCHAR
STARTCHAR 04E9
ENCODING 1257
SWIDTH 562 0
DWIDTH 25 0
BBX 21 25 2 -1
BITMAP
01FC00
07FF00
1FFF80
3FDFC0
3E03E0
7C01F0
7800F0
7800F0
F00078
F00078
F00078
FFFFF8
FFFFF8
FFFFF8
F00078
F00078
F000F8
F800F0
7800F0
7C01E0
3E03E0
3F9FC0
1FFF80
07FF00
01FC00
ENDCHAR
STARTCHAR 04EE
ENCODING 1262
SWIDTH 630 0
DWIDTH 28 0
BBX 27 39 1 0
BITMAP
00FFF000
00FFF000
00FFF000
00000000
00000000
00000000
00000000
F80003E0
780007C0
7C0007C0
7C000780
3E000F80
3E000F00
1F001F00
1F001F00
0F801E00
0F803E00
07803C00
07C07C00
03C07800
03E0F800
01E0F800
01F0F000
00F1F000
00F1E000
00FBE000
007BC000
007FC000
003F8000
003F8000
001F8000
001F0000
001F0000
001E0000
003E0000
07FC0000
07FC0000
07F80000
07E00000
ENDCHAR
STARTCHAR 04EF
ENCODING 1263
SWIDTH 495 0
DWIDTH 22 0
BBX 20 38 1 -10
BITMAP
0FFF00
0FFF00
0FFF00
000000
000000
000000
F000F0
F000F0
7801E0
7801E0
7801E0
3C03C0
3C03C0
1C03C0
1E0780
1E0780
0E0700
0F0F00
0F0F00
070E00
079E00
079E00
03BC00
03FC00
03F800
01F800
01F800
01F000
00F000
00F000
01E000
01E000
03C000
03C000
07C000
7F8000
7F0000
7E0000
ENDCHAR
STARTCHAR 1E80
ENCODING 7808
SWIDTH 945 0
DWIDTH 42 0
BBX 40 41 1 0
BITMAP
0001F00000
0000F80000
0000780000
00003C0000
00001E0000
00000E0000
0000000000
0000000000
0000000000
F8003C000F
F8007E001F
78007E001F
78007E001E
7C007F001E
7C00FF003E
3C00FF003E
3C00F7003C
3E00E7803C
3E01E7807C
1E01E7807C
1E01C3C078
1F03C3C078
1F03C3C078
0F03C1C0F8
0F0381E0F0
0F0781E0F0
0F8781E0F0
078780F1F0
078F00F1E0
078F00F1E0
03CF0071E0
03CE0079C0
03DE007BC0
03DE007BC0
01FE003FC0
01FC003F80
01FC003F80
01FC001F80
00FC001F80
00F8001F00
00F8001F00
ENDCHAR
STARTCHAR 1E81
ENCODING 7809
SWIDTH 720 0
DWIDTH 32 0
BBX 31 33 0 0
BITMAP
003E0000
001F0000
000F0000
00078000
00038000
0001C000
0000E000
00000000
00000000
00000000
F007C01E
7807C01E
7807E01E
7807E03C
3C0FE03C
3C0FE03C
3C0EF03C
3C0EF078
1E1E7078
1E1E7878
1E1C7870
0E1C78F0
0F3C38F0
0F3C3CE0
0F383CE0
07383DE0
07F81DE0
07F81FC0
03F01FC0
03F01FC0
03F00F80
01F00F80
01E00F80
ENDCHAR
STARTCHAR 1E82
ENCODING 7810
SWIDTH 945 0
DWIDTH 42 0
BBX 40 41 1 0
BITMAP
000001F000
000003E000
000003C000
0000078000
00000F0000
00000E0000
0000000000
0000000000
0000000000
F8003C000F
F8007E001F
78007E001F
78007E001E
7C007F001E
7C00FF003E
3C00FF003E
3C00F7003C
3E00E7803C
3E01E7807C
1E01E7807C
1E01C3C078
1F03C3C078
1F03C3C078
0F03C1C0F8
0F0381E0F0
0F0781E0F0
0F8781E0F0
078780F1F0
078F00F1E0
078F00F1E0
03CF0071E0
03CE0079C0
03DE007BC0
03DE007BC0
01FE003FC0
01FC003F80
01FC003F80
01FC001F80
00FC001F80
00F8001F00
00F8001F00
ENDCHAR
STARTCHAR 1E83
ENCODING 7811
SWIDTH 720 0
DWIDTH 32 0
BBX 31 33 0 0
BITMAP
0000F800
0001F000
0001E000
0003C000
00038000
00070000
000E0000
00000000
00000000
00000000
F007C01E
7807C01E
7807E01E
7807E03C
3C0FE03C
3C0FE03C
3C0EF03C
3C0EF078
1E1E7078
1E1E7878
1E1C7870
0E1C78F0
0F3C38F0
0F3C3CE0
0F383CE0
07383DE0
07F81DE0
07F81FC0
03F01FC0
03F01FC0
03F00F80
01F00F80
01E00F80
ENDCHAR
STARTCHAR 1E84
ENCODING 7812
SWIDTH 945 0
DWIDTH 42 0
BBX 40 40 1 0
BITMAP
0003E7C000
0003E7C000
0003E7C000
0003E7C000
0003E7C000
0000000000
0000000000
0000000000
F8003C000F
F8007E001F
78007E001F
78007E001E
7C007F001E
7C00FF003E
3C00FF003E
3C00F7003C
3E00E7803C
3E01E7807C
1E01E7807C
1E01C3C078
1F03C3C078
1F03C3C078
0F03C1C0F8
0F0381E0F0
0F0781E0F0
0F8781E0F0
078780F1F0
078F00F1E0
078F00F1E0
03CF0071E0
03CE0079C0
03DE007BC0
03DE007BC0
01FE003FC0
01FC003F80
01FC003F80
01FC001F80
00FC001F80
00F8001F00
00F8001F00
ENDCHAR
STARTCHAR 1E85
ENCODING 7813
SWIDTH 720 0
DWIDTH 32 0
BBX 31 32 0 0
BITMAP
003C7800
003C7800
003C7800
003C7800
003C7800
00000000
00000000
00000000
00000000
F007C01E
7807C01E
7807E01E
7807E03C
3C0FE03C
3C0FE03C
3C0EF03C
3C0EF078
1E1E7078
1E1E7878
1E1C7870
0E1C78F0
0F3C38F0
0F3C3CE0
0F383CE0
07383DE0
07F81DE0
07F81FC0
03F01FC0
03F01FC0
03F00F80
01F00F80
01E00F80
ENDCHAR
STARTCHAR 1EF2
ENCODING 7922
SWIDTH 675 0
DWIDTH 30 0
BBX 28 41 1 0
BITMAP
00F80000
007C0000
003C0000
001E0000
000F0000
00070000
00000000
00000000
00000000
F80001F0
7C0001E0
7C0003E0
3E0007C0
3E0007C0
1F000F80
0F800F00
0F801F00
07C03E00
03C03C00
03E07C00
01F07800
00F0F800
00F9F000
007DE000
003FE000
003FC000
001F8000
001F8000
000F0000
000F0000
000F0000
000F0000
000F0000
000F0000
000F0000
000F0000
000F0000
000F0000
000F0000
000F0000
000F0000
ENDCHAR
STARTCHAR 1EF3
ENCODING 7923
SWIDTH 495 0
DWIDTH 22 0
BBX 20 43 1 -10
BITMAP
0F8000
078000
03C000
01E000
00E000
007000
003000
000000
000000
000000
F000F0
F000F0
7801E0
7801E0
7801E0
3C03C0
3C03C0
3C0380
1E0780
1E0780
1E0F00
0F0F00
0F0F00
0F1E00
079E00
079C00
07BC00
03FC00
03F800
01F800
01F800
01F000
00F000
00F000
01E000
01E000
03C000
03C000
07C000
7F8000
7F0000
7E0000
180000
ENDCHAR
STARTCHAR 2002
ENCODING 8194
SWIDTH 495 0
DWIDTH 22 0
BBX 0 0 0 0
BITMAP
ENDCHAR
STARTCHAR 2013
ENCODING 8211
SWIDTH 562 0
DWIDTH 25 0
BBX 25 3 0 11
BITMAP
FFFFFF80
FFFFFF80
FFFFFF80
ENDCHAR
STARTCHAR 2014
ENCODING 8212
SWIDTH 990 0
DWIDTH 44 0
BBX 44 3 0 11
BITMAP
FFFFFFFFFFF0
FFFFFFFFFFF0
FFFFFFFFFFF0
ENDCHAR
STARTCHAR 2015
ENCODING 8213
SWIDTH 990 0
DWIDTH 44 0
BBX 44 3 0 11
BITMAP
FFFFFFFFFFF0
FFFFFFFFFFF0
FFFFFFFFFFF0
ENDCHAR
STARTCHAR 2017
ENCODING 8215
SWIDTH 562 0
DWIDTH 25 0
BBX 27 6 -1 -10
BITMAP
FFFFFFE0
FFFFFFE0
00000000
00000000
FFFFFFE0
FFFFFFE0
ENDCHAR
STARTCHAR 2018
ENCODING 8216
SWIDTH 225 0
DWIDTH 10 0
BBX 4 11 3 21
BITMAP
10
70
60
C0
C0
C0
F0
F0
F0
F0
F0
ENDCHAR
STARTCHAR 2019
ENCODING 8217
SWIDTH 225 0
DWIDTH 10 0
BBX 4 10 3 22
BITMAP
F0
F0
F0
F0
F0
30
30
30
E0
C0
ENDCHAR
STARTCHAR 201A
ENCODING 8218
SWIDTH 225 0
DWIDTH 10 0
BBX 4 11 3 -6
BITMAP
F0
F0
F0
F0
F0
30
30
30
60
E0
80
ENDCHAR
STARTCHAR 201B
ENCODING 8219
SWIDTH 225 0
DWIDTH 10 0
BBX 4 10 3 22
BITMAP
F0
F0
F0
F0
F0
C0
C0
C0
70
30
ENDCHAR
STARTCHAR 201C
ENCODING 8220
SWIDTH 337 0
DWIDTH 15 0
BBX 11 11 2 21
BITMAP
1020
3060
60C0
4080
C180
C180
F1E0
F1E0
F1E0
F1E0
F1E0
ENDCHAR
STARTCHAR 201D
ENCODING 8221
SWIDTH 337 0
DWIDTH 15 0
BBX 11 10 2 22
BITMAP
F1E0
F1E0
F1E0
F1E0
F1E0
3060
3060
3060
60C0
C1C0
ENDCHAR
STARTCHAR 201E
ENCODING 8222
SWIDTH 337 0
DWIDTH 15 0
BBX 11 11 2 -6
BITMAP
F1E0
F1E0
F1E0
F1E0
F1E0
3060
3060
3060
60E0
E1C0
8100
ENDCHAR
STARTCHAR 2020
ENCODING 8224
SWIDTH 562 0
DWIDTH 25 0
BBX 21 39 2 -8
BITMAP
00F000
00F000
00F000
00F000
00F000
00F000
00F000
00F000
00F000
FFFFF8
FFFFF8
FFFFF8
FFFFF8
00F000
00F000
00F000
00F000
00F000
00F000
00F000
00F000
00F000
00F000
00F000
00F000
00F000
00F000
00F000
00F000
00F000
00F000
00F000
00F000
00F000
00F000
00F000
00F000
00F000
00F000
ENDCHAR
STARTCHAR 2021
ENCODING 8225
SWIDTH 562 0
DWIDTH 25 0
BBX 21 39 2 -8
BITMAP
00F000
00F000
00F000
00F000
00F000
00F000
00F000
00F000
00F000
FFFFF8
FFFFF8
FFFFF8
FFFFF8
00F000
00F000
00F000
00F000
00F000
00F000
00F000
00F000
00F000
00F000
00F000
00F000
00F000
FFFFF8
FFFFF8
FFFFF8
FFFFF8
00F000
00F000
00F000
00F000
00F000
00F000
00F000
00F000
00F000
ENDCHAR
STARTCHAR 2022
ENCODING 8226
SWIDTH 360 0
DWIDTH 16 0
BBX 11 11 2 10
BITMAP
0F00
3FC0
7FC0
7FE0
FFE0
FFE0
FFE0
7FE0
7FC0
3FC0
1F00
ENDCHAR
STARTCHAR 2026
ENCODING 8230
SWIDTH 990 0
DWIDTH 44 0
BBX 34 5 5 0
BITMAP
F801F003C0
F801F003C0
F801F003C0
F801F003C0
F801F003C0
ENDCHAR
STARTCHAR 2030
ENCODING 8240
SWIDTH 990 0
DWIDTH 44 0
BBX 44 34 0 -1
BITMAP
000003800000
07C007000000
1FE006000000
3FF00E000000
78780C000000
70381C000000
E01C38000000
E01C38000000
E01C70000000
701870000000
7838E0000000
3FF0E0000000
1FE1C0000000
0FC1C0000000
000380000000
000380000000
000700000000
000700000000
000E00000000
000E00000000
001C00000000
001C1F001F00
00387FC07FC0
0038FFE0FFE0
0070E0E0E0E0
0071C071C070
00E1C071C070
00E180718070
01C1C071C070
01C1C071C070
0380E0E0E0E0
0300FFE0FFE0
07007FC07FC0
06001F001F00
ENDCHAR
STARTCHAR 2032
ENCODING 8242
SWIDTH 180 0
DWIDTH 8 0
BBX 5 11 2 19
BITMAP
38
38
70
70
70
70
60
E0
E0
E0
C0
ENDCHAR
STARTCHAR 2033
ENCODING 8243
SWIDTH 360 0
DWIDTH 16 0
BBX 12 11 2 19
BITMAP
1CF0
3CE0
38E0
38E0
38E0
71C0
71C0
71C0
7180
6180
E380
ENDCHAR
STARTCHAR 2039
ENCODING 8249
SWIDTH 337 0
DWIDTH 15 0
BBX 7 14 4 5
BITMAP
02
0E
1E
3C
78
F0
E0
E0
F0
78
3E
1E
06
02
ENDCHAR
STARTCHAR 203A
ENCODING 8250
SWIDTH 337 0
DWIDTH 15 0
BBX 7 14 4 5
BITMAP
80
C0
F0
F8
7C
1E
0E
0E
1E
7C
F8
E0
C0
80
ENDCHAR
STARTCHAR 203C
ENCODING 8252
SWIDTH 495 0
DWIDTH 22 0
BBX 15 32 5 0
BITMAP
F01E
F01E
F01E
F01E
F01E
F01E
F01E
F01E
F01E
F01E
F01E
F01E
F01E
F01E
F01E
F01E
E01E
E01C
E01C
E01C
E00C
600C
600C
600C
600C
0000
0000
F01E
F01E
F01E
F01E
F01E
ENDCHAR
STARTCHAR 203E
ENCODING 8254
SWIDTH 337 0
DWIDTH 15 0
BBX 27 2 -6 38
BITMAP
FFFFFFE0
FFFFFFE0
ENDCHAR
STARTCHAR 2044
ENCODING 8260
SWIDTH 270 0
DWIDTH 12 0
BBX 22 32 -5 -1
BITMAP
00001C
000018
000038
000070
000060
0000E0
0000C0
000180
000380
000300
000700
000E00
000C00
001C00
001800
003800
007000
006000
00E000
01C000
018000
038000
030000
070000
0E0000
0C0000
1C0000
380000
300000
700000
600000
E00000
ENDCHAR
STARTCHAR 2070
ENCODING 8304
SWIDTH 337 0
DWIDTH 15 0
BBX 13 20 1 12
BITMAP
0F80
3FC0
7DE0
7070
E070
E038
E038
E038
E038
C038
C038
E038
E038
E038
E030
E070
7070
79E0
3FC0
0F80
ENDCHAR
STARTCHAR 2074
ENCODING 8308
SWIDTH 337 0
DWIDTH 15 0
BBX 14 18 0 13
BITMAP
0060
00E0
01E0
03E0
0760
0760
0E60
1C60
3860
3060
7060
E060
FFFC
FFFC
0060
0060
0060
0060
ENDCHAR
STARTCHAR 2075
ENCODING 8309
SWIDTH 337 0
DWIDTH 15 0
BBX 14 20 0 12
BITMAP
3FF8
3FF8
3FF8
3800
3000
3000
3000
7FE0
7FF0
7878
703C
001C
001C
001C
E01C
701C
7038
7CF8
3FF0
0FC0
ENDCHAR
STARTCHAR 2076
ENCODING 8310
SWIDTH 337 0
DWIDTH 15 0
BBX 13 20 1 12
BITMAP
0F80
1FE0
3CF0
7070
6038
E000
E000
EFC0
DFE0
FDF0
F078
E038
E038
E038
E038
E038
7070
7DF0
3FE0
0F80
ENDCHAR
STARTCHAR 2077
ENCODING 8311
SWIDTH 337 0
DWIDTH 15 0
BBX 13 19 1 13
BITMAP
FFF8
FFF8
FFF8
0030
0070
00E0
00C0
01C0
0380
0300
0700
0700
0E00
0E00
0C00
1C00
1C00
1C00
3800
ENDCHAR
STARTCHAR 2078
ENCODING 8312
SWIDTH 337 0
DWIDTH 15 0
BBX 13 20 1 12
BITMAP
0F80
3FE0
79F0
E070
E030
E030
E070
70F0
3FE0
3FE0
78F0
E078
E038
C038
C038
E038
E078
79F0
3FE0
1F80
ENDCHAR
STARTCHAR 2079
ENCODING 8313
SWIDTH 337 0
DWIDTH 15 0
BBX 13 20 1 12
BITMAP
0F80
3FE0
79E0
E070
E030
C038
C038
E038
E078
F0F8
7FF8
3FB8
0038
0038
E030
E070
F070
7BE0
3FC0
1F00
ENDCHAR
STARTCHAR 207F
ENCODING 8319
SWIDTH 360 0
DWIDTH 16 0
BBX 12 14 2 12
BITMAP
E7C0
FFE0
F8F0
F070
E070
E070
E070
E070
E070
E070
E070
E070
E070
E070
ENDCHAR
STARTCHAR 20A3
ENCODING 8355
SWIDTH 562 0
DWIDTH 25 0
BBX 22 32 2 0
BITMAP
FFFFFC
FFFFFC
FFFFFC
FFFFFC
F00000
F00000
F00000
F00000
F0001C
F01E7C
F01EFC
F01EFC
F01FF0
F01FC0
FFFF80
FFFF00
FFFF00
FFFE00
F01E00
F01E00
F01E00
F01E00
F01E00
F01E00
F01E00
F01E00
F01E00
F01E00
F01E00
F01E00
F01E00
F01E00
ENDCHAR
STARTCHAR 20A4
ENCODING 8356
SWIDTH 562 0
DWIDTH 25 0
BBX 23 33 1 -1
BITMAP
007E00
03FFC0
07FFE0
0FFFF0
1F01F8
3E00F8
3C0078
3C007C
7C003C
7C003C
7C0000
3C0000
3C0000
1E0000
1F0000
0F0000
FFFE00
FFFE00
078000
03C000
FFFE00
FFFE00
03C000
038000
078000
070000
0E0000
1C0000
3BFE1C
7FFFFC
7FFFFE
383FFC
0003F0
ENDCHAR
STARTCHAR 20A7
ENCODING 8359
SWIDTH 1102 0
DWIDTH 49 0
BBX 40 33 5 -1
BITMAP
FFC0000000
FFF0000000
FFF8000000
FFFC000000
F07E000000
F03E000000
F01E000000
F01F000000
F01F000000
F01F000000
F01F000000
F01F000000
F01E000000
F03E000000
F07E000000
FFFC380000
FFF8380000
FFF0380000
FFC03801F8
F000FE07FC
F000FE0E1E
F000380E0E
F000380E00
F000380E00
F0003807E0
F0003803FC
F00038003E
F00038000E
F000380C07
F000380E06
F000380F0E
F0003E07FC
00001E03F0
ENDCHAR
STARTCHAR 20AC
ENCODING 8364
SWIDTH 562 0
DWIDTH 25 0
BBX 24 33 0 -1
BITMAP
000FE0
003FFC
007FFE
00FCFF
01F01F
03E006
03C002
078000
078000
078000
0F0000
0F0000
7FFFF0
7FFFF0
FFFFF0
0E0000
0E0000
1E0000
7FFFC0
FFFFC0
FFFF80
0F0000
0F0000
0F8000
078000
078000
03C000
03E002
01F00E
01FEFE
00FFFE
003FFC
000FE0
ENDCHAR
STARTCHAR 20AF
ENCODING 8367
SWIDTH 922 0
DWIDTH 41 0
BBX 36 36 2 -8
BITMAP
00FF800000
07FFE00000
0FF3F00000
1C70F80000
3860780000
70E03C0000
70E03C0000
60E03C0F80
60E01C1FE0
60C01C3DE0
81C01C70F0
01C01CE0F0
01C01CE070
01C03CC070
01C03DC070
03803DC070
038039C070
038039C070
03807B80E0
03807380E0
0300F380E0
0700E380C0
0701C381C0
0603C70180
0C0F878380
1BFE07EF00
7FFC07FE00
FFE007F800
0000060000
00000E0000
00000E0000
00000E0000
00000E0000
00000E0000
00001C0000
00001C0000
ENDCHAR
STARTCHAR 20DD
ENCODING 8413
SWIDTH 990 0
DWIDTH 44 0
BBX 32 33 6 0
BITMAP
0007F000
003FFE00
00FFFF80
03E007C0
078001E0
0F0000F0
0E000078
1C000038
3800001C
3800000E
7000000E
70000006
60000007
60000007
E0000007
E0000007
E0000007
E0000007
E0000007
60000007
60000007
70000006
7000000E
3800000E
3800001C
1C000038
1E000078
0F0000F0
078001E0
03E007C0
00FFFF00
007FFE00
000FF000
ENDCHAR
STARTCHAR 2105
ENCODING 8453
SWIDTH 877 0
DWIDTH 39 0
BBX 35 33 2 -1
BITMAP
07E000E000
1FF000E000
3FF801C000
3C3C01C000
781C038000
701C030000
F000070000
F0000E0000
E0000E0000
E0001C0000
F0001C0000
F01C380000
701C380000
781C700000
7C3C700000
3FF8E0FC00
1FF0E1FF00
07C1C3FF80
00038787C0
00038F03C0
00070F01C0
00070E01E0
000E0E01E0
000E0E01E0
001C0E01E0
001C0E01E0
00380E01E0
00380F01C0
00700F03C0
00600787C0
00E007FF80
01C003FF00
000000FC00
ENDCHAR
STARTCHAR 210F
ENCODING 8463
SWIDTH 562 0
DWIDTH 25 0
BBX 21 32 2 -1
BITMAP
007800
03F800
00F800
00F020
00F0C0
00F3C0
00EF00
01FC00
01F000
01E000
07C070
1FC1F8
33C7F8
438F78
079C78
07B878
073078
0F60F0
0FC0F0
0F80F0
1F00E0
1F01E0
1E01E0
3E01C0
3C03C0
3C03C0
7803C0
780388
780790
7807E0
F007C0
000380
ENDCHAR
STARTCHAR 2111
ENCODING 8465
SWIDTH 720 0
DWIDTH 32 0
BBX 26 34 3 -3
BITMAP
01F80000
07FE0000
0FFF0000
1C1F8000
300FC180
7007C180
6003E180
C003E180
C001F300
C001FF00
C000FE00
C0007C00
60000000
60000000
30003E00
3800FF00
1E00E380
0781E180
0081E0C0
0003E0C0
0001E000
0001F000
0001F000
F000F000
7C00F800
3E00F800
1F007C00
0F807C00
07807800
07C07800
03E0F000
01FFE000
00FF8000
003E0000
ENDCHAR
STARTCHAR 2112
ENCODING 8466
SWIDTH 832 0
DWIDTH 37 0
BBX 33 34 2 0
BITMAP
000E007C00
007C01E600
01E0038300
0380070180
0700070180
06000E0180
06000E0180
04001E0180
04001C0300
04001C0300
06001C0600
06003C0C00
03003C1C00
01003C3000
01803CE000
00E03FC000
00383F0000
000FFC0000
00003C0000
00003C0000
0000380000
0000780000
0000780000
0000780000
0000700000
0000700000
0000E00000
0000E00100
7F81C00200
C0F3800600
801F000400
C00F801800
7078F87000
1FE00FC000
ENDCHAR
STARTCHAR 2113
ENCODING 8467
SWIDTH 315 0
DWIDTH 14 0
BBX 16 34 -2 -1
BITMAP
000E
001F
0033
0071
0061
00E1
00C3
01C3
01C3
01C6
03C6
0384
038C
0398
0790
07B0
0760
07C0
0780
0F00
0F00
1F00
3E00
6E00
CE00
1E00
1E00
1E00
1C20
1C60
1C60
1EC0
0F80
0700
ENDCHAR
STARTCHAR 2116
ENCODING 8470
SWIDTH 1080 0
DWIDTH 48 0
BBX 44 33 2 0
BITMAP
00000001F800
F0003C03FE00
F8003C0FFF00
F8003C1FFF80
FC003C1E07C0
FC003C3C03C0
FE003C3801E0
FF003C7800E0
FF003C7800E0
F7803C7000F0
F7803C7000F0
F3C03C7000F0
F3C03C700070
F1E03C7000F0
F0E03C7000F0
F0F03C7000F0
F0783C7800E0
F0783C7801E0
F03C3C3C01E0
F03C3C3E03C0
F01E3C1F07C0
F01E3C1FFF80
F00F3C0FFF00
F0073C03FE00
F007BC00F000
F003FC000000
F003FC000000
F001FC000000
F001FC000000
F000FC7FFFE0
F000FC7FFFE0
F0007C7FFFE0
F0007C7FFFE0
ENDCHAR
STARTCHAR 2118
ENCODING 8472
SWIDTH 652 0
DWIDTH 29 0
BBX 23 25 3 -8
BITMAP
006000
008000
0300F8
06031C
0C040E
18180E
18200E
38400E
38800E
39000E
3A001C
3C001C
3C3818
1C3838
1E6070
3E2060
4E21C0
4F1F00
870000
870000
830000
830000
820000
460000
3C0000
ENDCHAR
STARTCHAR 211C
ENCODING 8476
SWIDTH 787 0
DWIDTH 35 0
BBX 28 27 3 0
BITMAP
07E07E00
0FF1FF00
3FFBFF80
30FE0FC0
607C07C0
603E03C0
C03E03E0
C01E03C0
E01E07C0
E01E0780
F01E1E00
7C1EF800
3F1FFC00
1F1EFC00
071E3E00
031E1E00
031E1E00
021E1F00
001E1F00
001E1F00
003C0F00
003C0F80
0E3C0F80
1FF80FF0
3FF007E0
2FE007C0
03C00300
ENDCHAR
STARTCHAR 211E
ENCODING 8478
SWIDTH 765 0
DWIDTH 34 0
BBX 23 29 7 0
BITMAP
FFFF80
FFFFE0
FFFFF0
F003F0
F000F8
F00078
F00078
F00078
F00078
F00078
F00078
F000F8
F001F0
FFFFF0
FFFFE0
FFFF80
F03C1E
F01E3C
F01E78
F00F78
F007F0
F007E0
F003E0
F003E0
F007E0
F007F0
F00FF8
F01E78
F01E3C
ENDCHAR
STARTCHAR 2120
ENCODING 8480
SWIDTH 607 0
DWIDTH 27 0
BBX 24 13 1 17
BITMAP
1F0F0F
7F8F0F
618F0F
40CD0B
600D9B
7C0D9B
1F8D9B
01CC93
C0CCD3
C0CCF3
E1CCF3
7F8C73
1F0C63
ENDCHAR
STARTCHAR 2122
ENCODING 8482
SWIDTH 990 0
DWIDTH 44 0
BBX 39 19 3 13
BITMAP
FFFF1E003E
FFFF1E003E
01C01F003E
01C01F007E
01C01F807E
01C01F806E
01C01D80EE
01C01DC0EE
01C01DC0CE
01C01CC1CE
01C01CE18E
01C01CE38E
01C01C738E
01C01C730E
01C01C770E
01C01C3F0E
01C01C3E0E
01C01C3E0E
01C01C1E0E
ENDCHAR
STARTCHAR 2126
ENCODING 8486
SWIDTH 765 0
DWIDTH 34 0
BBX 32 33 1 0
BITMAP
000FF000
007FFE00
00FFFF80
03FFFFC0
07F00FE0
0FC003F0
1F8001F8
1F0000F8
3E00007C
3C00003C
7C00003E
7800001E
7800001E
7800001E
7800001E
7800001E
7800001E
7800001E
7800001E
7800001E
7C00001E
3C00003C
3C00003C
1E000078
1F000078
0F0000F0
078001E0
03C003C0
00F00F00
FFFC1FFF
FFFC3FFF
FFFC3FFF
FFFC3FFF
ENDCHAR
STARTCHAR 2128
ENCODING 8488
SWIDTH 607 0
DWIDTH 27 0
BBX 26 40 0 -9
BITMAP
0007E000
003FF800
00707C00
01C01E00
01000F00
00000F00
00000780
00000780
00000780
00000780
00000780
00380700
00780700
00780F00
00781E00
00701C00
00387800
001FE000
0007C000
003FF800
007FFC00
00E07E00
01801F00
03000F80
02000780
000007C0
000003C0
000003C0
000003C0
3C0003C0
7F0003C0
C3C003C0
C1F00380
C1F00380
C1F00700
41F00F00
00701E00
003C3C00
000FF000
0003C000
ENDCHAR
STARTCHAR 212D
ENCODING 8493
SWIDTH 675 0
DWIDTH 30 0
BBX 26 34 3 -3
BITMAP
01F00000
07F87E00
0F04FFC0
1C03FFC0
1C071F00
38060600
380C0000
700C0000
701C0000
701C0000
F01E0000
E00F0000
E00F8000
E007C000
E007E000
E003E000
E001F000
F000F000
F0C0F800
F0C07800
F0C07800
F0C07800
F8C07000
78607000
7C30E000
7C1FC040
3E0700C0
3F000180
1F800380
0FF00F00
07FFFE00
03FFF800
00FFF000
001F8000
ENDCHAR
STARTCHAR 212E
ENCODING 8494
SWIDTH 607 0
DWIDTH 27 0
BBX 21 25 2 -1
BITMAP
00FE00
03FF80
0FFFC0
1E01E0
1C00F0
3C0070
380078
780038
780038
780038
780038
FFFFF8
FFFFF8
F80000
780000
780000
780000
780000
780038
3C0070
3C00F0
1E01E0
0FFFC0
07FF80
01FE00
ENDCHAR
STARTCHAR 212F
ENCODING 8495
SWIDTH 495 0
DWIDTH 22 0
BBX 17 22 3 -1
BITMAP
003E00
00F780
01C380
078380
0F0380
0E0780
1E0700
3C0E00
3C1C00
787800
79E000
FF0000
F00000
F00000
F00000
F00000
F00200
F00600
F80C00
7E3000
3FE000
1F8000
ENDCHAR
STARTCHAR 2135
ENCODING 8501
SWIDTH 495 0
DWIDTH 22 0
BBX 20 27 1 1
BITMAP
401000
C03C00
E03FF0
F03FF0
783FF0
3C3FF0
1C1FF0
1E0190
0F0100
0F8300
0BC200
1BC600
19E600
38FC00
387C00
783C00
7C3E00
7C1E00
7E0F00
7F0780
3F8380
1F83C0
1F81E0
1F80E0
7F8070
7F8020
7F0020
ENDCHAR
STARTCHAR 2136
ENCODING 8502
SWIDTH 450 0
DWIDTH 20 0
BBX 18 23 2 1
BITMAP
C00000
FFFC00
FFFE00
FFFF00
FFFF80
7FFF80
000780
000380
000180
000180
000180
000180
000180
000180
000180
000100
000100
000100
7FFFC0
7FFF80
FFFF80
FFFF80
FFFF00
ENDCHAR
STARTCHAR 2137
ENCODING 8503
SWIDTH 337 0
DWIDTH 15 0
BBX 10 24 3 0
BITMAP
2000
3800
7F80
7FC0
3FC0
3FC0
0F80
0180
0080
0080
0080
00C0
00C0
00C0
00C0
00C0
00C0
00C0
00C0
7FC0
7EC0
FE40
FE40
FC40
ENDCHAR
STARTCHAR 215B
ENCODING 8539
SWIDTH 832 0
DWIDTH 37 0
BBX 33 33 2 -1
BITMAP
030000E000
070000C000
0700018000
0F00038000
FF00030000
FF00070000
07000E0000
07000C0000
07001C0000
0700180000
0700380000
0700700000
0700600000
0700E07C00
0700C1FE00
0701838700
0703830380
0703070380
0707070380
000E030380
000C038700
001C01FE00
001801FE00
0038038700
0070070380
0060060180
00E0060180
00C0060180
0180060180
0380070380
0300038700
070001FE00
0E0000FC00
ENDCHAR
ENDFONT
